SplineFontDB: 3.2
FontName: sitelen-pona-pona
FullName: sitelen pona pona
FamilyName: sitelen-pona
Weight: Regular
Copyright: Copyright (c) 2020, Jack Humbert
UComments: "2020-3-4: Created with FontForge (http://fontforge.org)"
Version: 0.1
ItalicAngle: 0
UnderlinePosition: -100
UnderlineWidth: 50
Ascent: 800
Descent: 200
InvalidEm: 0
LayerCount: 2
Layer: 0 0 "Vector" 1
Layer: 1 0 "Fore" 0
XUID: [1021 424 2030559194 30619]
FSType: 0
OS2Version: 0
OS2_WeightWidthSlopeOnly: 0
OS2_UseTypoMetrics: 1
CreationTime: 1583342003
ModificationTime: 1583900412
PfmFamily: 17
TTFWeight: 400
TTFWidth: 5
LineGap: 90
VLineGap: 0
OS2TypoAscent: 0
OS2TypoAOffset: 1
OS2TypoDescent: 0
OS2TypoDOffset: 1
OS2TypoLinegap: 90
OS2WinAscent: 0
OS2WinAOffset: 1
OS2WinDescent: 0
OS2WinDOffset: 1
HheadAscent: 0
HheadAOffset: 1
HheadDescent: 0
HheadDOffset: 1
OS2Vendor: 'PfEd'
Lookup: 4 0 1 "tokiponaWords" { "tokiponaWords subtable"  } ['liga' ('latn' <'dflt' > 'DFLT' <'dflt' > ) ]
Lookup: 6 0 0 "spaceShorten" { "spaceShorten contextual 0"  "spaceShorten contextual 1"  "spaceShorten contextual 2"  "spaceShorten contextual 3"  } ['salt' ('latn' <'dflt' > 'DFLT' <'dflt' > ) ]
Lookup: 1 0 0 "Single Substitution lookup 2" { "Single Substitution lookup 2 subtable"  } []
Lookup: 6 0 0 "tokiponaWordsSalt1s" { "tokiponaWordsSalt1s contextual 0"  "tokiponaWordsSalt1s contextual 1"  "tokiponaWordsSalt1s contextual 2"  "tokiponaWordsSalt1s contextual 3"  } ['salt' ('latn' <'dflt' > 'DFLT' <'dflt' > ) ]
Lookup: 4 0 0 "Ligature Substitution lookup 4" { "Ligature Substitution lookup 4 subtable"  } []
Lookup: 4 0 0 "Ligature Substitution lookup 5" { "Ligature Substitution lookup 5 subtable"  } []
Lookup: 4 0 0 "Ligature Substitution lookup 6" { "Ligature Substitution lookup 6 subtable"  } []

StartChar: tp_a
Encoding: 60928 60928 0
Width: 333
VWidth: 0
Flags: W
HStem: -12 21G<130.596 197.404> 470 50<113.269 284.796>
VStem: 43 50<59.0075 159.68> 235 50<59.0075 159.179>
LayerCount: 2
Back
SplineSet
164 205 m 5
 80 495 l 5
 260 495 l 1029
68 109 m 4
 68 162 111 205 164 205 c 4
 217 205 260 162 260 109 c 4
 260 56 217 13 164 13 c 4
 111 13 68 56 68 109 c 4
EndSplineSet
Fore
SplineSet
93 109 m 0
 93 69.8071427016 124.807092901 38 164 38 c 0
 203.192857298 38 235 69.8070929007 235 109 c 0
 235 148.192857298 203.192907099 180 164 180 c 0
 124.807142702 180 93 148.192907099 93 109 c 0
183.226625842 228.479660586 m 1
 240.902273645 219.264037541 285 169.264252264 285 109 c 0
 285 42.1929070993 230.807142702 -12 164 -12 c 0
 97.1929070993 -12 43 42.1928572984 43 109 c 0
 43 164.720648334 80.6989473505 211.666311364 131.972785954 225.712846308 c 1
 55.9870577336 488.044527068 l 2
 51.2110752455 504.533038039 64.8780999724 520 80 520 c 2
 260 520 l 2
 273.617128764 520 285 508.617128764 285 495 c 0
 285 481.382871236 273.617128764 470 260 470 c 2
 113.269010288 470 l 1
 183.226625842 228.479660586 l 1
EndSplineSet
Ligature2: "Ligature Substitution lookup 4 subtable" a tp_space
Ligature2: "tokiponaWords subtable" percent a space
LCarets2: 2 0 0
EndChar

StartChar: tp_ala
Encoding: 60930 60930 2
Width: 416
VWidth: 0
Flags: W
VStem: 46.251 323.498
LayerCount: 2
Back
SplineSet
68 507 m 5
 348 13 l 1029
68 13 m 5
 348 507 l 1029
EndSplineSet
Fore
SplineSet
55.6728515625 -8.7490234375 m 0
 43.826171875 -2.03515625 39.5361328125 13.4814453125 46.2509765625 25.3271484375 c 2
 179.263671875 260 l 1
 46.2509765625 494.672851562 l 2
 39.5361328125 506.518554688 43.826171875 522.03515625 55.6728515625 528.749023438 c 0
 67.5185546875 535.463867188 83.03515625 531.173828125 89.7490234375 519.327148438 c 2
 208 310.69921875 l 1
 326.250976562 519.327148438 l 2
 332.96484375 531.173828125 348.481445312 535.463867188 360.327148438 528.749023438 c 0
 372.173828125 522.03515625 376.463867188 506.518554688 369.749023438 494.672851562 c 2
 236.736328125 260 l 1
 369.749023438 25.3271484375 l 2
 376.463867188 13.4814453125 372.173828125 -2.03515625 360.327148438 -8.7490234375 c 0
 348.481445312 -15.4638671875 332.96484375 -11.173828125 326.250976562 0.6728515625 c 2
 208 209.30078125 l 1
 89.7490234375 0.6728515625 l 2
 83.03515625 -11.173828125 67.5185546875 -15.4638671875 55.6728515625 -8.7490234375 c 0
EndSplineSet
Ligature2: "Ligature Substitution lookup 60 subtable" a l a
Ligature2: "Ligature Substitution lookup 38 subtable" a l a tp_space
Ligature2: "tokiponaWords subtable" percent a l a space
LCarets2: 4 0 0 0 0
EndChar

StartChar: tp_alasa
Encoding: 60931 60931 3
Width: 540
VWidth: 0
Flags: W
HStem: 0 21G<69.635 316.997> 235 50<100 450.606> 470 50<100 337.65>
VStem: 50 50<50 235 285 470> 450.606 51.3943<167.246 235 285 353.566>
LayerCount: 2
Back
SplineSet
75 260 m 5
 477 260 l 1028
75 495 m 5
 75 25 l 5
 75 25 177 25 255 25 c 7
 365 25 477 121.986328125 477 260 c 7
 477 400 365 495 255 495 c 7
 177 495 75 495 75 495 c 5
EndSplineSet
Fore
SplineSet
50 495 m 2
 50 505.729904333 59.8674621445 520 75 520 c 2
 255 520 l 2
 378.793255352 520 502 414.003135717 502 260 c 0
 502 108.024135524 378.993409405 0 255 0 c 2
 75 0 l 2
 64.2700956673 0 50 9.86746214447 50 25 c 2
 50 260 l 1
 50 495 l 2
100 235 m 1
 100 50 l 1
 255 50 l 2
 344.414174384 50 438.153828048 124.550241307 450.605743063 235 c 1
 100 235 l 1
100 285 m 1
 450.646751366 285 l 1
 438.373346722 396.986086859 344.693419827 470 255 470 c 2
 100 470 l 1
 100 285 l 1
EndSplineSet
Ligature2: "Ligature Substitution lookup 234 subtable" a l a s a
Ligature2: "Ligature Substitution lookup 221 subtable" a l a s a tp_space
Ligature2: "tokiponaWords subtable" percent a l a s a space
LCarets2: 6 0 0 0 0 0 0
EndChar

StartChar: tp_ale
Encoding: 60932 60932 4
Width: 577
VWidth: 0
Flags: W
HStem: 91.9004 50<115.799 227.43 343.871 461.153> 361.9 50<112.248 225.766 341.513 460.046>
VStem: 43 50<164.431 343.102> 260 50.0088<177.654 325.568> 480 50<158.553 342.972>
LayerCount: 2
Back
SplineSet
68 260 m 3
 68 149.282226562 111 116.900390625 171 116.900390625 c 3
 285 116.900390625 285 251.900390625 285 251.900390625 c 1
 285 251.900390625 285 386.900390625 397 386.900390625 c 3
 457 386.900390625 505 362.900390625 505 258.900390625 c 3
 505 149.25 471 116.900390625 401 116.900390625 c 3
 285 116.900390625 285 251.900390625 285 251.900390625 c 1
 285.278320312 251.900390625 285 386.900390625 165 386.900390625 c 3
 117 386.900390625 68 362.620117188 68 260 c 3
EndSplineSet
Fore
SplineSet
284.296875 346.362304688 m 1
 303.250976562 380.196289062 339.416992188 411.900390625 397 411.900390625 c 0
 467.620117188 411.900390625 530 374.725585938 530 258.900390625 c 0
 530 142.736328125 485.909179688 91.900390625 401 91.900390625 c 0
 342.313476562 91.900390625 304.977539062 123.251953125 285.188476562 157.192382812 c 1
 265.752929688 123.365234375 228.948242188 91.900390625 171 91.900390625 c 0
 96.0244140625 91.900390625 43 141.315429688 43 260 c 0
 43 373.659179688 104.639648438 411.900390625 165 411.900390625 c 0
 225.190429688 411.900390625 263.7265625 380.572265625 284.296875 346.362304688 c 1
310.022460938 252.905273438 m 0
 310.022460938 252.420898438 310.022460938 252.020507812 310.008789062 251.463867188 c 0
 310.034179688 250.365234375 310.1796875 246.038085938 310.828125 240.135742188 c 0
 314.575195312 205.9921875 330.020507812 141.900390625 401 141.900390625 c 0
 456.090820312 141.900390625 480 155.763671875 480 258.900390625 c 0
 480 351.075195312 446.379882812 361.900390625 397 361.900390625 c 0
 338.309570312 361.900390625 319.701171875 315.1328125 312.829101562 277.743164062 c 0
 310.625976562 265.754882812 310.124023438 256.145507812 310.022460938 252.905273438 c 0
260.015625 253.229492188 m 0
 259.9453125 256.244140625 259.409179688 265.999023438 257.01171875 277.984375 c 0
 249.73828125 314.342773438 230.302734375 361.900390625 165 361.900390625 c 0
 129.360351562 361.900390625 93 351.581054688 93 260 c 0
 93 157.249023438 125.975585938 141.900390625 171 141.900390625 c 0
 235.947265625 141.900390625 253.158203125 197.25 258.400390625 233.8515625 c 0
 259.916992188 244.444335938 259.998046875 251.751953125 260 251.952148438 c 0
 260.000976562 252.31640625 260.015625 252.610351562 260.015625 253.229492188 c 0
EndSplineSet
LCarets2: 4 0 0 0 0
Ligature2: "Ligature Substitution lookup 62 subtable" a l i
Ligature2: "Ligature Substitution lookup 61 subtable" a l e
Ligature2: "Ligature Substitution lookup 40 subtable" a l i tp_space
Ligature2: "Ligature Substitution lookup 39 subtable" a l e tp_space
Ligature2: "tokiponaWords subtable" percent a l i space
Ligature2: "tokiponaWords subtable" percent a l e space
EndChar

StartChar: tp_anpa
Encoding: 60933 60933 5
Width: 540
VWidth: 0
Flags: W
HStem: -140 78<235.281 304.719> 0 21G<69.635 472.566> 512 20G<68.1914 81.8086 458.191 471.809>
VStem: 50 50<50 531.796> 231 78<-135.719 -66.2807> 440 50<50 531.796>
CounterMasks: 1 1c
LayerCount: 2
Back
SplineSet
75 507 m 5
 75 25 l 5
 465 25 l 5
 465 507 l 1029
EndSplineSet
Refer: 153 -1 S 1 0 0 1 270 -101 2
Fore
SplineSet
75 532 m 0
 88.6171287645 532 100 520.617128764 100 507 c 2
 100 50 l 1
 440 50 l 1
 440 507 l 2
 440 520.617128764 451.382871236 532 465 532 c 0
 478.617128764 532 490 520.617128764 490 507 c 2
 490 25 l 2
 490 14.2700956673 480.132537856 0 465 0 c 2
 75 0 l 2
 64.2700956673 0 50 9.86746214447 50 25 c 2
 50 507 l 2
 50 520.617128764 61.3828712355 532 75 532 c 0
EndSplineSet
Refer: 153 -1 N 1 0 0 1 270 -101 2
Ligature2: "Ligature Substitution lookup 151 subtable" a n p a
Ligature2: "Ligature Substitution lookup 82 subtable" a n p a tp_space
Ligature2: "tokiponaWords subtable" percent a n p a space
LCarets2: 5 0 0 0 0 0
EndChar

StartChar: tp_ante
Encoding: 60934 60934 6
Width: 550
VWidth: 0
Flags: W
HStem: -12 21G<463.191 476.809> 512 20G<73.1914 86.8086>
VStem: 55 50<241.552 531.796> 445 50<-11.7959 278.448>
LayerCount: 2
Back
SplineSet
68 13 m 5
 470 330 l 5
 470 13 l 1029
80 507 m 5
 80 190 l 4
 482 507 l 1029
EndSplineSet
Fore
SplineSet
48.3691840738 -2.48002151394 m 0
 39.9374462245 8.21259241481 41.8273645573 24.1990780769 52.5199784861 32.6308159262 c 2
 454.519978486 349.630815926 l 2
 465.804088612 358.528982369 482.799401768 355.839578591 490.784821149 343.89212762 c 0
 493.578260902 339.712699727 495 333.357017956 495 330 c 2
 495 13 l 2
 495 -0.617128764476 483.617128764 -12 470 -12 c 0
 456.382871236 -12 445 -0.617128764476 445 13 c 2
 445 278.448371089 l 1
 83.4800215139 -6.63081592619 l 2
 72.7874075852 -15.0625537755 56.8009219231 -13.1726354427 48.3691840738 -2.48002151394 c 0
80 532 m 0
 93.6171287645 532 105 520.617128764 105 507 c 2
 105 241.551628911 l 1
 466.519978486 526.630815926 l 2
 477.212592415 535.062553775 493.199078077 533.172635443 501.630815926 522.480021514 c 0
 510.062553775 511.787407585 508.172635443 495.800921923 497.480021514 487.369184074 c 2
 95.4800215139 170.369184074 l 2
 92.885576533 168.323315768 86.9414629025 165.468989912 81.9614271361 165.077062701 c 0
 67.6353201526 163.949602697 55 175.629596131 55 190 c 2
 55 507 l 2
 55 520.617128764 66.3828712355 532 80 532 c 0
EndSplineSet
Ligature2: "Ligature Substitution lookup 152 subtable" a n t e
Ligature2: "Ligature Substitution lookup 83 subtable" a n t e tp_space
Ligature2: "tokiponaWords subtable" percent a n t e space
LCarets2: 5 0 0 0 0 0
EndChar

StartChar: tp_anu
Encoding: 60935 60935 7
Width: 436
VWidth: 0
Flags: W
HStem: -12 21G<211.191 224.809>
VStem: 193 50<-11.7959 253.003>
LayerCount: 2
Back
SplineSet
218 260 m 4
 218 13 l 1028
68 507 m 29
 218 260 l 5
 368 507 l 1053
EndSplineSet
Fore
SplineSet
55.023289196 528.368317124 m 0
 66.6622942263 535.436538802 82.3000954456 531.615715834 89.3683171239 519.976710804 c 2
 218 308.163206335 l 1
 346.631682876 519.976710804 l 2
 353.699904554 531.615715834 369.337705774 535.436538802 380.976710804 528.368317124 c 0
 392.615715834 521.300095446 396.436538802 505.662294226 389.368317124 494.023289196 c 2
 243 253.003460332 l 1
 243 13 l 2
 243 -0.617128764476 231.617128764 -12 218 -12 c 0
 204.382871236 -12 193 -0.617128764476 193 13 c 2
 193 253.003460332 l 1
 46.6316828761 494.023289196 l 2
 39.5634611978 505.662294226 43.3842841657 521.300095446 55.023289196 528.368317124 c 0
EndSplineSet
Ligature2: "Ligature Substitution lookup 63 subtable" a n u
Ligature2: "Ligature Substitution lookup 41 subtable" a n u tp_space
Ligature2: "tokiponaWords subtable" percent a n u space
LCarets2: 4 0 0 0 0
EndChar

StartChar: tp_awen
Encoding: 60936 60936 8
Width: 540
VWidth: 0
Flags: W
LayerCount: 2
Back
SplineSet
63 75 m 5
 146 13 l 5
 270 507 l 5
 394 14 l 5
 477 75 l 1029
EndSplineSet
Fore
SplineSet
42.9710797933 89.9613620821 m 0
 51.1203115518 100.870817501 67.0519066634 103.178151965 77.9613620821 95.0289202067 c 2
 130.890349827 55.4916040602 l 1
 245.752223151 513.086486497 l 2
 249.250833915 527.024500347 264.349575746 535.276867102 277.970134753 530.695504891 c 0
 286.172030826 527.936744643 292.373645242 520.537682786 294.244859152 513.098098448 c 2
 409.17071907 56.1751231285 l 1
 462.194872503 95.1446816756 l 2
 473.167381475 103.208814775 489.080548576 100.777636468 497.144681676 89.8051274965 c 0
 505.208814775 78.8326185247 502.777636468 62.9194514242 491.805127497 54.8553183244 c 2
 408.805127497 -6.14468167561 l 2
 407.274837411 -7.26935270268 404.38109183 -8.88328158479 401.981481997 -9.69168514773 c 0
 388.36311864 -14.2795699383 373.260426349 -6.03443515892 369.755140848 7.90190155194 c 2
 270.024565673 404.411365754 l 1
 170.247776849 6.91351350345 l 2
 169.668053386 4.60397003063 168.543696099 1.87848847898 167.141005762 -0.343832858995 c 0
 159.470755068 -12.4960244991 142.551584815 -15.6289528289 131.038637918 -7.02892020672 c 2
 48.0386379179 54.9710797933 l 2
 37.1291824991 63.1203115518 34.8218480347 79.0519066634 42.9710797933 89.9613620821 c 0
EndSplineSet
LCarets2: 5 0 0 0 0 0
Ligature2: "Ligature Substitution lookup 153 subtable" a w e n
Ligature2: "Ligature Substitution lookup 84 subtable" a w e n tp_space
Ligature2: "tokiponaWords subtable" percent a w e n space
EndChar

StartChar: tp_e
Encoding: 60937 60937 9
Width: 506
VWidth: 0
Flags: W
LayerCount: 2
Back
SplineSet
63 406 m 5
 243 260 l 5
 63 114 l 1029
270 406 m 5
 443 260 l 5
 270 114 l 1029
EndSplineSet
Fore
SplineSet
43.5839589646 421.748566618 m 0
 52.1619693441 432.324195853 68.1729373826 433.994051415 78.7485666176 425.416041035 c 2
 258.748566618 279.416041035 l 2
 271.391510468 269.161208801 270.069258311 249.766297782 258.748566618 240.583958965 c 2
 78.7485666176 94.5839589646 l 2
 68.1729373826 86.005948585 52.1619693441 87.6758041473 43.5839589646 98.2514333824 c 0
 35.005948585 108.827062617 36.6758041473 124.838030656 47.2514333824 133.416041035 c 2
 203.313848544 260 l 1
 47.2514333824 386.583958965 l 2
 36.6758041473 395.161969344 35.005948585 411.172937383 43.5839589646 421.748566618 c 0
250.894413987 422.123789352 m 0
 259.676802618 432.530318347 275.717260358 433.887974645 286.123789352 425.105586013 c 2
 459.123789352 279.105586013 l 2
 471.912749706 268.312590571 468.840155985 249.094353457 459.123789352 240.894413987 c 2
 286.123789352 94.8944139865 l 2
 275.717260358 86.1120253552 259.676802618 87.4696816529 250.894413987 97.8762106476 c 0
 242.112025355 108.282739642 243.469681653 124.323197382 253.876210648 133.105586013 c 2
 404.237399823 260 l 1
 253.876210648 386.894413987 l 2
 243.469681653 395.676802618 242.112025355 411.717260358 250.894413987 422.123789352 c 0
EndSplineSet
Ligature2: "Ligature Substitution lookup 5 subtable" e tp_space
Ligature2: "tokiponaWords subtable" percent e space
LCarets2: 2 0 0
EndChar

StartChar: tp_en
Encoding: 60938 60938 10
Width: 426
VWidth: 0
Flags: W
HStem: 235 50<38.2041 188 238 387.796>
VStem: 188 50<89.2041 235 285 430.796>
LayerCount: 2
Back
SplineSet
63 260 m 5
 363 260 l 1029
213 406 m 5
 213 114 l 1029
EndSplineSet
Fore
SplineSet
213 431 m 0
 226.617128764 431 238 419.617128764 238 406 c 2
 238 285 l 1
 363 285 l 2
 376.617128764 285 388 273.617128764 388 260 c 0
 388 246.382871236 376.617128764 235 363 235 c 2
 238 235 l 1
 238 114 l 2
 238 100.382871236 226.617128764 89 213 89 c 0
 199.382871236 89 188 100.382871236 188 114 c 2
 188 235 l 1
 63 235 l 2
 49.3828712355 235 38 246.382871236 38 260 c 0
 38 273.617128764 49.3828712355 285 63 285 c 2
 188 285 l 1
 188 406 l 2
 188 419.617128764 199.382871236 431 213 431 c 0
EndSplineSet
LCarets2: 3 0 0 0
Ligature2: "Ligature Substitution lookup 25 subtable" e n
Ligature2: "Ligature Substitution lookup 12 subtable" e n tp_space
Ligature2: "tokiponaWords subtable" percent e n space
EndChar

StartChar: tp_esun
Encoding: 60939 60939 11
Width: 540
VWidth: 0
Flags: W
HStem: -12 21G<120.965 185.922 356.453 441.042> 166 50<102.071 209.887> 312 50<301.653 442.886> 482 50<328.553 437.269>
VStem: 38 50<49.1882 151.79> 247.764 49.0766<186.341 321.202 390.833 442.476> 452 50<48.3308 109.575 373.499 467.002>
LayerCount: 2
Back
SplineSet
103 507 m 5
 103 507 185.989257812 337 373 337 c 7
 439.030273438 337 477 361 477 421 c 7
 477 473.009765625 438 507 375 507 c 7
 178 507 363.0390625 13 157 13 c 7
 96 13 63 42.9921875 63 105 c 7
 63 159.037109375 105.9609375 191 157 191 c 7
 271.00390625 191 285 13 385 13 c 7
 477 13 478 85 478 85 c 1029
EndSplineSet
Fore
SplineSet
296.840727041 321.201855922 m 1
 293.737958439 264.355116881 294.247204635 201.190066082 287.0606868 144.940202829 c 0
 286.5433533 140.890962389 285.974332198 136.80702946 285.363823919 132.793954898 c 0
 287.526760811 129.731000407 289.816592825 126.441881116 291.754864495 123.624399408 c 0
 326.606285342 72.9641941164 349.825089462 38 385 38 c 0
 453.555913371 38 452.801158367 81.8523142108 453.087648532 87.0927613366 c 0
 454.131047951 99.9450020386 465.435123879 110.232517988 478.454343295 109.995871102 c 0
 491.489066884 109.758942402 502.364626684 99.776663987 503.010159169 85.3309653326 c 0
 502.930094129 80.9261563132 497.084291226 -12 385 -12 c 0
 327.905307666 -12 294.545070884 31.5316370538 269.011183065 68.2661150447 c 1
 250.901882041 22.9913482574 214.844916884 -12 157 -12 c 0
 84.9299117835 -12 38 30.3485902823 38 105 c 0
 38 175.22239069 95.7989253094 216 157 216 c 0
 190.890528105 216 218.929282746 202.456228773 240.733665224 184.06900191 c 1
 244.381560803 232.442609192 244.395492526 287.193299441 247.764092017 337.994432583 c 1
 132.449369067 388.99122698 82.2031938423 492.624234965 80.2021331138 496.71046321 c 0
 75.5450488516 507.958442643 79.2605493168 523.211327623 92.0048966888 529.452342933 c 0
 104.748157047 535.692825923 119.104137444 529.228176038 125.073764487 518.758648113 c 0
 126.501919885 515.878959501 167.488462 435.136071576 253.112166674 390.833424651 c 1
 263.507164397 460.961959406 292.568807911 532 375 532 c 0
 447.453649774 532 502 489.0457376 502 421 c 0
 502 344.163845365 445.379570933 312 373 312 c 0
 345.967956921 312 320.301997799 315.411692353 296.840727041 321.201855922 c 1
232.334686866 120.356289227 m 0
 230.412508018 122.790724305 228.434508566 125.219353806 226.544359341 127.447888704 c 0
 205.727379549 151.991647102 185.646734399 166 157 166 c 0
 116.122949691 166 88 142.85182806 88 105 c 0
 88 55.6357847177 107.070088217 38 157 38 c 0
 198.627228592 38 217.784498964 61.0967733639 230.221848268 111.155505266 c 0
 230.930682672 114.008472607 231.664628469 117.21775083 232.334686866 120.356289227 c 0
301.02081977 371.826748737 m 1
 322.750834031 365.668052929 346.674574288 362 373 362 c 0
 432.680975942 362 452 377.836154635 452 421 c 0
 452 456.97379365 428.546350226 482 375 482 c 0
 329.307976785 482 310.212172552 447.018525328 301.02081977 371.826748737 c 1
EndSplineSet
LCarets2: 5 0 0 0 0 0
Ligature2: "Ligature Substitution lookup 154 subtable" e s u n
Ligature2: "Ligature Substitution lookup 85 subtable" e s u n tp_space
Ligature2: "tokiponaWords subtable" percent e s u n space
EndChar

StartChar: tp_ijo
Encoding: 60940 60940 12
Width: 550
VWidth: 0
Flags: W
HStem: -12 21G<204.613 345.388> 482 50<189.678 360.322>
VStem: 43 50<146.908 373.092> 457 50<146.908 373.092>
AnchorPoint: "Small" 275 260 basechar 0
LayerCount: 2
Back
SplineSet
68 260 m 0
 68 406 151 507 275 507 c 0
 399 507 482 406 482 260 c 0
 482 114 399 13 275 13 c 0
 151 13 68 114 68 260 c 0
EndSplineSet
Fore
SplineSet
93 260 m 0
 93 123.278320312 167.774414062 38 275 38 c 0
 382.224609375 38 457 123.278320312 457 260 c 0
 457 396.721679688 382.225585938 482 275 482 c 0
 167.775390625 482 93 396.721679688 93 260 c 0
43 260 m 0
 43 415.278320312 134.224609375 532 275 532 c 0
 415.774414062 532 507 415.278320312 507 260 c 0
 507 104.721679688 415.775390625 -12 275 -12 c 0
 134.225585938 -12 43 104.721679688 43 260 c 0
EndSplineSet
Ligature2: "Ligature Substitution lookup 64 subtable" i j o
Ligature2: "Ligature Substitution lookup 42 subtable" i j o tp_space
Ligature2: "tokiponaWords subtable" percent i j o space
LCarets2: 4 0 0 0 0
EndChar

StartChar: tp_ike
Encoding: 60941 60941 13
Width: 550
VWidth: 0
Flags: W
HStem: -12 21G<73.1914 86.8086 463.191 476.809> 482 50<196.873 353.127>
VStem: 55 50<-11.7959 373.529> 445 50<-11.7959 373.529>
LayerCount: 2
Back
SplineSet
80 13 m 25
 80 13 80 114 80 260 c 0
 80 406 157 507 275 507 c 0
 393 507 470 406 470 260 c 0
 470 114.787109375 470 13 470 13 c 1049
EndSplineSet
Fore
SplineSet
80 -12 m 4
 66.3828125 -12 55 -0.6171875 55 13 c 6
 55 260 l 6
 55 413.923828125 139.004882812 532 275 532 c 4
 410.995117188 532 495 413.923828125 495 260 c 6
 495 13 l 6
 495 -0.6171875 483.6171875 -12 470 -12 c 4
 456.3828125 -12 445 -0.6171875 445 13 c 6
 445 260 l 6
 445 398.076171875 375.004882812 482 275 482 c 4
 174.995117188 482 105 398.076171875 105 260 c 6
 105 13 l 6
 105 -0.6171875 93.6171875 -12 80 -12 c 4
EndSplineSet
Ligature2: "Ligature Substitution lookup 65 subtable" i k e
Ligature2: "Ligature Substitution lookup 43 subtable" i k e tp_space
Ligature2: "tokiponaWords subtable" percent i k e space
LCarets2: 4 0 0 0 0
EndChar

StartChar: tp_ilo
Encoding: 60942 60942 14
Width: 550
VWidth: 0
Flags: W
HStem: -132 21G<268.191 281.809> 470 50<105 250 300 445>
VStem: 55 50<50 470> 250 50<-131.796 0 50 470> 445 50<50 470>
CounterMasks: 1 38
LayerCount: 2
Back
SplineSet
275 495 m 1
 275 -107 l 1025
80 495 m 1
 80 25 l 1
 470 25 l 1
 470 495 l 1
 80 495 l 1
EndSplineSet
Fore
SplineSet
105 470 m 1
 105 50 l 1
 250 50 l 1
 250 470 l 1
 105 470 l 1
55 495 m 2
 55 505.729492188 64.8671875 520 80 520 c 2
 275 520 l 1
 470 520 l 2
 480.729492188 520 495 510.1328125 495 495 c 2
 495 25 l 2
 495 14.2705078125 485.1328125 0 470 0 c 2
 300 0 l 1
 300 -107 l 2
 300 -120.6171875 288.6171875 -132 275 -132 c 0
 261.3828125 -132 250 -120.6171875 250 -107 c 2
 250 0 l 1
 80 0 l 2
 69.2705078125 0 55 9.8671875 55 25 c 2
 55 495 l 2
300 50 m 1
 445 50 l 1
 445 470 l 1
 300 470 l 1
 300 50 l 1
EndSplineSet
LCarets2: 4 0 0 0 0
Ligature2: "Ligature Substitution lookup 66 subtable" i l o
Ligature2: "Ligature Substitution lookup 44 subtable" i l o tp_space
Ligature2: "tokiponaWords subtable" percent i l o space
EndChar

StartChar: tp_insa
Encoding: 60943 60943 15
Width: 550
VWidth: 0
Flags: W
HStem: 0 21G<74.6353 477.566> 221 78<240.281 309.719> 513 20G<73.1914 86.8086 463.191 476.809>
VStem: 55 50<50 532.796> 236 78<225.281 294.719> 445 50<50 532.796>
CounterMasks: 1 1c
LayerCount: 2
Back
SplineSet
80 508 m 5
 80 25 l 5
 470 25 l 5
 470 508 l 1029
EndSplineSet
Refer: 153 -1 S 1 0 0 1 275 260 2
Fore
SplineSet
80 533 m 0
 93.6171875 533 105 521.6171875 105 508 c 2
 105 50 l 1
 445 50 l 1
 445 508 l 2
 445 521.6171875 456.3828125 533 470 533 c 0
 483.6171875 533 495 521.6171875 495 508 c 2
 495 25 l 2
 495 14.2705078125 485.1328125 0 470 0 c 2
 80 0 l 2
 69.2705078125 0 55 9.8671875 55 25 c 2
 55 508 l 2
 55 521.6171875 66.3828125 533 80 533 c 0
EndSplineSet
Refer: 153 -1 N 1 0 0 1 275 260 2
Ligature2: "Ligature Substitution lookup 155 subtable" i n s a
Ligature2: "Ligature Substitution lookup 86 subtable" i n s a tp_space
Ligature2: "tokiponaWords subtable" percent i n s a space
LCarets2: 5 0 0 0 0 0
EndChar

StartChar: tp_jaki
Encoding: 60944 60944 16
Width: 600
VWidth: 0
Flags: HW
LayerCount: 2
Back
SplineSet
244 600 m 29
 244 600 100 560 100 446 c 7
 100 349.98828125 304.48046875 228.5 304.48046875 165.5 c 7
 304.48046875 102.5 235.360351562 50 192.16015625 50 c 7
 148.959960938 50 98.560546875 84.5 98.560546875 150.5 c 7
 98.560546875 255.5 500 334.490234375 500 450 c 7
 500 546.01171875 436.672851562 565.5 404.959960938 565.5 c 7
 373.247070312 565.5 327.200195312 534.009765625 327.200195312 427.5 c 7
 327.200195312 328.48828125 500 188 500 188 c 1029
EndSplineSet
Fore
SplineSet
375.359168506 361.635658608 m 1
 441.104101316 396.883583655 475 429.676888199 475 450 c 0
 475 530.543801548 427.08372305 540.5 404.959960938 540.5 c 0
 392.618197752 540.5 352.200195312 527.872943454 352.200195312 427.5 c 0
 352.200195312 410.123268701 360.51772673 386.678695361 375.359168506 361.635658608 c 1
227.276976037 233.788959491 m 1
 158.186514019 198.407882517 123.560546875 166.529212177 123.560546875 150.5 c 0
 123.560546875 99.1908315338 161.429456074 75 192.16015625 75 c 0
 221.481804909 75 279.48046875 119.130890691 279.48046875 165.5 c 0
 279.48046875 171.587395693 261.711485855 199.229212951 227.276976037 233.788959491 c 1
404.123461219 320.338878263 m 1
 452.824690376 258.719946508 515.781546055 207.389244547 515.781546055 207.389244547 c 2
 521.782290245 202.505040804 524.903753264 195.226016095 524.903753264 187.9131568 c 0
 524.903753264 182.355720316 523.101014593 176.778743341 519.389244547 172.218453945 c 0
 514.562247126 166.287993576 507.555326566 163.010868923 500.212209161 163.010868923 c 0
 495.035843931 163.010868923 489.69241484 164.639346713 484.827769068 168.114812129 c 0
 482.827131153 169.743197357 412.718829731 226.548715916 358.878863186 297.111599857 c 1
 331.147885279 283.512390947 302.055626394 270.067408449 274.5718601 256.986314022 c 1
 301.827966154 228.666860808 329.48046875 200.020822894 329.48046875 165.5 c 0
 329.48046875 85.8691093088 249.238898216 25 192.16015625 25 c 0
 136.490465801 25 73.560546875 69.8091684662 73.560546875 150.5 c 0
 73.560546875 205.456918602 133.161693009 240.422492848 189.746860545 270.607342865 c 1
 138.24684364 321.030963184 75 380.573275476 75 446 c 0
 75 582.60869146 237.836199328 624.235296312 238.029712801 624.289360172 c 0
 239.736119767 624.652358246 241.492117189 624.831322224 243.259686005 624.831322224 c 0
 253.826490212 624.831322224 264.806837054 618.43544256 268.077970433 606.726911611 c 0
 268.687636168 604.54470462 268.971389925 602.381046845 268.971389925 600.269496612 c 0
 268.971389925 589.157510773 261.113206831 579.48857402 251.540866866 576.153386835 c 0
 243.319968351 573.81645792 125 535.453401166 125 446 c 0
 125 409.691563038 178.901447912 350.976507631 236.958003597 294.400510286 c 1
 267.638627477 309.236114957 300.156314228 324.148917567 330.675274753 338.980686566 c 1
 314.521513291 366.998317106 302.200195312 397.208194945 302.200195312 427.5 c 0
 302.200195312 540.146587796 353.875942873 590.5 404.959960938 590.5 c 0
 446.261980075 590.5 525 561.479635952 525 450 c 0
 525 391.373525501 463.71574588 352.788503182 404.123461219 320.338878263 c 1
EndSplineSet
Validated: 1
Ligature2: "Ligature Substitution lookup 156 subtable" j a k i
Ligature2: "Ligature Substitution lookup 87 subtable" j a k i tp_space
Ligature2: "tokiponaWords subtable" percent j a k i space
EndChar

StartChar: tp_jan
Encoding: 60945 60945 17
Width: 550
VWidth: 0
Flags: W
HStem: -12 21G<252.719 297.281> 482 50<189.678 360.322>
VStem: 43 50<147.948 372.073> 457 50<147.937 373.092>
LayerCount: 2
Back
SplineSet
459 -117 m 5
 409 53 l 1029
91 -117 m 5
 141 53 l 1029
EndSplineSet
Refer: 12 60940 S 1 0 0 1 0 0 2
Fore
SplineSet
83.9458419002 -140.984137539 m 0
 70.8820383331 -137.141842372 63.1735672939 -123.009645467 67.0158624607 -109.9458419 c 2
 115.582969672 55.1823226197 l 1
 69.3510468112 104.227670296 43 176.545178989 43 260 c 0
 43 415.278320312 134.224609375 532 275 532 c 0
 415.774414062 532 507 415.278320312 507 260 c 0
 507 176.544999471 480.649121909 104.227359175 434.417123416 55.1820061187 c 1
 482.984137539 -109.9458419 l 2
 486.826432706 -123.009645467 479.117961667 -137.141842372 466.0541581 -140.984137539 c 0
 452.990354533 -144.826432706 438.858157628 -137.117961667 435.015862461 -124.0541581 c 2
 392.468308336 20.6075259252 l 1
 359.158433099 -0.30441175555 319.561726809 -12 275 -12 c 0
 230.438419255 -12 190.84169966 -0.304326160928 157.531759184 20.6077554925 c 1
 114.984137539 -124.0541581 l 2
 111.141842372 -137.117961667 97.0096454673 -144.826432706 83.9458419002 -140.984137539 c 0
93 260 m 0
 93 123.278320312 167.774414062 38 275 38 c 0
 382.224609375 38 457 123.278320312 457 260 c 0
 457 396.721679688 382.225585938 482 275 482 c 0
 167.775390625 482 93 396.721679688 93 260 c 0
EndSplineSet
Ligature2: "Ligature Substitution lookup 67 subtable" j a n
Ligature2: "Ligature Substitution lookup 45 subtable" j a n tp_space
Ligature2: "tokiponaWords subtable" percent j a n space
LCarets2: 4 0 0 0 0
EndChar

StartChar: tp_jelo
Encoding: 60946 60946 18
Width: 600
VWidth: 0
Flags: HW
LayerCount: 2
Back
SplineSet
300 374.6796875 m 5
 100 50 l 5
 500 50 l 5
 300 374.6796875 l 5
100 486.6796875 m 1
 191.639648438 487.33984375 l 1024
500 487 m 1
 408.360351562 487.33984375 l 1024
300 700 m 1
 300 600 l 1024
191.639648438 487.33984375 m 0
 191.639648438 548.909179688 240.780273438 600 300 600 c 0
 359.219726562 600 408.360351562 548.909179688 408.360351562 487.33984375 c 0
 408.360351562 425.76953125 359.219726562 374.6796875 300 374.6796875 c 4
 240.780273438 374.6796875 191.639648438 425.76953125 191.639648438 487.33984375 c 0
EndSplineSet
Fore
SplineSet
300 327.012727724 m 1
 144.762245729 75 l 1
 455.237754271 75 l 1
 300 327.012727724 l 1
300 725 m 0
 313.617128764 725 325 713.617128764 325 700 c 2
 325 622.551939617 l 1
 378.948216493 611.848643863 421.167274918 567.234855194 431.125399194 512.25559195 c 1
 500.092711348 511.999828092 l 2
 513.679536402 511.94944163 524.999996092 500.57496169 524.999996092 486.997886406 c 0
 524.974628366 473.317804633 513.561219256 461.949536588 499.907288652 462.000171908 c 2
 431.095260833 462.255359897 l 1
 422.076939556 412.801219609 386.957519253 371.764759731 340.690092349 356.290414935 c 1
 521.285687785 63.1118074854 l 2
 522.811381681 60.6349983986 524.99826239 54.8824906825 524.99826239 50.0467891501 c 0
 524.99826239 36.5283425905 513.726483286 25 500 25 c 2
 100 25 l 2
 97.6586433788 25 92.0972588372 25.9583375661 88.598622792 27.7512113192 c 0
 79.9959636603 32.1596383648 75.0840255258 41.1008926506 75.0840255258 50.2061347227 c 0
 75.0840255258 54.6370102184 76.2472110508 59.1067193097 78.7143122154 63.1118074854 c 2
 259.310499031 356.291374981 l 1
 213.070083894 371.758766795 177.962394024 412.761021698 168.919812081 462.17552528 c 1
 100.180091023 461.680336164 l 2
 86.5288384051 461.58199489 75.000014824 472.936125166 75.000014824 486.675549832 c 0
 75.000014824 500.214990514 86.261824878 511.581368732 99.819908977 511.679038836 c 2
 168.85979999 512.176390324 l 1
 178.790543374 567.196352886 221.022797757 611.845289033 275 622.552415811 c 1
 275 700 l 2
 275 713.617128764 286.382871236 725 300 725 c 0
216.639648438 487.33984375 m 0
 216.639648438 438.833074521 255.520268303 399.6796875 300 399.6796875 c 0
 344.475415276 399.6796875 383.360351562 438.839949881 383.360351562 487.33984375 c 0
 383.360351562 535.845682648 344.479537848 575 300 575 c 0
 255.524776217 575 216.639648438 535.838801743 216.639648438 487.33984375 c 0
EndSplineSet
Validated: 33
LCarets2: 5 0 0 0 0 0
Ligature2: "Ligature Substitution lookup 157 subtable" j e l o
Ligature2: "Ligature Substitution lookup 88 subtable" j e l o tp_space
Ligature2: "tokiponaWords subtable" percent j e l o space
EndChar

StartChar: tp_jo
Encoding: 60947 60947 19
Width: 550
VWidth: 0
Flags: W
HStem: -12 21G<205.613 346.377> 235 50<251.204 457.138> 470 50<225.063 326.115> 678 50<225.218 326.782>
VStem: 44 50<146.908 369.361> 150.2 50<544.713 653.739> 351.8 50<544.529 653.739>
LayerCount: 2
Back
SplineSet
276 260 m 5
 483 260 l 5
 483.198242188 114 400 13 276 13 c 7
 152 13 69 114 69 260 c 7
 69 406 159 490.181640625 221.799804688 511 c 1029
175.200195312 599.200195312 m 4
 175.200195312 655.200195312 220 703 276 703 c 4
 332 703 376.799804688 655.200195312 376.799804688 599.200195312 c 4
 376.799804688 543.200195312 332 495 276 495 c 4
 220 495 175.200195312 543.200195312 175.200195312 599.200195312 c 4
EndSplineSet
Fore
SplineSet
150.200195312 599.200195312 m 0
 150.200195312 668.244914565 205.272503049 728 276 728 c 0
 346.727231788 728 401.799804688 668.244739533 401.799804688 599.200195312 c 0
 401.799804688 530.247887391 346.855575742 470 276 470 c 0
 255.742083646 470 236.784747212 474.924795992 220.040225752 483.56977769 c 1
 167.825698383 460.850895061 94.0000000203 387.136044246 94 260 c 0
 94 123.278511214 168.774006754 38 276 38 c 0
 376.713876235 38 448.049265437 112.047633101 457.138432209 235 c 1
 276 235 l 2
 262.382871236 235 251 246.382871236 251 260 c 0
 251 273.617128764 262.382871236 285 276 285 c 2
 483 285 l 2
 497.214270093 285 507.983055687 272.496000065 507.999976954 260.033945549 c 0
 508.210895404 104.698221885 416.754527258 -12 276 -12 c 0
 135.225993246 -12 44 104.721488786 44 260 c 0
 44 392.310936752 112.719735404 479.603200758 178.280748027 518.270217351 c 1
 160.637647608 540.748366494 150.200195312 569.147562811 150.200195312 599.200195312 c 0
200.200195312 599.200195312 m 0
 200.200195312 556.152275534 234.855306884 520 276 520 c 0
 317.144424258 520 351.799804688 556.152503234 351.799804688 599.200195312 c 0
 351.799804688 642.155651092 317.272768212 678 276 678 c 0
 234.727496951 678 200.200195312 642.15547606 200.200195312 599.200195312 c 0
EndSplineSet
Ligature2: "Ligature Substitution lookup 26 subtable" j o
Ligature2: "Ligature Substitution lookup 13 subtable" j o tp_space
Ligature2: "tokiponaWords subtable" percent j o space
LCarets2: 3 0 0 0
EndChar

StartChar: tp_kala
Encoding: 60948 60948 20
Width: 600
VWidth: 0
Flags: HW
LayerCount: 2
Back
SplineSet
100 450 m 7
 100 350 197.46484375 100 347 100 c 7
 438 100 500 163.9765625 500 250 c 7
 500 336.0234375 438 400 347 400 c 7
 196.00390625 400 100 152 100 50 c 1028
EndSplineSet
Fore
SplineSet
188.586164956 250.853169087 m 2
 188.586164956 250.853169087 188.846896018 250.395834194 189.345666794 249.52910026 c 0
 231.12013812 176.935929831 287.200097463 125 347 125 c 0
 424.88647108 125 475 177.347686159 475 250 c 0
 475 322.665906709 424.872387714 375 347 375 c 0
 286.763028759 375 231.2042525 324.284937126 189.756904427 252.881486084 c 0
 189.43708868 252.330523256 188.975418684 251.530187369 188.586164956 250.853169087 c 2
162.345274166 198.125144535 m 1
 137.952305069 141.356292 125 83.3974287021 125 50 c 0
 125 36.3828712355 113.617128764 25 100 25 c 0
 86.3828712355 25 75 36.3828712355 75 50 c 0
 75 100.991457115 94.7154560088 176.256320752 130.003760944 247.253975669 c 0
 130.47255971 248.197166709 131.215640572 249.67801253 131.82598023 250.888915894 c 0
 131.203230343 252.126900189 130.437356403 253.655940558 129.966570223 254.604831966 c 0
 94.8395419669 325.404988705 75 399.967160545 75 450 c 0
 75 463.617128764 86.3828712355 475 100 475 c 0
 113.617128764 475 125 463.617128764 125 450 c 0
 125 417.742540074 138.057477045 360.177105485 162.404469675 303.523601539 c 1
 205.929045561 368.557788031 267.897952677 425 347 425 c 0
 451.127612286 425 525 349.380968291 525 250 c 0
 525 150.605438841 451.11352892 75 347 75 c 0
 268.048036063 75 205.993905284 132.520335579 162.345274166 198.125144535 c 1
EndSplineSet
Validated: 1
Ligature2: "Ligature Substitution lookup 158 subtable" k a l a
Ligature2: "Ligature Substitution lookup 89 subtable" k a l a tp_space
Ligature2: "tokiponaWords subtable" percent k a l a space
EndChar

StartChar: tp_kalama
Encoding: 60949 60949 21
Width: 550
VWidth: 0
Flags: W
HStem: -12 21G<204.009 345.991> 470 50<105 445>
VStem: 55 50<140.295 470> 250 50<578.204 727.796> 445 50<140.295 470>
CounterMasks: 1 38
AnchorPoint: "Small" 275 260 basechar 0
LayerCount: 2
Back
SplineSet
398 604 m 5
 475 673 l 1029
275 603 m 5
 275 703 l 1029
75 673 m 5
 152 604 l 1029
EndSplineSet
Refer: 112 61040 S 1 0 0 1 5 0 2
Fore
SplineSet
379.381620375 587.315997479 m 0
 370.294091949 597.457152388 371.174842569 613.5308512 381.315997479 622.618379625 c 2
 458.315997479 691.618379625 l 2
 468.457152388 700.705908051 484.5308512 699.825157431 493.618379625 689.684002521 c 0
 502.705908051 679.542847612 501.825157431 663.4691488 491.684002521 654.381620375 c 2
 414.684002521 585.381620375 l 2
 404.542847612 576.294091949 388.4691488 577.174842569 379.381620375 587.315997479 c 0
275 578 m 0
 261.382871236 578 250 589.382871236 250 603 c 2
 250 703 l 2
 250 716.617128764 261.382871236 728 275 728 c 0
 288.617128764 728 300 716.617128764 300 703 c 2
 300 603 l 2
 300 589.382871236 288.617128764 578 275 578 c 0
56.3816203748 689.684002521 m 0
 65.4691488004 699.825157431 81.5428476116 700.705908051 91.6840025213 691.618379625 c 2
 168.684002521 622.618379625 l 2
 178.825157431 613.5308512 179.705908051 597.457152388 170.618379625 587.315997479 c 0
 161.5308512 577.174842569 145.457152388 576.294091949 135.315997479 585.381620375 c 2
 58.3159974787 654.381620375 l 2
 48.174842569 663.4691488 47.2940919492 679.542847612 56.3816203748 689.684002521 c 0
EndSplineSet
Refer: 112 61040 N 1 0 0 1 5 0 2
Ligature2: "Ligature Substitution lookup 257 subtable" k a l a m a
Ligature2: "Ligature Substitution lookup 246 subtable" k a l a m a tp_space
Ligature2: "tokiponaWords subtable" percent k a l a m a space
LCarets2: 7 0 0 0 0 0 0 0
EndChar

StartChar: tp_kama
Encoding: 60950 60950 22
Width: 550
VWidth: 0
Flags: W
HStem: 0 21G<268.191 490.032>
LayerCount: 2
Back
SplineSet
68 13 m 1
 275 507 l 1
 482 25 l 1
 275 25 l 1025
EndSplineSet
Fore
SplineSet
58.337890625 -10.0576171875 m 0
 45.779296875 -4.794921875 39.6796875 10.1025390625 44.9423828125 22.662109375 c 2
 251.942382812 516.662109375 l 2
 257.49609375 529.916015625 273.6640625 535.8046875 286.44140625 529.228515625 c 0
 291.645507812 526.549804688 295.954101562 521.5625 297.971679688 516.865234375 c 2
 504.971679688 34.865234375 l 2
 510.641601562 21.6611328125 503.640625 5.9423828125 490.032226562 1.3251953125 c 0
 487.515625 0.4716796875 482 0 482 0 c 1
 275 0 l 2
 261.3828125 0 250 11.3828125 250 25 c 0
 250 38.6171875 261.3828125 50 275 50 c 2
 444.055664062 50 l 1
 275.283203125 442.987304688 l 1
 91.0576171875 3.337890625 l 2
 85.794921875 -9.220703125 70.8974609375 -15.3203125 58.337890625 -10.0576171875 c 0
EndSplineSet
Ligature2: "Ligature Substitution lookup 159 subtable" k a m a
Ligature2: "Ligature Substitution lookup 90 subtable" k a m a tp_space
Ligature2: "tokiponaWords subtable" percent k a m a space
LCarets2: 5 0 0 0 0 0
EndChar

StartChar: tp_kasi
Encoding: 60951 60951 23
Width: 550
VWidth: 0
Flags: W
HStem: -12 21G<268.191 281.809> 480.525 51.4747<93.9406 157.005 392.995 456.059>
VStem: 43 464<356.326 522.133> 250 50<-11.7959 238.6>
LayerCount: 2
Back
SplineSet
275 13 m 1
 275 260 l 1024
482 507 m 1
 325 507 279 370 275 260 c 1
 399 260 482 356 482 507 c 1
68 507 m 1
 225 507 271 370 275 260 c 1
 151 260 68 356 68 507 c 1
EndSplineSet
Fore
SplineSet
93.9405956325 480.525284292 m 1xc0
 102.519018644 366.556267071 161.459080291 298.676908476 248.076188134 286.770869171 c 1
 238.485657485 378.10873558 199.2994892 467.591727914 93.9405956325 480.525284292 c 1xc0
456.059404368 480.525284292 m 1
 350.7005108 467.591727914 311.514342515 378.10873558 301.923811866 286.770869171 c 1
 388.540919709 298.676908476 447.480981356 366.556267071 456.059404368 480.525284292 c 1
482 532 m 0
 492.729904333 532 507 522.132537856 507 507 c 0xe0
 507 356.326333376 426.086198521 248.726678551 300 236.219383582 c 1
 300 13 l 2
 300 -0.617128764476 288.617128764 -12 275 -12 c 0
 261.382871236 -12 250 -0.617128764476 250 13 c 2
 250 236.219383582 l 1xd0
 123.913801479 248.726678551 43 356.326333376 43 507 c 0xe0
 43 522.132537856 57.2700956673 532 68 532 c 0
 183.193881268 532 244.794974899 465.642296556 275 388.128078521 c 1
 305.205025101 465.642296556 366.806118732 532 482 532 c 0
EndSplineSet
LCarets2: 5 0 0 0 0 0
Ligature2: "Ligature Substitution lookup 160 subtable" k a s i
Ligature2: "Ligature Substitution lookup 91 subtable" k a s i tp_space
Ligature2: "tokiponaWords subtable" percent k a s i space
EndChar

StartChar: tp_ken
Encoding: 60952 60952 24
Width: 398
VWidth: 0
Flags: W
HStem: -12 21G<73.1914 86.8086> 512 20G<73.1914 86.8086>
VStem: 55 50<-11.7959 196.136 323.864 531.796>
LayerCount: 2
Back
SplineSet
330 507 m 5
 75 260 l 5
 330 13 l 1029
80 507 m 5
 80 13 l 1029
EndSplineSet
Fore
SplineSet
80 532 m 0
 93.6171287645 532 105 520.617128764 105 507 c 2
 105 323.863987826 l 1
 312.606254874 524.957105292 l 2
 322.387223474 534.431219976 338.482990609 534.174713726 347.957105292 524.393745126 c 0
 357.431219976 514.612776526 357.174713726 498.517009391 347.393745126 489.042894708 c 2
 110.932457068 260 l 1
 347.393745126 30.9571052924 l 2
 357.174713726 21.4829906091 357.431219976 5.38722347381 347.957105292 -4.39374512632 c 0
 338.482990609 -14.1747137264 322.387223474 -14.4312199756 312.606254874 -4.95710529235 c 2
 105 196.136012174 l 1
 105 13 l 2
 105 -0.617128764476 93.6171287645 -12 80 -12 c 0
 66.3828712355 -12 55 -0.617128764476 55 13 c 2
 55 245.094287026 l 1
 49.2309478574 253.239848128 48.2552639341 265.823653487 55 274.977482576 c 1
 55 507 l 2
 55 520.617128764 66.3828712355 532 80 532 c 0
EndSplineSet
Ligature2: "Ligature Substitution lookup 68 subtable" k e n
Ligature2: "Ligature Substitution lookup 46 subtable" k e n tp_space
Ligature2: "tokiponaWords subtable" percent k e n space
LCarets2: 4 0 0 0 0
EndChar

StartChar: tp_kepeken
Encoding: 60953 60953 25
Width: 540
VWidth: 0
Flags: W
HStem: -12 21G<458.191 471.809> 345 48.656<215.076 265 315 370.414> 470 50<140 265 315 440> 666 50<140 265 315 440>
VStem: 90 50<520 666> 111 50<75.529 291.338> 265 50<390.649 470 520 666> 440 50<-11.7959 277.607 520 666>
LayerCount: 2
Back
SplineSet
63 92 m 5
 63 92 160 11 160 13 c 4
 160 13.9931640625 136 129.999023438 136 200 c 7
 136 292.01953125 181.981445312 370 290 370 c 7
 396.004882812 370 465 292 465 200 c 6
 465 13 l 1029
290 691 m 5
 290 370 l 1028
115 691 m 5
 115 495 l 5
 465 495 l 5
 465 691 l 5
 115 691 l 5
EndSplineSet
Fore
SplineSet
140 666 m 1xfb
 140 520 l 1
 265 520 l 1
 265 666 l 1
 140 666 l 1xfb
90 691 m 2
 90 701.729904333 99.8674621445 716 115 716 c 2
 290 716 l 1
 465 716 l 2
 475.729904333 716 490 706.132537856 490 691 c 2
 490 495 l 2
 490 484.270095667 480.132537856 470 465 470 c 2
 315 470 l 1
 315 393.655177371 l 1
 420.736710905 382.102332738 490 297.651424942 490 200 c 2
 490 13 l 2
 490 -0.617128764476 478.617128764 -12 465 -12 c 0
 451.382871236 -12 440 -0.617128764476 440 13 c 2
 440 200 l 2
 440 278.846682352 382.323884677 345 290 345 c 0
 198.68795598 345 161 283.774508883 161 200 c 0
 161 131.495372064 185 24.704065131 185 13 c 0
 185 -10.8907017146 156.952559678 -11.9352788757 154.999101811 -11.5425734283 c 0
 130.074562967 -6.53197025849 48.6896382481 71.3798091173 46.9768797474 72.8099083543 c 0
 36.5243217897 81.5374640218 35.0823526868 97.5705622949 43.8099083543 108.023120253 c 0
 52.5374640218 118.47567821 68.5705622949 119.917647313 79.0231202526 111.190091646 c 2
 79.0231202526 111.190091646 101.872936577 92.1212164019 123.727715798 74.0727600229 c 1
 117.229917507 114.79911412 111 161.204320415 111 200 c 0xf7
 111 293.293182951 157.989874034 381.799403852 265 393.656021565 c 1
 265 470 l 1
 115 470 l 2
 104.270095667 470 90 479.867462144 90 495 c 2
 90 691 l 2
315 520 m 1
 440 520 l 1
 440 666 l 1
 315 666 l 1
 315 520 l 1
EndSplineSet
Ligature2: "Ligature Substitution lookup 272 subtable" k e p e k e n
Ligature2: "Ligature Substitution lookup 268 subtable" k e p e k e n tp_space
Ligature2: "tokiponaWords subtable" percent k e p e k e n space
LCarets2: 8 0 0 0 0 0 0 0 0
EndChar

StartChar: tp_kili
Encoding: 60954 60954 26
Width: 540
VWidth: 0
Flags: W
HStem: -12 21G<183.207 355.124> 382 50<117.259 236.686 303.007 423.551> 512 20G<263.191 276.809>
VStem: 38 50<133.995 351.163> 245 50<414.743 531.796> 452 50<127.816 352.948>
CounterMasks: 1 1c
LayerCount: 2
Back
SplineSet
270 357 m 5
 270 507 l 1028
270 13 m 7
 423.029296875 13 477 118 477 250 c 7
 477 330 457 407 370 407 c 7
 291 407 270 357 270 357 c 5
 270 357 248 407 170 407 c 7
 85 407 63 330 63 250 c 7
 63 132 114.918945312 13 270 13 c 7
EndSplineSet
Fore
SplineSet
270 38 m 0
 405.810280312 38 452 124.72226068 452 250 c 0
 452 329.907005619 434.051219078 382 370 382 c 0
 308.197673863 382 293.955259778 349.127886421 291.99075603 345.103117174 c 0
 290.038420125 341.366978057 287.081622316 338.308632572 283.565045198 336.099400966 c 0
 279.636613296 333.514460202 274.966937969 331.999999149 270 332 c 0
 267.63990286 332 265.346921075 332.341932587 263.168685565 332.978167177 c 0
 261.548586335 333.42217947 259.957380646 334.040293905 258.421695926 334.842769244 c 0
 255.222726552 336.514396919 252.730258265 338.683476423 250.647683151 341.325572573 c 0
 249.611543492 342.595840256 248.695875605 343.966544831 247.919584309 345.418783482 c 0
 247.486485923 346.178654984 247.06966584 346.966481742 246.664700621 347.781899473 c 2
 246.664700621 347.781899473 230.002001503 382 170 382 c 0
 107.929376458 382 88 329.512176145 88 250 c 0
 88 138.099338455 133.42453393 38 270 38 c 0
270 -12 m 0
 96.4133566954 -12 38 125.900661545 38 250 c 0
 38 330.487823855 62.0706235417 432 170 432 c 0
 201.67838718 432 226.266411777 424.721654097 245 414.679816099 c 1
 245 507 l 2
 245 520.617128764 256.382871236 532 270 532 c 0
 283.617128764 532 295 520.617128764 295 507 c 2
 295 414.743155869 l 1
 313.505875223 424.487707317 338.343291798 432 370 432 c 0
 479.948780922 432 502 330.092994381 502 250 c 0
 502 111.27773932 440.248313438 -12 270 -12 c 0
EndSplineSet
LCarets2: 5 0 0 0 0 0
Ligature2: "Ligature Substitution lookup 161 subtable" k i l i
Ligature2: "Ligature Substitution lookup 92 subtable" k i l i tp_space
Ligature2: "tokiponaWords subtable" percent k i l i space
EndChar

StartChar: tp_kiwen
Encoding: 60955 60955 27
Width: 550
VWidth: 0
Flags: W
HStem: 470 50<197.206 352.794>
LayerCount: 2
Back
SplineSet
275 13 m 5
 68 345 l 5
 185 495 l 5
 365 495 l 5
 482 345 l 5
 275 13 l 5
EndSplineSet
Fore
SplineSet
275 60.2518656109 m 1
 451.541674155 343.400830923 l 1
 352.794322275 470 l 1
 197.205677725 470 l 1
 98.4583258447 343.400830923 l 1
 275 60.2518656109 l 1
253.785695634 -0.226990975282 m 2
 46.7856956338 331.773009025 l 2
 41.2847120689 340.595842569 41.9327902385 352.228805081 48.2874423496 360.375794967 c 2
 165.28744235 510.375794967 l 2
 170.18434956 516.653881135 178.781716796 520 185 520 c 2
 365 520 l 2
 372.96203907 520 380.888115747 515.278925613 384.71255765 510.375794967 c 2
 501.71255765 360.375794967 l 2
 508.107208979 352.177524033 508.6808787 340.540654815 503.214304366 331.773009025 c 2
 296.214304366 -0.226990975282 l 2
 288.611216275 -12.4213158371 271.709588466 -15.6475426398 260.149368841 -7.11115994094 c 0
 257.618124502 -5.2420198137 255.117279343 -2.36267112697 253.785695634 -0.226990975282 c 2
EndSplineSet
LCarets2: 6 0 0 0 0 0 0
Ligature2: "Ligature Substitution lookup 236 subtable" k i w e n
Ligature2: "Ligature Substitution lookup 223 subtable" k i w e n tp_space
Ligature2: "tokiponaWords subtable" percent k i w e n space
EndChar

StartChar: tp_ko
Encoding: 60956 60956 28
Width: 600
VWidth: 0
Flags: HW
LayerCount: 2
Back
SplineSet
214 274 m 5
 214 274 90 252 90 162 c 7
 90 100 138 40 200 40 c 7
 251 40 300 110 300 110 c 5
 300 110 350 40 400 40 c 7
 465 40 510 100 510 165 c 7
 510 265 390 280 390 280 c 5
 390 280 402 319 402 340 c 31
 402 400 380.385742188 460 300 460 c 7
 223.138671875 460 196 401 196 338 c 31
 196 311 214 274 214 274 c 5
EndSplineSet
Fore
SplineSet
218.949639915 249.491725599 m 0
 209.301654197 247.709253164 115 224.732030539 115 162 c 0
 115 111.109478914 155.025499618 65 200 65 c 0
 231.30445836 65 277.290678854 121.191578741 279.535280448 124.359512944 c 0
 284.381149868 131.254581621 292.226092138 134.895297247 300.119499792 134.895297247 c 0
 305.718025834 134.895297247 311.340932791 133.063804942 315.93543746 129.262965321 c 0
 317.632233833 127.859277361 320.316903904 124.567889887 320.316903904 124.567889887 c 2
 322.650529878 121.313331057 369.747039147 65 400 65 c 0
 447.636149115 65 485 110.051589001 485 165 c 0
 485 238.521602141 394.839677351 254.117191029 385.763681112 255.346232186 c 0
 371.770501798 258.254322575 365.134176278 270.115526877 365.134176278 280.650641124 c 0
 365.134176278 282.975912775 365.457469482 285.236583029 366.096308518 287.322126299 c 2
 366.096308518 287.322126299 377 325.59806661 377 340 c 0
 377 395.360813008 361.284775878 435 300 435 c 0
 241.690825535 435 221 395.014154697 221 338 c 0
 221 319.576390224 236.504502873 284.88794519 236.504502873 284.88794519 c 2
 238.186732382 281.410912733 238.932434988 277.905683613 238.932434988 274.519723138 c 0
 238.932434988 262.371986568 229.334172487 251.759408584 218.949639915 249.491725599 c 0
180.272238767 290.853827595 m 1
 175.88505148 303.930083034 171 320.655747769 171 338 c 0
 171 406.985845303 204.586518215 485 300 485 c 0
 399.486708498 485 427 404.639186992 427 340 c 0
 427 325.800002135 424.2791026 313.223514834 420.879276079 298.668007542 c 1
 456.724618629 288.151736953 535 254.715537341 535 165 c 0
 535 89.9484109989 482.363850885 15 400 15 c 0
 355.225003291 15 321.269232521 48.2306071516 300.131779895 70.8436932627 c 1
 280.798895683 49.9402887087 245.552192713 15 200 15 c 0
 120.974500382 15 65 88.8905210857 65 162 c 0
 65 244.348556412 142.447507626 278.342966954 180.272238767 290.853827595 c 1
EndSplineSet
Validated: 1
Ligature2: "Ligature Substitution lookup 27 subtable" k o
Ligature2: "Ligature Substitution lookup 14 subtable" k o tp_space
Ligature2: "tokiponaWords subtable" percent k o space
EndChar

StartChar: tp_kon
Encoding: 60957 60957 29
Width: 550
VWidth: 0
Flags: WO
HStem: -12.0011 22G<61.1752 95.3704 325.175 359.37> 481 50.0011<130.875 242.741 391.318 506.61>
VStem: 43 50<337.061 448.71> 193 50<70.3683 182.415> 307 50<337.598 449.71> 457 50<71.3683 182.986>
LayerCount: 2
Back
SplineSet
332 14 m 29
 332 14 482 14 482 114 c 7
 482 260.123235661 332 259.986395187 332 407 c 7
 332 507 482 507 482 507 c 1029
68 13 m 29
 68 13 218 13 218 113 c 7
 218 260.013604813 68 260 68 406 c 7
 68 506 218 506 218 506 c 1029
EndSplineSet
Fore
SplineSet
307.000026485 13.9636099367 m 0
 306.980205358 27.5807242753 318.346495598 38.9801523881 331.963609937 38.9999735153 c 0
 342.097301091 39.0147241574 457 45.6105533254 457 114 c 0
 457 236.65949831 307 236.572975135 307 407 c 0
 307 537.913258848 482.749200146 532.001121151 482.749200146 532.001121151 c 1
 497.181808731 531.114187772 506.980997009 520.073250191 506.999973515 507.036390063 c 0
 507.019794642 493.419275725 495.653504402 482.019847612 482.036390063 482.000026485 c 0
 471.882482852 481.955295616 357 475.422232244 357 407 c 0
 357 283.399815239 507 283.586973012 507 114 c 0
 507 -16.4013162859 331.250799854 -11.001121151 331.250799854 -11.001121151 c 1
 319.099688381 -10.2543936077 307.02068213 -0.226818326638 307.000026485 13.9636099367 c 0
43.0000264847 12.9636099367 m 0
 42.9802053576 26.5807242753 54.346495598 37.9801523881 67.9636099367 37.9999735153 c 0
 78.0973010908 38.0147241574 193 44.6105533254 193 113 c 0
 193 236.720196448 43 236.422018858 43 406 c 0
 43 536.913258848 218.749200146 531.001121151 218.749200146 531.001121151 c 1
 233.181808731 530.114187772 242.980997009 519.073250191 242.999973515 506.036390063 c 0
 243.019794642 492.419275725 231.653504402 481.019847612 218.036390063 481.000026485 c 0
 207.882482852 480.955295616 93 474.422232244 93 406 c 0
 93 283.577981142 243 283.307013177 243 113 c 0
 243 -17.4013162859 67.2507998539 -12.001121151 67.2507998539 -12.001121151 c 1
 55.0996883806 -11.2543936077 43.02068213 -1.22681832664 43.0000264847 12.9636099367 c 0
EndSplineSet
LCarets2: 4 0 0 0 0
Ligature2: "Ligature Substitution lookup 70 subtable" k o n
Ligature2: "Ligature Substitution lookup 48 subtable" k o n tp_space
Ligature2: "tokiponaWords subtable" percent k o n space
EndChar

StartChar: tp_kule
Encoding: 60958 60958 30
Width: 540
VWidth: 0
Flags: W
HStem: -12 21G<61.7756 484.185> 166 50<38.2041 100.005 175.169 364.831 439.995 501.796>
LayerCount: 2
Back
SplineSet
63 191 m 5
 477 191 l 1029
270 507 m 5
 63 13 l 5
 477 13 l 5
 270 507 l 5
EndSplineSet
Fore
SplineSet
246.942456487 516.661764184 m 2
 248.981940084 521.528937599 253.304555861 526.523968961 258.55899062 529.228434591 c 0
 271.336253918 535.804911609 287.503805376 529.915612685 293.057543513 516.661764184 c 2
 419.043343485 216 l 1
 477 216 l 2
 490.617128764 216 502 204.617128764 502 191 c 0
 502 177.382871236 490.617128764 166 477 166 c 2
 439.994760489 166 l 1
 500.057543513 22.6617641845 l 2
 501.00395559 20.4031769094 501.715718615 17.5944580424 501.922937299 14.9614271361 c 0
 503.050397303 0.63532015256 491.370403869 -12 477 -12 c 2
 63 -12 l 2
 60.5511406127 -12 57.6855788531 -11.5709731026 55.1770459429 -10.7445023073 c 0
 41.5283224298 -6.24774193727 34.3887183504 9.40791568409 39.9424564872 22.6617641845 c 2
 100.005239511 166 l 1
 63 166 l 2
 49.3828712355 166 38 177.382871236 38 191 c 0
 38 204.617128764 49.3828712355 216 63 216 c 2
 120.956656515 216 l 1
 246.942456487 516.661764184 l 2
154.217432554 166 m 1
 100.581805023 38 l 1
 439.418194977 38 l 1
 385.782567446 166 l 1
 154.217432554 166 l 1
175.168849558 216 m 1
 364.831150442 216 l 1
 270 442.312020862 l 1
 175.168849558 216 l 1
EndSplineSet
Ligature2: "Ligature Substitution lookup 162 subtable" k u l e
Ligature2: "Ligature Substitution lookup 93 subtable" k u l e tp_space
Ligature2: "tokiponaWords subtable" percent k u l e space
LCarets2: 5 0 0 0 0 0
EndChar

StartChar: tp_kulupu
Encoding: 60959 60959 31
Width: 600
VWidth: 0
Flags: HW
LayerCount: 2
Back
SplineSet
360 130 m 4
 360 174 396 210 440 210 c 4
 484 210 520 174 520 130 c 4
 520 86 484 50 440 50 c 4
 396 50 360 86 360 130 c 4
80 130 m 4
 80 174 116 210 160 210 c 4
 204 210 240 174 240 130 c 4
 240 86 204 50 160 50 c 4
 116 50 80 86 80 130 c 4
220 370 m 4
 220 414 256 450 300 450 c 4
 344 450 380 414 380 370 c 4
 380 326 344 290 300 290 c 4
 256 290 220 326 220 370 c 4
EndSplineSet
Fore
SplineSet
195 370 m 0
 195 427.844147731 242.155680827 475 300 475 c 0
 357.844147731 475 405 427.844319173 405 370 c 0
 405 312.155852269 357.844319173 265 300 265 c 0
 242.155852269 265 195 312.155680827 195 370 c 0
245 370 m 0
 245 339.844319173 269.844147731 315 300 315 c 0
 330.155680827 315 355 339.844147731 355 370 c 0
 355 400.155680827 330.155852269 425 300 425 c 0
 269.844319173 425 245 400.155852269 245 370 c 0
55 130 m 0
 55 187.844147731 102.155680827 235 160 235 c 0
 217.844147731 235 265 187.844319173 265 130 c 0
 265 72.1558522686 217.844319173 25 160 25 c 0
 102.155852269 25 55 72.1556808271 55 130 c 0
105 130 m 0
 105 99.8443191729 129.844147731 75 160 75 c 0
 190.155680827 75 215 99.8441477314 215 130 c 0
 215 160.155680827 190.155852269 185 160 185 c 0
 129.844319173 185 105 160.155852269 105 130 c 0
335 130 m 0
 335 187.844147731 382.155680827 235 440 235 c 0
 497.844147731 235 545 187.844319173 545 130 c 0
 545 72.1558522686 497.844319173 25 440 25 c 0
 382.155852269 25 335 72.1556808271 335 130 c 0
385 130 m 0
 385 99.8443191729 409.844147731 75 440 75 c 0
 470.155680827 75 495 99.8441477314 495 130 c 0
 495 160.155680827 470.155852269 185 440 185 c 0
 409.844319173 185 385 160.155852269 385 130 c 0
EndSplineSet
Validated: 1
Ligature2: "Ligature Substitution lookup 259 subtable" k u l u p u
Ligature2: "Ligature Substitution lookup 248 subtable" k u l u p u tp_space
Ligature2: "tokiponaWords subtable" percent k u l u p u space
EndChar

StartChar: tp_kute
Encoding: 60960 60960 32
Width: 488
VWidth: 0
Flags: W
HStem: -12 21G<179.356 283.783> 220 78<178.656 248.094> 482 50<130.119 298.634>
VStem: 174.375 78<224.281 293.719> 395 50<146.908 373.092>
LayerCount: 2
Back
SplineSet
68 442.375 m 5
 107.875 482.25 152.875 507 213.375 507 c 4
 337.375 507 420 406 420 260 c 4
 420 114 337.375 13 213.375 13 c 4
 152.875 13 107.875 37.75 68 77.625 c 1029
EndSplineSet
Refer: 153 -1 S 1 0 0 1 213.375 259 2
Fore
SplineSet
50.3223304703 424.69733047 m 0
 40.6935663807 434.32609456 40.6935663807 450.42390544 50.3223304703 460.05266953 c 0
 93.2607450979 502.991084157 145.3365256 532 213.375 532 c 0
 354.189208806 532 445 415.217997216 445 260 c 0
 445 104.781920896 354.190672023 -12 213.375 -12 c 0
 145.336402909 -12 93.260772459 17.0088884816 50.3223304703 59.9473304703 c 0
 40.6935663807 69.57609456 40.6935663807 85.67390544 50.3223304703 95.3026695297 c 0
 59.95109456 104.931433619 76.04890544 104.931433619 85.6776695297 95.3026695297 c 0
 122.489227541 58.4911115184 160.413597091 38 213.375 38 c 0
 320.559327977 38 395 123.218079104 395 260 c 0
 395 396.782002784 320.560791194 482 213.375 482 c 0
 160.4134744 482 122.489254902 461.508915843 85.6776695297 424.69733047 c 0
 76.04890544 415.068566381 59.95109456 415.068566381 50.3223304703 424.69733047 c 0
EndSplineSet
Refer: 153 -1 N 1 0 0 1 213.375 259 2
Ligature2: "Ligature Substitution lookup 163 subtable" k u t e
Ligature2: "Ligature Substitution lookup 94 subtable" k u t e tp_space
Ligature2: "tokiponaWords subtable" percent k u t e space
LCarets2: 5 0 0 0 0 0
EndChar

StartChar: tp_la
Encoding: 60961 60961 33
Width: 488
VWidth: 0
Flags: W
HStem: -12 21G<179.356 283.783> 482 50<130.119 298.634>
VStem: 395 50<146.908 373.092>
LayerCount: 2
Back
SplineSet
68 442.375 m 5
 107.875 482.25 152.875 507 213.375 507 c 4
 337.375 507 420 406 420 260 c 4
 420 114 337.375 13 213.375 13 c 4
 152.875 13 107.875 37.75 68 77.625 c 1029
EndSplineSet
Fore
SplineSet
50.3223304703 424.69733047 m 0
 40.6935663807 434.32609456 40.6935663807 450.42390544 50.3223304703 460.05266953 c 0
 93.2607450979 502.991084157 145.3365256 532 213.375 532 c 0
 354.189208806 532 445 415.217997216 445 260 c 0
 445 104.781920896 354.190672023 -12 213.375 -12 c 0
 145.336402909 -12 93.260772459 17.0088884816 50.3223304703 59.9473304703 c 0
 40.6935663807 69.57609456 40.6935663807 85.67390544 50.3223304703 95.3026695297 c 0
 59.95109456 104.931433619 76.04890544 104.931433619 85.6776695297 95.3026695297 c 0
 122.489227541 58.4911115184 160.413597091 38 213.375 38 c 0
 320.559327977 38 395 123.218079104 395 260 c 0
 395 396.782002784 320.560791194 482 213.375 482 c 0
 160.4134744 482 122.489254902 461.508915843 85.6776695297 424.69733047 c 0
 76.04890544 415.068566381 59.95109456 415.068566381 50.3223304703 424.69733047 c 0
EndSplineSet
Ligature2: "Ligature Substitution lookup 28 subtable" l a
Ligature2: "Ligature Substitution lookup 15 subtable" l a tp_space
Ligature2: "tokiponaWords subtable" percent l a space
LCarets2: 3 0 0 0
EndChar

StartChar: tp_lape
Encoding: 60962 60962 34
Width: 540
VWidth: 0
Flags: W
HStem: 139 50<330.427 430.992> 235 50<38.2041 268.596> 331 50<330.803 430.788>
VStem: 452 50<210.008 309.992>
CounterMasks: 1 e0
LayerCount: 2
Back
SplineSet
63 260 m 5
 285 260 l 1029
285 260 m 4
 285 313 328 356 381 356 c 4
 434 356 477 313 477 260 c 4
 477 207 434 164 381 164 c 4
 328 164 285 207 285 260 c 4
EndSplineSet
Fore
SplineSet
38 260 m 0
 38 273.617128764 49.3828712355 285 63 285 c 2
 262.587679646 285 l 1
 274.11156733 339.819268494 322.763039299 381 381 381 c 0
 447.807092901 381 502 326.807142702 502 260 c 0
 502 193.192907099 447.807142702 139 381 139 c 0
 322.763077554 139 274.111569851 180.180700957 262.587678728 235 c 1
 63 235 l 2
 49.3828712355 235 38 246.382871236 38 260 c 0
310 260 m 0
 310 220.807142702 341.807092901 189 381 189 c 0
 420.192857298 189 452 220.807092901 452 260 c 0
 452 299.192857298 420.192907099 331 381 331 c 0
 341.807142702 331 310 299.192907099 310 260 c 0
EndSplineSet
Ligature2: "Ligature Substitution lookup 164 subtable" l a p e
Ligature2: "Ligature Substitution lookup 95 subtable" l a p e tp_space
Ligature2: "tokiponaWords subtable" percent l a p e space
LCarets2: 5 0 0 0 0 0
EndChar

StartChar: tp_laso
Encoding: 60963 60963 35
Width: 600
VWidth: 0
Flags: HW
HStem: 25 50<144.762 455.238> 547.129 52.5388<128.929 191.774 408.226 471.071>
LayerCount: 2
Back
SplineSet
270 507 m 5
 63 25 l 5
 477 25 l 5
 270 507 l 5
270 507 m 1028
465 703 m 5
 333 699 274 617 270 507 c 5
 426 521 451 581 465 703 c 5
75 703 m 5
 207 699 266 617 270 507 c 5
 114 521 89 581 75 703 c 5
EndSplineSet
Fore
SplineSet
103.816965486 675.533960499 m 1
 117.015251624 589.110697484 135.459600263 551.643144578 242.407553857 535.407219558 c 1
 231.481856614 610.357027134 190.470582423 663.196629532 103.816965486 675.533960499 c 1
436.183034514 675.533960499 m 1
 349.529417577 663.196629532 308.518143386 610.357027134 297.592446143 535.407219558 c 1
 404.540399737 551.643144578 422.984748376 589.110697484 436.183034514 675.533960499 c 1
464.242771834 727.988529479 m 0
 475.839897328 728.339957524 491.772966394 717.020400961 489.837001788 700.149852254 c 0
 476.321813353 582.374638747 444.548114677 508.261042054 306.118816762 486.251033816 c 1
 499.971224043 34.8652352217 l 2
 500.335554301 34.0168913347 501.718357138 29.56093156 501.922937299 26.9614271361 c 0
 503.050397303 12.6353201526 491.370403869 0 477 0 c 2
 63 0 l 2
 62.0767319523 0 57.43671093 0.487776701893 54.9674297328 1.32558733774 c 0
 41.3589948799 5.94283849162 34.3580793813 21.6610045471 40.0287759573 34.8652352217 c 2
 233.881183238 486.251033816 l 1
 95.4518853227 508.261042054 63.678186647 582.374638747 50.1629982118 700.149852254 c 0
 48.4199169504 715.339560389 61.2206350737 728.4290323 75.757228166 727.988529479 c 0
 174.26410493 725.003472607 237.834764499 680.188008966 270 614.381910384 c 1
 302.165235501 680.188008966 365.73589507 725.003472607 464.242771834 727.988529479 c 0
270 443.646214109 m 1
 100.944468215 50 l 1
 439.055531785 50 l 1
 270 443.646214109 l 1
EndSplineSet
Ligature2: "Ligature Substitution lookup 165 subtable" l a s o
Ligature2: "Ligature Substitution lookup 96 subtable" l a s o tp_space
Ligature2: "tokiponaWords subtable" percent l a s o space
LCarets2: 5 0 0 0 0 0
EndChar

StartChar: tp_lawa
Encoding: 60964 60964 36
Width: 550
VWidth: 0
Flags: W
HStem: -12 21G<204.613 345.388> 235 50<93.8642 456.136> 482 50<190.174 359.826>
VStem: 43 50.8642<145.889 235 285 374.111> 456.136 50.8642<145.889 235 285 374.111>
LayerCount: 2
Back
SplineSet
80 260 m 5
 210 260 340 260 470 260 c 1029
EndSplineSet
Refer: 12 60940 S 1 0 0 1 0 0 2
Fore
SplineSet
43 260 m 0
 43 415.278320312 134.224609375 532 275 532 c 0
 415.774414062 532 507 415.278320312 507 260 c 0
 507 104.721679688 415.775390625 -12 275 -12 c 0
 134.225585938 -12 43 104.721679688 43 260 c 0
93.8642341646 285 m 1
 456.135776544 285 l 1
 447.535956253 407.038440477 375.530632709 482 275 482 c 0
 174.470282878 482 102.464158082 407.038440477 93.8642341646 285 c 1
456.135765835 235 m 1
 93.8642234564 235 l 1
 102.464043747 112.961559523 174.469367291 38 275 38 c 0
 375.529717122 38 447.535841918 112.961559523 456.135765835 235 c 1
EndSplineSet
Ligature2: "Ligature Substitution lookup 166 subtable" l a w a
Ligature2: "Ligature Substitution lookup 97 subtable" l a w a tp_space
Ligature2: "tokiponaWords subtable" percent l a w a space
LCarets2: 5 0 0 0 0 0
EndChar

StartChar: tp_len
Encoding: 60965 60965 37
Width: 540
VWidth: 0
Flags: W
HStem: 6.93889e-16 50<100 245 295 440> 470 50<100 440>
VStem: 50 50<-149.796 0 50 470> 245 50<-149.796 0> 440 50<-149.796 0 50 470>
CounterMasks: 1 38
LayerCount: 2
Back
SplineSet
75 -125 m 5
 75 25 l 1028
465 -125 m 4
 465 25 l 1028
270 -125 m 4
 270 25 l 1029
75 495 m 5
 75 25 l 5
 465 25 l 5
 465 495 l 5
 75 495 l 5
EndSplineSet
Fore
SplineSet
100 470 m 1
 100 50 l 1
 270 50 l 1
 440 50 l 1
 440 470 l 1
 100 470 l 1
50 495 m 2
 50 505.729904333 59.8674621445 520 75 520 c 2
 465 520 l 2
 475.729904333 520 490 510.132537856 490 495 c 2
 490 25 l 1
 490 -125 l 2
 490 -138.617128764 478.617128764 -150 465 -150 c 0
 451.382871236 -150 440 -138.617128764 440 -125 c 2
 440 2.77555756156e-15 l 1
 295 6.93889390391e-16 l 1
 295 -125 l 2
 295 -138.617128764 283.617128764 -150 270 -150 c 0
 256.382871236 -150 245 -138.617128764 245 -125 c 2
 245 2.77555756156e-15 l 1
 100 6.93889390391e-16 l 1
 100 -125 l 2
 100 -138.617128764 88.6171287645 -150 75 -150 c 0
 61.3828712355 -150 50 -138.617128764 50 -125 c 2
 50 24.999999618 l 1
 50 25 l 1
 50 495 l 2
EndSplineSet
Ligature2: "Ligature Substitution lookup 71 subtable" l e n
Ligature2: "Ligature Substitution lookup 49 subtable" l e n tp_space
Ligature2: "tokiponaWords subtable" percent l e n space
LCarets2: 4 0 0 0 0
EndChar

StartChar: tp_lete
Encoding: 60966 60966 38
Width: 426
VWidth: 0
Flags: W
HStem: 235 50<38.2041 168.261 257.739 387.796>
LayerCount: 2
Back
SplineSet
63 260 m 5
 363 260 l 1029
133 130 m 5
 293 390 l 1029
133 390 m 5
 293 130 l 1029
EndSplineSet
Fore
SplineSet
119.897564358 411.291457918 m 0
 131.49470532 418.428160048 147.154755787 414.699576604 154.291457918 403.102435642 c 2
 213 307.701054758 l 1
 271.708542082 403.102435642 l 2
 278.845244213 414.699576604 294.50529468 418.428160048 306.102435642 411.291457918 c 0
 317.699576604 404.154755787 321.428160048 388.49470532 314.291457918 376.897564358 c 2
 257.73911062 285 l 1
 363 285 l 2
 376.617128764 285 388 273.617128764 388 260 c 0
 388 246.382871236 376.617128764 235 363 235 c 2
 257.73911062 235 l 1
 314.291457918 143.102435642 l 2
 321.428160048 131.50529468 317.699576604 115.845244213 306.102435642 108.708542082 c 0
 294.50529468 101.571839952 278.845244213 105.300423396 271.708542082 116.897564358 c 2
 213 212.298945242 l 1
 154.291457918 116.897564358 l 2
 147.154755787 105.300423396 131.49470532 101.571839952 119.897564358 108.708542082 c 0
 108.300423396 115.845244213 104.571839952 131.50529468 111.708542082 143.102435642 c 2
 168.26088938 235 l 1
 63 235 l 2
 49.3828712355 235 38 246.382871236 38 260 c 0
 38 273.617128764 49.3828712355 285 63 285 c 2
 168.26088938 285 l 1
 111.708542082 376.897564358 l 2
 104.571839952 388.49470532 108.300423396 404.154755787 119.897564358 411.291457918 c 0
EndSplineSet
LCarets2: 5 0 0 0 0 0
Ligature2: "Ligature Substitution lookup 168 subtable" l e t e
Ligature2: "Ligature Substitution lookup 99 subtable" l e t e tp_space
Ligature2: "tokiponaWords subtable" percent l e t e space
EndChar

StartChar: tp_li
Encoding: 60967 60967 39
Width: 360
VWidth: 0
Flags: HW
LayerCount: 2
Back
SplineSet
100 400 m 5
 280 250 l 5
 100 100 l 1029
EndSplineSet
Fore
SplineSet
80.7944680101 416.004609992 m 0
 85.6806137245 421.867984849 92.864600611 424.902802921 100.077554516 424.902802921 c 0
 105.733380525 424.902802921 111.407016765 423.036859679 116.004609992 419.20553199 c 2
 296.004609992 269.20553199 l 2
 302.03195177 264.182747175 304.645194849 257.228398769 304.645194849 250.391235354 c 0
 304.645194849 242.765826659 301.394665144 235.286180637 296.004609992 230.79446801 c 2
 116.004609992 80.7944680101 l 2
 111.407016765 76.9631403213 105.733380525 75.097197079 100.077554516 75.097197079 c 0
 92.8646006113 75.097197079 85.6806137246 78.132015151 80.7944680101 83.9953900084 c 0
 76.9631403213 88.5929832349 75.097197079 94.2666194751 75.097197079 99.9224454838 c 0
 75.097197079 107.135399389 78.132015151 114.319386276 83.9953900084 119.20553199 c 2
 240.94875162 250 l 1
 83.9953900084 380.79446801 l 2
 78.132015151 385.680613724 75.097197079 392.864600611 75.097197079 400.077554516 c 0
 75.097197079 405.733380525 76.9631403213 411.407016765 80.7944680101 416.004609992 c 0
EndSplineSet
Validated: 1
Ligature2: "Ligature Substitution lookup 29 subtable" l i
Ligature2: "Ligature Substitution lookup 16 subtable" l i tp_space
Ligature2: "tokiponaWords subtable" percent l i space
LCarets2: 3 0 0 0
EndChar

StartChar: tp_lili
Encoding: 60968 60968 40
Width: 550
VWidth: 0
Flags: W
HStem: 0 21G<61.1914 488.809>
LayerCount: 2
Back
SplineSet
68 25 m 5
 482 25 l 1029
68 507 m 4
 275 25 l 5
 482 507 l 1029
EndSplineSet
Fore
SplineSet
58.134765625 529.971679688 m 0
 70.646484375 535.344726562 85.59765625 529.376953125 90.9716796875 516.865234375 c 2
 275 88.353515625 l 1
 459.028320312 516.865234375 l 2
 464.40234375 529.376953125 479.353515625 535.344726562 491.865234375 529.971679688 c 0
 504.376953125 524.59765625 510.344726562 509.646484375 504.971679688 497.134765625 c 2
 312.944335938 50 l 1
 482 50 l 2
 495.6171875 50 507 38.6171875 507 25 c 0
 507 11.3828125 495.6171875 0 482 0 c 2
 68 0 l 2
 54.3828125 0 43 11.3828125 43 25 c 0
 43 38.6171875 54.3828125 50 68 50 c 2
 237.055664062 50 l 1
 45.0283203125 497.134765625 l 2
 39.6552734375 509.646484375 45.623046875 524.59765625 58.134765625 529.971679688 c 0
EndSplineSet
Ligature2: "Ligature Substitution lookup 169 subtable" l i l i
Ligature2: "Ligature Substitution lookup 100 subtable" l i l i tp_space
Ligature2: "tokiponaWords subtable" percent l i l i space
LCarets2: 5 0 0 0 0 0
EndChar

StartChar: tp_linja
Encoding: 60969 60969 41
Width: 600
VWidth: 0
Flags: HW
LayerCount: 2
Back
SplineSet
100 175 m 29
 100 175 100 325 200 325 c 7
 250 325 300 250 300 250 c 5
 300 250 350 175 400 175 c 7
 500 175 500 325 500 325 c 1029
EndSplineSet
Fore
SplineSet
74.998878849 174.250799854 m 1
 74.998878849 174.250799854 69.5986837141 350 200 350 c 0
 271.06499214 350 320.785880076 263.890544577 320.785880076 263.890544577 c 2
 323.320137516 260.117526971 370.756530594 200 400 200 c 0
 468.422232244 200 474.955295616 314.882482852 475.000026485 325.036390063 c 0
 475.019830354 338.641647814 486.399433109 349.9999994 500.000825349 349.9999994 c 0
 500.036390063 349.999973515 l 0
 513.073250191 349.980997009 524.114187772 340.181808731 525.001121151 325.749200146 c 1
 525.001121151 325.749200146 530.913258848 150 400 150 c 0
 329.979107023 150 279.230838165 236.084448972 279.230838165 236.084448972 c 2
 277.354033158 238.878647473 229.529720891 300 200 300 c 0
 131.599371032 300 125.029600605 185.096074792 124.999973515 174.963609937 c 0
 124.980169646 161.358352186 113.600566891 150.0000006 99.9991746507 150.0000006 c 0
 85.7834919489 150.010347067 75.7464832202 162.085420213 74.998878849 174.250799854 c 1
EndSplineSet
Validated: 33
Ligature2: "Ligature Substitution lookup 237 subtable" l i n j a
Ligature2: "Ligature Substitution lookup 224 subtable" l i n j a tp_space
Ligature2: "tokiponaWords subtable" percent l i n j a space
EndChar

StartChar: tp_lipu
Encoding: 60970 60970 42
Width: 550
VWidth: 0
Flags: W
HStem: 0 21G<74.6353 477.566> 470 50<105 445>
VStem: 55 50<50 470> 445 50<50 470>
AnchorPoint: "Small" 275 260 basechar 0
LayerCount: 2
Back
SplineSet
80 495 m 1
 80 25 l 1
 470 25 l 1
 470 495 l 1
 80 495 l 1
EndSplineSet
Fore
SplineSet
55 495 m 2
 55 505.729492188 64.8671875 520 80 520 c 2
 470 520 l 2
 480.729492188 520 495 510.1328125 495 495 c 2
 495 25 l 2
 495 14.2705078125 485.1328125 0 470 0 c 2
 80 0 l 2
 69.2705078125 0 55 9.8671875 55 25 c 2
 55 495 l 2
105 470 m 1
 105 50 l 1
 445 50 l 1
 445 470 l 1
 105 470 l 1
EndSplineSet
Ligature2: "Ligature Substitution lookup 170 subtable" l i p u
Ligature2: "Ligature Substitution lookup 101 subtable" l i p u tp_space
Ligature2: "tokiponaWords subtable" percent l i p u space
LCarets2: 5 0 0 0 0 0
EndChar

StartChar: tp_loje
Encoding: 60971 60971 43
Width: 600
VWidth: 0
Flags: W
HStem: 25 50<146.713 453.287> 575 50<131.163 468.837>
LayerCount: 2
Back
SplineSet
100 50 m 5
 300 350 l 5
 500 50 l 5
 100 50 l 5
100 600 m 5
 100 600 142 350 300 350 c 4
 458 350 500 600 500 600 c 5
 100 600 l 5
EndSplineSet
Fore
SplineSet
131.16302257 575 m 1
 149.092290252 505.461642754 200.045888696 375 300 375 c 0
 400.323919872 375 451.288983801 506.940407628 468.83697743 575 c 1
 131.16302257 575 l 1
75.2668673361 596.32377193 m 1
 73.7731723157 607.942299388 82.8788863254 625 100 625 c 2
 500 625 l 2
 512.681367692 625 527.43900835 612.35146948 524.651165587 595.838265361 c 1
 524.651165587 595.838265361 492.579547117 367.868665928 343.224995558 330.231897606 c 1
 520.801257358 63.8675049056 l 2
 523.589509026 59.6851274036 524.908858185 54.9191016316 524.908858185 50.1895067711 c 0
 524.908858185 41.3977762757 520.349952613 32.7319298835 512.192752184 28.1748586677 c 0
 508.435664988 26.0759383252 502.608526968 25 500 25 c 2
 100 25 l 2
 86.2735167144 25 75.0017376101 36.5283425903 75.0017376101 50.0467891498 c 0
 75.0017376101 55.2930702307 77.4379690312 61.2263444901 79.1987426416 63.8675049056 c 2
 256.801782116 330.272064117 l 1
 107.994433715 368.069648149 75.2668673361 596.32377193 75.2668673361 596.32377193 c 1
146.712927296 75 m 1
 453.287072704 75 l 1
 300 304.930609057 l 1
 146.712927296 75 l 1
EndSplineSet
Validated: 33
LCarets2: 5 0 0 0 0 0
Ligature2: "Ligature Substitution lookup 171 subtable" l o j e
Ligature2: "Ligature Substitution lookup 102 subtable" l o j e tp_space
Ligature2: "tokiponaWords subtable" percent l o j e space
EndChar

StartChar: tp_lon
Encoding: 60972 60972 44
Width: 500
VWidth: 0
Flags: W
HStem: 150 50<75.2041 424.796> 275 78<216.281 285.719>
VStem: 212 78<279.281 348.719>
LayerCount: 2
Back
SplineSet
400 175 m 1
 100 175 l 1025
EndSplineSet
Refer: 153 -1 N 1 0 0 1 251 314 2
Fore
SplineSet
425 175 m 0
 425 161.3828125 413.6171875 150 400 150 c 2
 100 150 l 2
 86.3828125 150 75 161.3828125 75 175 c 0
 75 188.6171875 86.3828125 200 100 200 c 2
 400 200 l 2
 413.6171875 200 425 188.6171875 425 175 c 0
EndSplineSet
Refer: 153 -1 N 1 0 0 1 251 314 2
Ligature2: "Ligature Substitution lookup 72 subtable" l o n
Ligature2: "Ligature Substitution lookup 50 subtable" l o n tp_space
Ligature2: "tokiponaWords subtable" percent l o n space
LCarets2: 4 0 0 0 0
EndChar

StartChar: tp_luka
Encoding: 60973 60973 45
Width: 550
VWidth: 0
Flags: W
HStem: -12 21G<463.191 476.809> 482 50<218.131 372.356>
VStem: 98 50<76.6783 396.131> 445 50<-11.7959 395.135>
LayerCount: 2
Back
SplineSet
30 113 m 5
 139 13 l 5
 139 13 123 176.999023438 123 260 c 7
 123 406.030818665 171 507 295 507 c 7
 419 507 470 406 470 260 c 4
 470 13 l 1028
EndSplineSet
Fore
SplineSet
11.578163497 129.900767434 m 0
 20.7837605517 139.934868224 36.8666666444 140.627433558 46.900767434 131.421836503 c 2
 108.365227587 75.0324235188 l 1
 103.693848066 131.156318076 98 208.729972163 98 260 c 0
 98 409.100294191 150.348906484 532 295 532 c 0
 439.309772187 532 495 409.647133096 495 260 c 2
 495 13 l 2
 495 -0.617128764476 483.617128764 -12 470 -12 c 0
 456.382871236 -12 445 -0.617128764476 445 13 c 2
 445 260 l 2
 445 402.352866904 398.690227813 482 295 482 c 0
 191.651093516 482 148 402.961343139 148 260 c 0
 148 179.164179839 163.882105408 15.4250423613 163.882105408 15.4250423613 c 2
 164.473680924 9.35519195921 162.644776968 2.65096061799 158.691035998 -2.40334708165 c 0
 149.836943258 -13.7220726775 132.688401788 -15.136670652 122.099232566 -5.42183650301 c 2
 13.099232566 94.578163497 l 2
 3.06513177647 103.783760552 2.37256644233 119.866666644 11.578163497 129.900767434 c 0
EndSplineSet
Ligature2: "Ligature Substitution lookup 172 subtable" l u k a
Ligature2: "Ligature Substitution lookup 103 subtable" l u k a tp_space
Ligature2: "tokiponaWords subtable" percent l u k a space
LCarets2: 5 0 0 0 0 0
EndChar

StartChar: tp_lukin
Encoding: 60974 60974 46
Width: 560
VWidth: 0
Flags: HW
HStem: -12 21G<199.613 340.388> 221 78<235.281 304.719> 482 50<184.678 355.322>
VStem: 38 50<146.908 373.092> 231 78<225.281 294.719> 452 50<146.908 373.092>
CounterMasks: 1 1c
LayerCount: 2
Back
Refer: 153 -1 S 1 0 0 1 270 260 2
Refer: 12 60940 S 1 0 0 1 0 0 2
Fore
SplineSet
88 260 m 0
 88 123.278320312 162.774414062 38 270 38 c 0
 377.224609375 38 452 123.278320312 452 260 c 0
 452 396.721679688 377.225585938 482 270 482 c 0
 162.775390625 482 88 396.721679688 88 260 c 0
38 260 m 0
 38 415.278320312 129.224609375 532 270 532 c 0
 410.774414062 532 502 415.278320312 502 260 c 0
 502 104.721679688 410.775390625 -12 270 -12 c 0
 129.225585938 -12 38 104.721679688 38 260 c 0
231 260 m 0
 231 281.462890625 248.537109375 299 270 299 c 0
 291.462890625 299 309 281.462890625 309 260 c 0
 309 238.537109375 291.462890625 221 270 221 c 0
 248.537109375 221 231 238.537109375 231 260 c 0
EndSplineSet
Ligature2: "Ligature Substitution lookup 238 subtable" l u k i n
Ligature2: "Ligature Substitution lookup 225 subtable" l u k i n tp_space
Ligature2: "tokiponaWords subtable" percent l u k i n space
LCarets2: 6 0 0 0 0 0 0
EndChar

StartChar: tp_lupa
Encoding: 60975 60975 47
Width: 550
VWidth: 0
Flags: W
HStem: -12 21G<205.612 346.968> 470 50<46.2041 136.972 189.336 240.765 314.228 360.892 413.747 507.796>
VStem: 44 50<146.908 355.607> 458 50<146.907 355.906>
LayerCount: 2
Back
Refer: 64 60992 S 1 0 0 -1 0 520 2
Fore
SplineSet
46 495 m 0
 46 508.6171875 57.3828125 520 71 520 c 2
 216 520 l 2
 230.370117188 520 242.05078125 507.364257812 240.922851562 493.038085938 c 0
 240.188476562 483.709960938 233.9921875 475.435546875 225.66796875 471.9453125 c 0
 200.557617188 461.415039062 94 391.467773438 94 260 c 0
 94 123.278320312 168.775390625 38 276 38 c 0
 384.352539062 38 458 123.161132812 458 260 c 0
 458 391.065429688 347.791015625 462.401367188 325.846679688 472.154296875 c 0
 312.71484375 477.991210938 307.172851562 494.28125 314.021484375 506.9140625 c 0
 318.36328125 514.923828125 326.997070312 520 336 520 c 2
 483 520 l 2
 496.6171875 520 508 508.6171875 508 495 c 0
 508 481.3828125 496.6171875 470 483 470 c 2
 413.747070312 470 l 1
 457.344726562 429.053710938 508 358.840820312 508 260 c 0
 508 104.838867188 417.935546875 -12 276 -12 c 0
 135.224609375 -12 44 104.721679688 44 260 c 0
 44 358.43359375 91.6640625 427.360351562 136.971679688 470 c 1
 71 470 l 2
 57.3828125 470 46 481.3828125 46 495 c 0
EndSplineSet
LCarets2: 5 0 0 0 0 0
Ligature2: "Ligature Substitution lookup 173 subtable" l u p a
Ligature2: "Ligature Substitution lookup 104 subtable" l u p a tp_space
Ligature2: "tokiponaWords subtable" percent l u p a space
EndChar

StartChar: tp_ma
Encoding: 60976 60976 48
Width: 550
VWidth: 0
Flags: W
HStem: -12 21G<204.613 345.388> 235 50<93.8642 250 300 456.136> 480.392 51.6083<190.166 250 300 359.834>
VStem: 43 50.8642<146.53 235 285 373.47> 250 50<39.6083 235 285 480.392> 456.136 50.8642<146.53 235 285 373.47>
LayerCount: 2
Back
SplineSet
80 260 m 5
 470 260 l 1029
275 495 m 5
 275 25 l 1053
EndSplineSet
Refer: 12 60940 S 1 0 0 1 0 0 2
Fore
SplineSet
43 260 m 0
 43 415.278320312 134.224609375 532 275 532 c 0
 415.774414062 532 507 415.278320312 507 260 c 0
 507 104.721679688 415.775390625 -12 275 -12 c 0
 134.225585938 -12 43 104.721679688 43 260 c 0
300 235 m 1
 300 39.6082708691 l 1
 387.314786173 51.0861294358 448.266973432 123.336785004 456.135765835 235 c 1
 300 235 l 1
250 235 m 1
 93.8642234564 235 l 1
 101.732926984 123.336700695 162.684521475 51.0860203337 250 39.608244871 c 1
 250 235 l 1
300 285 m 1
 456.135776544 285 l 1
 448.267073016 396.663299305 387.315478525 468.913979666 300 480.391755129 c 1
 300 285 l 1
250 285 m 1
 250 480.391729131 l 1
 162.685213827 468.913870564 101.733026568 396.663214996 93.8642341646 285 c 1
 250 285 l 1
EndSplineSet
Ligature2: "Ligature Substitution lookup 30 subtable" m a
Ligature2: "Ligature Substitution lookup 17 subtable" m a tp_space
Ligature2: "tokiponaWords subtable" percent m a space
LCarets2: 3 0 0 0
EndChar

StartChar: tp_mama
Encoding: 60977 60977 49
Width: 540
VWidth: 0
Flags: HW
HStem: -213 50<217.125 322.875> 482 50<184.678 355.322>
VStem: 38 50<146.534 373.092> 144 50<-139.913 -35.37> 346 50<-139.913 -35.3701> 452 50<146.534 373.092>
LayerCount: 2
Back
SplineSet
169 -88 m 4
 169 -32 214 13 270 13 c 4
 326 13 371 -32 371 -88 c 4
 371 -144 326 -188 270 -188 c 4
 214 -188 169 -144 169 -88 c 4
EndSplineSet
Refer: 12 60940 S 1 0 0 1 0 0 2
Fore
SplineSet
194 -88 m 0
 194 -129.998785937 227.429498588 -163 270 -163 c 0
 312.570489906 -163 346 -129.998806552 346 -88 c 0
 346 -45.7649129117 312.235100043 -12 270 -12 c 0
 227.764912912 -12 194 -45.7648999571 194 -88 c 0
38 260 m 0
 38 415.278320312 129.224609375 532 270 532 c 0
 410.774414062 532 502 415.278320312 502 260 c 0
 502 139.139629791 446.733978231 41.6377826235 355.852845448 4.3524644913 c 1
 380.572059797 -18.6287140161 396 -51.4584223373 396 -88 c 0
 396 -158.001193448 339.429510094 -213 270 -213 c 0
 200.570501412 -213 144 -158.001214063 144 -88 c 0
 144 -51.4583673052 159.427988848 -18.6286094024 184.147274928 4.35257650685 c 1
 93.266502703 41.6379779051 38 139.139750823 38 260 c 0
270 38 m 0
 377.224609375 38 452 123.278320312 452 260 c 0
 452 396.721679688 377.225585938 482 270 482 c 0
 162.775390625 482 88 396.721679688 88 260 c 0
 88 123.278320312 162.774414062 38 270 38 c 0
EndSplineSet
Ligature2: "Ligature Substitution lookup 174 subtable" m a m a
Ligature2: "Ligature Substitution lookup 105 subtable" m a m a tp_space
Ligature2: "tokiponaWords subtable" percent m a m a space
LCarets2: 5 0 0 0 0 0
EndChar

StartChar: tp_mani
Encoding: 60978 60978 50
Width: 550
VWidth: 0
Flags: W
HStem: -12 21G<204.613 345.388> 482 50<190.268 359.743>
VStem: 43 50<146.908 373.371> 62.1057 49.8402<517.958 610.428> 436.014 49.9982<605.947 630.736> 457 50<146.908 373.296>
LayerCount: 2
Back
SplineSet
461 606 m 5
 461 606 457 481.579101562 399 477 c 1028
87 608 m 5
 87 608 79 489.706054688 151 477 c 1028
EndSplineSet
Refer: 12 60940 S 1 0 0 1 0 0 2
Fore
SplineSet
88.6436558517 632.945909393 m 0xd0
 102.231322266 632.050634458 112.841184328 619.944010562 111.945909393 606.356344148 c 0
 111.322678199 596.897509508 112.822725772 509.123556791 155.344690496 501.619578885 c 0
 156.739231573 501.373480063 158.088584278 501.010352455 159.384404327 500.542116527 c 0
 192.306425828 520.732590813 231.261588112 532.000000002 275 532 c 0
 318.744883773 532 357.705224518 520.729099758 390.630462208 500.532732998 c 0
 392.655243476 501.268538273 394.801638579 501.746332053 397.032372018 501.922448518 c 0
 422.734617922 503.951641524 435.671301559 596.616699287 436.014043638 606.837845252 c 0
 436.470405505 620.447324656 448.228365849 631.44231823 461.837845252 630.985956362 c 0
 476.020317679 630.510380522 485.655496551 618.116134278 486.012289522 605.947274155 c 1xd8
 486.012289522 605.947274155 489.953232172 499.828253618 435.471114672 463.691711648 c 1
 481.049274449 414.668840547 507 342.81847822 507 260 c 0
 507 104.721679688 415.775390625 -12 275 -12 c 0
 134.225585938 -12 43 104.721679688 43 260 c 0xe4
 43 342.938031694 69.0254239044 414.876258363 114.726003105 463.903871327 c 1
 49.643566893 502.341245369 62.1057313357 610.427510291 62.1057313357 610.427510291 c 1
 63.667317675 622.501044533 74.4839146649 633.878877644 88.6436558517 632.945909393 c 0xd0
93 260 m 0xe4
 93 123.278320312 167.774414062 38 275 38 c 0
 382.224609375 38 457 123.278320312 457 260 c 0
 457 396.721679688 382.225585938 482 275 482 c 0
 167.775390625 482 93 396.721679688 93 260 c 0xe4
EndSplineSet
Ligature2: "Ligature Substitution lookup 175 subtable" m a n i
Ligature2: "Ligature Substitution lookup 106 subtable" m a n i tp_space
Ligature2: "tokiponaWords subtable" percent m a n i space
LCarets2: 5 0 0 0 0 0
EndChar

StartChar: tp_meli
Encoding: 60979 60979 51
Width: 550
VWidth: 0
Flags: W
HStem: -12 21G<73.1914 86.8086 463.191 476.809> 139 50<225.008 324.992> 331 50<225.008 324.992> 470 50<187.217 362.79>
VStem: 55 50<-11.7959 377.476> 154 50<210.008 309.992> 346 50<210.008 309.992> 445 50<-11.7959 377.469>
LayerCount: 2
Back
SplineSet
179 260 m 4
 179 313 222 356 275 356 c 4
 328 356 371 313 371 260 c 4
 371 207 328 164 275 164 c 4
 222 164 179 207 179 260 c 4
80 13 m 5
 80 13 80 124 80 260 c 7
 80 406.013697988 151 495 275 495 c 7
 399.016127983 495 470 406 470 260 c 7
 470 118 470 13 470 13 c 1053
EndSplineSet
Fore
SplineSet
204 260 m 0
 204 220.807142702 235.807092901 189 275 189 c 0
 314.192857298 189 346 220.807092901 346 260 c 0
 346 299.192857298 314.192907099 331 275 331 c 0
 235.807142702 331 204 299.192907099 204 260 c 0
154 260 m 0
 154 326.807092901 208.192857298 381 275 381 c 0
 341.807092901 381 396 326.807142702 396 260 c 0
 396 193.192907099 341.807142702 139 275 139 c 0
 208.192907099 139 154 193.192857298 154 260 c 0
80 -12 m 0
 66.3828712355 -12 55 -0.617128764476 55 13 c 2
 55 260 l 2
 55 414.503858476 134.627941356 520 275 520 c 0
 415.389507521 520 495 414.48798083 495 260 c 2
 495 13 l 2
 495 -0.617128764476 483.617128764 -12 470 -12 c 0
 456.382871236 -12 445 -0.617128764476 445 13 c 2
 445 260 l 2
 445 397.51201917 382.642748446 470 275 470 c 0
 167.372058644 470 105 397.523537499 105 260 c 2
 105 13 l 2
 105 -0.617128764476 93.6171287645 -12 80 -12 c 0
EndSplineSet
Ligature2: "Ligature Substitution lookup 176 subtable" m e l i
Ligature2: "Ligature Substitution lookup 107 subtable" m e l i tp_space
Ligature2: "tokiponaWords subtable" percent m e l i space
LCarets2: 5 0 0 0 0 0
EndChar

StartChar: tp_mi
Encoding: 60980 60980 52
Width: 550
VWidth: 0
Flags: W
HStem: -130 21G<73.1914 86.8086> -12 21G<243.505 351.711> 482 50<199.216 365.305>
VStem: 55 50<-129.796 82.3564 147.764 372.23> 457 50<144.55 375.45>
LayerCount: 2
Back
SplineSet
80 260 m 3
 80 140.53515625 80 16.7275390625 80 -105 c 1025
80 260 m 3
 80 406 163 507 281 507 c 3
 405 507 482 406 482 260 c 3
 482 114 405 13 281 13 c 3
 163 13 80 113.987304688 80 260 c 3
EndSplineSet
Fore
SplineSet
55 260 m 1
 55 414.922851562 145.665039062 532 281 532 c 0
 422.420898438 532 507 414.294921875 507 260 c 0
 507 105.705078125 422.421875 -12 281 -12 c 0
 206.009765625 -12 144.734375 23.943359375 105 82.3564453125 c 1
 105 -105 l 2
 105 -118.6171875 93.6171875 -130 80 -130 c 0
 66.3828125 -130 55 -118.6171875 55 -105 c 2
 55 260 l 1
105 260 m 0
 105 122.91015625 180.333984375 38 281 38 c 0
 387.578125 38 457 122.294921875 457 260 c 0
 457 397.705078125 387.579101562 482 281 482 c 0
 180.334960938 482 105 397.077148438 105 260 c 0
EndSplineSet
Ligature2: "Ligature Substitution lookup 31 subtable" m i
Ligature2: "Ligature Substitution lookup 18 subtable" m i tp_space
Ligature2: "tokiponaWords subtable" percent m i space
LCarets2: 3 0 0 0
EndChar

StartChar: tp_mije
Encoding: 60981 60981 53
Width: 550
VWidth: 0
Flags: W
HStem: -12 21G<73.1914 86.8086 463.191 476.809> 139 50<224.427 325.573> 235 50<105 162.596 387.404 445> 331 50<224.803 325.197>
VStem: 55 50<-11.7959 235> 445 50<-11.7959 235>
LayerCount: 2
Back
SplineSet
470 13 m 29
 470 260 l 5
 371 260 l 1029
80 13 m 29
 80 260 l 5
 179 260 l 1029
179 260 m 4
 179 313 222 356 275 356 c 4
 328 356 371 313 371 260 c 4
 371 207 328 164 275 164 c 4
 222 164 179 207 179 260 c 4
EndSplineSet
Fore
SplineSet
80 -12 m 0
 66.3828712355 -12 55 -0.617128764476 55 13 c 2
 55 260 l 2
 55 275.132537856 69.2700956673 285 80 285 c 2
 156.587679646 285 l 1
 168.11156733 339.819268494 216.763039299 381 275 381 c 0
 333.236922446 381 381.888430149 339.819299043 393.412321272 285 c 1
 470 285 l 2
 480.729904333 285 495 275.132537856 495 260 c 2
 495 13 l 2
 495 -0.617128764476 483.617128764 -12 470 -12 c 0
 456.382871236 -12 445 -0.617128764476 445 13 c 2
 445 235 l 1
 393.412320354 235 l 1
 381.88843267 180.180731506 333.236960701 139 275 139 c 0
 216.763077554 139 168.111569851 180.180700957 156.587678728 235 c 1
 105 235 l 1
 105 13 l 2
 105 -0.617128764476 93.6171287645 -12 80 -12 c 0
204 260 m 0
 204 220.807142702 235.807092901 189 275 189 c 0
 314.192857298 189 346 220.807092901 346 260 c 0
 346 299.192857298 314.192907099 331 275 331 c 0
 235.807142702 331 204 299.192907099 204 260 c 0
EndSplineSet
Ligature2: "Ligature Substitution lookup 177 subtable" m i j e
Ligature2: "Ligature Substitution lookup 108 subtable" m i j e tp_space
Ligature2: "tokiponaWords subtable" percent m i j e space
LCarets2: 5 0 0 0 0 0
EndChar

StartChar: tp_moku
Encoding: 60982 60982 54
Width: 550
VWidth: 0
Flags: W
HStem: -12 21G<463.191 476.809> 385 50<220.129 368.391> 666 50<123.626 445.388>
VStem: 73 50<527.896 666> 98 50<78.121 326.826> 445 50<-11.7959 332.095 515.319 666>
LayerCount: 2
Back
SplineSet
30 113 m 5
 139 13 l 5
 139 13 123 193.947265625 123 232 c 7
 123 366.092773438 205.229492188 410 299 410 c 7
 404.016601562 410 470 364 470 232 c 4
 470 13 l 1028
99 691 m 5
 99 691 98 631 98 598 c 31
 98 492 206.576171875 410 299 410 c 4
 389.892578125 410 471 494 471 603 c 31
 471 633 470 691 470 691 c 5
 99 691 l 5
EndSplineSet
Fore
SplineSet
123.625652241 666 m 1xf4
 123.324614998 644.35040496 123 617.290131152 123 598 c 0
 123 509.270185885 218.254290936 435 299 435 c 0
 374.005816196 435 446 505.908374709 446 603 c 0
 446 619.920314477 445.658684095 647.232941033 445.388265378 666 c 1
 123.625652241 666 l 1xf4
74.0034508424 691.415367565 m 0
 74.1989579977 703.180860664 84.6523379857 716 99 716 c 2
 470 716 l 2
 481.741286215 716 494.74962259 705.779920898 494.996306997 691.429693481 c 0
 494.997603141 691.354293679 496 633.435169393 496 603 c 0
 496 523.030501466 456.532285462 453.479821281 398.909992357 415.549091915 c 1
 458.279406536 387.949292922 495 329.620462283 495 232 c 2
 495 13 l 2
 495 -0.617128764476 483.617128764 -12 470 -12 c 0
 456.382871236 -12 445 -0.617128764476 445 13 c 2
 445 232 l 2
 445 351.388284513 393.61462526 385 299 385 c 0
 214.316368789 385 148 351.134474988 148 232 c 0
 148 196.789654199 163.902928469 15.2009438084 163.902928469 15.2009438084 c 2
 164.375729378 9.85136279974 162.65217724 2.66042083691 158.691035998 -2.40334708165 c 0
 149.836943258 -13.7220726775 132.688401788 -15.136670652 122.099232566 -5.42183650301 c 2
 13.099232566 94.578163497 l 2
 3.06513177647 103.783760552 2.37256644233 119.866666644 11.578163497 129.900767434 c 0
 20.7837605517 139.934868224 36.8666666444 140.627433558 46.900767434 131.421836503 c 2
 108.642514863 74.7780315219 l 1
 103.91881001 131.83153788 98 206.074071603 98 232 c 0xec
 98 327.800280915 138.543476548 384.313127796 194.823593574 412.465487053 c 1
 127.546079066 448.089128062 73 515.540359787 73 598 c 0
 73 631.405195007 74.0034508424 691.344562268 74.0034508424 691.415367565 c 0
EndSplineSet
Ligature2: "Ligature Substitution lookup 178 subtable" m o k u
Ligature2: "Ligature Substitution lookup 109 subtable" m o k u tp_space
Ligature2: "tokiponaWords subtable" percent m o k u space
LCarets2: 5 0 0 0 0 0
EndChar

StartChar: tp_moli
Encoding: 60983 60983 55
Width: 540
VWidth: 0
Flags: W
HStem: -12 21G<199.613 340.388> 482 50<185.166 354.834>
VStem: 38 50<146.09 373.91> 452 50<146.09 373.91>
LayerCount: 2
Back
SplineSet
119 109 m 5
 419 409 l 1029
117 413 m 5
 421 109 l 1029
EndSplineSet
Refer: 12 60940 S 1 0 0 1 0 0 2
Fore
SplineSet
38 260 m 0
 38 415.278320312 129.224609375 532 270 532 c 0
 410.774414062 532 502 415.278320312 502 260 c 0
 502 104.721679688 410.775390625 -12 270 -12 c 0
 129.225585938 -12 38 104.721679688 38 260 c 0
305.355339059 260 m 1
 427.059049842 138.296289218 l 1
 443.107766524 171.82156373 452 212.851978972 452 260 c 0
 452 307.148093389 443.107855362 348.178562214 427.059204202 381.703865143 c 1
 305.355339059 260 l 1
270 224.644660941 m 1
 140.763987753 95.408648694 l 1
 172.740052888 58.4617832438 217.476839744 38 270 38 c 0
 322.522776774 38 367.259620654 58.4618571666 399.235812029 95.4088489122 c 1
 270 224.644660941 l 1
270 295.355339059 m 1
 399.236012247 424.591351306 l 1
 367.259947112 461.538216756 322.523160256 482 270 482 c 0
 217.477223226 482 172.740379346 461.538142833 140.764187971 424.591151088 c 1
 270 295.355339059 l 1
234.644660941 260 m 1
 112.940950158 381.703710782 l 1
 96.8922334756 348.17843627 88 307.148021028 88 260 c 0
 88 212.851906611 96.8921446382 171.821437786 112.940795798 138.296134857 c 1
 234.644660941 260 l 1
EndSplineSet
Ligature2: "Ligature Substitution lookup 179 subtable" m o l i
Ligature2: "Ligature Substitution lookup 110 subtable" m o l i tp_space
Ligature2: "tokiponaWords subtable" percent m o l i space
LCarets2: 5 0 0 0 0 0
EndChar

StartChar: tp_monsi
Encoding: 60984 60984 56
Width: 500
VWidth: 0
Flags: W
HStem: 25 50<125 424.796> 225 50<125 274.796> 425 50<125 424.796>
VStem: 75 50<75 225 275 425>
CounterMasks: 1 e0
LayerCount: 2
Back
SplineSet
250 250 m 5
 100 250 l 1028
400 450 m 5
 100 450 l 5
 100 50 l 5
 400 50 l 1029
EndSplineSet
Fore
SplineSet
425 450 m 0
 425 436.382871236 413.617128764 425 400 425 c 2
 125 425 l 1
 125 275 l 1
 250 275 l 2
 263.617128764 275 275 263.617128764 275 250 c 0
 275 236.382871236 263.617128764 225 250 225 c 2
 125 225 l 1
 125 75 l 1
 400 75 l 2
 413.617128764 75 425 63.6171287645 425 50 c 0
 425 36.3828712355 413.617128764 25 400 25 c 2
 100 25 l 2
 89.2700956673 25 75 34.8674621445 75 50 c 2
 75 249.999999764 l 1
 75 450 l 2
 75 460.729904333 84.8674621445 475 100 475 c 2
 400 475 l 2
 413.617128764 475 425 463.617128764 425 450 c 0
EndSplineSet
Validated: 1
LCarets2: 6 0 0 0 0 0 0
Ligature2: "Ligature Substitution lookup 239 subtable" m o n s i
Ligature2: "Ligature Substitution lookup 226 subtable" m o n s i tp_space
Ligature2: "tokiponaWords subtable" percent m o n s i space
EndChar

StartChar: tp_mu
Encoding: 60985 60985 57
Width: 550
VWidth: 0
Flags: W
HStem: -12 21G<204.612 345.387> 221 78<240.281 309.719> 406 50<126.201 185.587 364.413 423.799> 558 50<102.413 185.587 364.413 447.587>
VStem: 43 50<146.908 372.211 465.476 548.587> 195 50<465.413 548.587> 236 78<225.281 294.719> 305 50<465.413 548.587> 457 50<146.908 372.211 465.476 548.587>
LayerCount: 2
Back
Refer: 153 -1 S 1 0 0 1 275 260 2
Refer: 59 60987 S 1 0 0 1 0 0 2
Fore
SplineSet
43 507 m 0xfd80
 43 562.796875 88.2021484375 608 144 608 c 0
 199.796875 608 245 562.797851562 245 507 c 0
 245 451.203125 199.797851562 406 144 406 c 0
 140.12890625 406 136.30859375 406.217773438 132.55078125 406.641601562 c 0
 107.764648438 369.578125 93 319.532226562 93 260 c 0
 93 123.278320312 167.775390625 38 275 38 c 0
 382.225585938 38 457 123.278320312 457 260 c 0
 457 319.534179688 442.235351562 369.57421875 417.448242188 406.641601562 c 0
 413.69140625 406.217773438 409.87109375 406 406 406 c 0
 350.203125 406 305 451.202148438 305 507 c 0
 305 562.796875 350.202148438 608 406 608 c 0
 461.796875 608 507 562.797851562 507 507 c 0
 507 473.235351562 490.448242188 443.350585938 465.01171875 425.013671875 c 1
 492.40625 379.759765625 507 323.186523438 507 260 c 0
 507 104.721679688 415.774414062 -12 275 -12 c 0
 134.224609375 -12 43 104.721679688 43 260 c 0
 43 323.188476562 57.5927734375 379.756835938 84.98828125 425.013671875 c 1
 59.552734375 443.349609375 43 473.235351562 43 507 c 0xfd80
93 507 m 0
 93 478.797851562 115.796875 456 144 456 c 0
 172.202148438 456 195 478.796875 195 507 c 0
 195 535.202148438 172.203125 558 144 558 c 0
 115.797851562 558 93 535.203125 93 507 c 0
355 507 m 0
 355 478.797851562 377.796875 456 406 456 c 0
 434.202148438 456 457 478.796875 457 507 c 0
 457 535.202148438 434.203125 558 406 558 c 0
 377.797851562 558 355 535.203125 355 507 c 0
236 260 m 0xfa80
 236 281.462890625 253.537109375 299 275 299 c 0
 296.462890625 299 314 281.462890625 314 260 c 0
 314 238.537109375 296.462890625 221 275 221 c 0
 253.537109375 221 236 238.537109375 236 260 c 0xfa80
EndSplineSet
Ligature2: "Ligature Substitution lookup 32 subtable" m u
Ligature2: "Ligature Substitution lookup 19 subtable" m u tp_space
Ligature2: "tokiponaWords subtable" percent m u space
LCarets2: 3 0 0 0
EndChar

StartChar: tp_mun
Encoding: 60986 60986 58
Width: 484
VWidth: 0
Flags: W
HStem: -12 21G<178.293 279.638> 482 50<125.846 294.572>
VStem: 184.25 50<178.57 341.753> 391.25 50<146.908 373.092>
LayerCount: 2
Back
SplineSet
68 448.25 m 5
 104.25 484.5 154.25 507 209.25 507 c 4
 333.25 507 416.25 406 416.25 260 c 4
 416.25 114 333.25 13 209.25 13 c 4
 154.25 13 104.25 35.5 68 71.75 c 5
 68 71.75 209.25 113.99609375 209.25 260 c 7
 209.25 406.00390625 68 448.25 68 448.25 c 5
EndSplineSet
Fore
SplineSet
115.402068293 454.49731269 m 1
 160.6923903 429.437684513 234.25 371.093731367 234.25 260 c 0
 234.25 149.497090936 162.175260447 91.382803681 115.402068293 65.5026873104 c 1
 142.552383889 48.2615695993 174.63304622 38 209.25 38 c 0
 316.47454825 38 391.25 123.278585301 391.25 260 c 0
 391.25 396.721488786 316.475993246 482 209.25 482 c 0
 174.69192087 482 143.706585499 472.471376791 115.402068293 454.49731269 c 1
50.3223304703 465.92766953 m 0
 91.017346397 506.622685456 147.33669976 532 209.25 532 c 0
 350.024006754 532 441.25 415.278511214 441.25 260 c 0
 441.25 104.721414699 350.02545175 -12 209.25 -12 c 0
 147.336789919 -12 91.0173013141 13.3773596265 50.3223304703 54.0723304703 c 0
 40.160920446 64.2337404946 40.8364384473 81.4272636181 51.7637604578 90.7601163996 c 0
 54.2389597945 92.8741449779 60.1950157381 95.500562271 60.3760414556 95.5593815918 c 0
 66.1653574039 97.3573836629 184.25 136.111614275 184.25 260 c 0
 184.25 384.413047019 65.7482590853 422.772155586 59.7422273456 424.637463613 c 0
 45.5842688855 430.1432048 39.7644446833 444.619653507 44.6997926797 457.310923729 c 0
 45.9471008789 460.518382538 49.5462892587 465.151628318 50.3223304703 465.92766953 c 0
EndSplineSet
LCarets2: 4 0 0 0 0
Ligature2: "Ligature Substitution lookup 73 subtable" m u n
Ligature2: "Ligature Substitution lookup 51 subtable" m u n tp_space
Ligature2: "tokiponaWords subtable" percent m u n space
EndChar

StartChar: tp_musi
Encoding: 60987 60987 59
Width: 550
VWidth: 0
Flags: W
HStem: -12 21G<204.612 345.387> 406 50<126.201 185.587 364.413 423.799> 558 50<102.413 185.587 364.413 447.587>
VStem: 43 50<147.927 372.056 465.554 548.572> 195 50<465.413 548.587> 305 50<465.413 548.587> 457 50<146.908 372.211 465.477 548.587>
LayerCount: 2
Back
SplineSet
116.042427422 426.692704002 m 5
 85.3524366863 384.105201502 68 326.756574552 68 260 c 4
 68 114 151 13 275 13 c 4
 399 13 482 114 482 260 c 4
 482 327.626552506 464.192339082 385.598349093 432.750921363 428.350184273 c 1029
116.042427422 426.692704002 m 1029
330 507 m 4
 330 549 364 583 406 583 c 4
 448 583 482 549 482 507 c 4
 482 465 448 431 406 431 c 4
 364 431 330 465 330 507 c 4
68 507 m 4
 68 549 102 583 144 583 c 4
 186 583 220 549 220 507 c 4
 220 465 186 431 144 431 c 4
 102 431 68 465 68 507 c 4
EndSplineSet
Fore
SplineSet
43 507 m 0
 43 562.797343156 88.2023552744 608 144 608 c 0
 199.797343156 608 245 562.797644726 245 507 c 0
 245 451.202656844 199.797644726 406 144 406 c 0
 140.128847676 406 136.308691995 406.217577782 132.551090255 406.641176349 c 0
 107.76503202 369.578210465 93 319.53185739 93 260 c 0
 93 123.278585301 167.77545175 38 275 38 c 0
 382.225993246 38 457 123.278511214 457 260 c 0
 457 319.534039537 442.235495259 369.574214583 417.448544993 406.641133155 c 0
 413.691062887 406.217563055 409.87102932 406 406 406 c 0
 350.202656844 406 305 451.202355274 305 507 c 0
 305 562.797343156 350.202355274 608 406 608 c 0
 461.797343156 608 507 562.797644726 507 507 c 0
 507 473.235454723 490.447795829 443.35047302 465.01182591 425.013693783 c 1
 492.406660365 379.759490079 507 323.186274258 507 260 c 0
 507 104.721488786 415.774006754 -12 275 -12 c 0
 134.22454825 -12 43 104.721414699 43 260 c 0
 43 323.188525452 57.5929785384 379.756623676 84.988615548 425.01338448 c 1
 59.552449365 443.350085585 43 473.235134783 43 507 c 0
93 507 m 0
 93 478.797644726 115.797343156 456 144 456 c 0
 172.202355274 456 195 478.797343156 195 507 c 0
 195 535.202355274 172.202656844 558 144 558 c 0
 115.797644726 558 93 535.202656844 93 507 c 0
355 507 m 0
 355 478.797644726 377.797343156 456 406 456 c 0
 434.202355274 456 457 478.797343156 457 507 c 0
 457 535.202355274 434.202656844 558 406 558 c 0
 377.797644726 558 355 535.202656844 355 507 c 0
EndSplineSet
LCarets2: 5 0 0 0 0 0
Ligature2: "Ligature Substitution lookup 180 subtable" m u s i
Ligature2: "Ligature Substitution lookup 111 subtable" m u s i tp_space
Ligature2: "tokiponaWords subtable" percent m u s i space
EndChar

StartChar: tp_mute
Encoding: 60988 60988 60
Width: 460
VWidth: 0
Flags: W
HStem: -12 21G<73.1914 86.8086 223.191 236.809 373.191 386.809> 512 20G<73.1914 86.8086 223.191 236.809 373.191 386.809>
VStem: 55 50<-11.7959 531.796> 205 50<-11.7959 531.796> 355 50<-11.7959 531.796>
CounterMasks: 1 38
LayerCount: 2
Back
SplineSet
380 507 m 1
 380 13 l 1025
230 507 m 1
 230 13 l 1025
80 507 m 1
 80 13 l 1025
EndSplineSet
Fore
SplineSet
380 532 m 0
 393.6171875 532 405 520.6171875 405 507 c 2
 405 13 l 2
 405 -0.6171875 393.6171875 -12 380 -12 c 0
 366.3828125 -12 355 -0.6171875 355 13 c 2
 355 507 l 2
 355 520.6171875 366.3828125 532 380 532 c 0
230 532 m 0
 243.6171875 532 255 520.6171875 255 507 c 2
 255 13 l 2
 255 -0.6171875 243.6171875 -12 230 -12 c 0
 216.3828125 -12 205 -0.6171875 205 13 c 2
 205 507 l 2
 205 520.6171875 216.3828125 532 230 532 c 0
80 532 m 0
 93.6171875 532 105 520.6171875 105 507 c 2
 105 13 l 2
 105 -0.6171875 93.6171875 -12 80 -12 c 0
 66.3828125 -12 55 -0.6171875 55 13 c 2
 55 507 l 2
 55 520.6171875 66.3828125 532 80 532 c 0
EndSplineSet
Ligature2: "Ligature Substitution lookup 181 subtable" m u t e
Ligature2: "Ligature Substitution lookup 112 subtable" m u t e tp_space
Ligature2: "tokiponaWords subtable" percent m u t e space
LCarets2: 5 0 0 0 0 0
EndChar

StartChar: tp_nanpa
Encoding: 60989 60989 61
Width: 600
VWidth: 0
Flags: W
HStem: 25 21G<193.191 206.809 393.191 406.809> 125 50<75.2041 175 225 375 425 524.796> 325 50<75.2041 175 225 375 425 524.796> 455 20G<193.191 206.809 393.191 406.809>
VStem: 175 50<25.2041 125 175 325 375 474.796> 375 50<25.2041 125 175 325 375 474.796>
LayerCount: 2
Back
SplineSet
100 150 m 5
 500 150 l 1029
100 350 m 5
 500 350 l 1029
400 450 m 5
 400 50 l 1029
200 450 m 5
 200 50 l 1029
EndSplineSet
Fore
SplineSet
375 325 m 1
 225 325 l 1
 225 175 l 1
 375 175 l 1
 375 325 l 1
200 475 m 0
 213.617128764 475 225 463.617128764 225 450 c 2
 225 375 l 1
 375 375 l 1
 375 450 l 2
 375 463.617128764 386.382871236 475 400 475 c 0
 413.617128764 475 425 463.617128764 425 450 c 2
 425 375 l 1
 500 375 l 2
 513.617128764 375 525 363.617128764 525 350 c 0
 525 336.382871236 513.617128764 325 500 325 c 2
 425 325 l 1
 425 175 l 1
 500 175 l 2
 513.617128764 175 525 163.617128764 525 150 c 0
 525 136.382871236 513.617128764 125 500 125 c 2
 425 125 l 1
 425 50 l 2
 425 36.3828712355 413.617128764 25 400 25 c 0
 386.382871236 25 375 36.3828712355 375 50 c 2
 375 125 l 1
 225 125 l 1
 225 50 l 2
 225 36.3828712355 213.617128764 25 200 25 c 0
 186.382871236 25 175 36.3828712355 175 50 c 2
 175 125 l 1
 100 125 l 2
 86.3828712355 125 75 136.382871236 75 150 c 0
 75 163.617128764 86.3828712355 175 100 175 c 2
 175 175 l 1
 175 325 l 1
 100 325 l 2
 86.3828712355 325 75 336.382871236 75 350 c 0
 75 363.617128764 86.3828712355 375 100 375 c 2
 175 375 l 1
 175 450 l 2
 175 463.617128764 186.382871236 475 200 475 c 0
EndSplineSet
Validated: 1
LCarets2: 6 0 0 0 0 0 0
Ligature2: "Ligature Substitution lookup 240 subtable" n a n p a
Ligature2: "Ligature Substitution lookup 227 subtable" n a n p a tp_space
Ligature2: "tokiponaWords subtable" percent n a n p a space
EndChar

StartChar: tp_nasa
Encoding: 60990 60990 62
Width: 560
VWidth: 0
Flags: HW
HStem: 5 50<191.27 373.666> 129.681 50<237.184 328.07> 328 50<240.73 401.083> 445 50<194.241 442.891>
VStem: 55 50<146.854 351.236> 168.103 49.995<199.883 305.07> 455 50<128.965 277.92>
LayerCount: 2
Back
SplineSet
434 450 m 5
 434 450 373 470 280 470 c 7
 162.961914062 470 80 383.033830284 80 250 c 7
 80 118.938945525 156 30 280 30 c 7
 405 30 480 110 480 208 c 7
 480 311.01953125 396.400390625 353 309 353 c 7
 228.900390625 353 194 307 193.100585938 243.16015625 c 4
 192.462890625 197.924804688 236.200195312 154.680664062 289.400390625 154.680664062 c 4
 342.600585938 154.680664062 359.700195312 206.879882812 359.700195312 206.879882812 c 1053
EndSplineSet
Fore
SplineSet
457.767003532 442.245675846 m 0
 454.127147762 431.089517909 443.489108131 425.195186393 433.309106465 425.195186393 c 0
 431.179881656 425.195186393 429.070694591 425.453045157 427.049769685 425.974550104 c 0
 423.925877862 426.978634598 367.633214112 445 280 445 c 0
 177.702280838 445 105 371.691813153 105 250 c 0
 105 129.46115432 171.096023947 55 280 55 c 0
 393.242563517 55 455 124.558342906 455 208 c 0
 455 292.343510509 389.881686773 328 309 328 c 0
 242.10485303 328 218.094063713 295.289357434 218.094063713 242.233790008 c 0
 218.094063713 213.152827063 249.084477 179.680664062 289.400390625 179.680664062 c 0
 321.812389754 179.680664062 334.382337389 210.336024474 336.390382064 215.922727283 c 0
 340.438767382 225.943525397 349.876312959 231.872227487 359.765015434 231.872227487 c 0
 362.372435477 231.872227487 365.011222376 231.460032214 367.590851564 230.601972601 c 0
 377.797963234 227.206790716 384.622666133 217.917542455 384.622666133 206.918548616 c 0
 384.622666133 204.587341803 384.316089225 202.179330399 383.670161253 199.734353412 c 0
 383.126981496 198.101363891 361.903380685 129.680664062 289.400390625 129.680664062 c 0
 224.079795084 129.680664062 168.093271765 181.461305429 168.093271765 242.122545049 c 0
 168.093271765 318.139862559 215.895913405 378 309 378 c 0
 402.919094477 378 505 329.695551991 505 208 c 0
 505 95.4416570942 416.757436483 5 280 5 c 0
 140.903976053 5 55 108.41673673 55 250 c 0
 55 394.375847415 148.221547287 495 280 495 c 0
 376.425812781 495 438.265002754 474.905448468 442.501175739 473.523336564 c 0
 451.712853745 469.863214853 458.962236643 460.371615361 458.962236643 449.689268925 c 0
 458.962236643 447.251693019 458.584765271 444.752115576 457.767003532 442.245675846 c 0
EndSplineSet
Validated: 1
Ligature2: "Ligature Substitution lookup 182 subtable" n a s a
Ligature2: "Ligature Substitution lookup 113 subtable" n a s a tp_space
Ligature2: "tokiponaWords subtable" percent n a s a space
LCarets2: 5 0 0 0 0 0
EndChar

StartChar: tp_nasin
Encoding: 60991 60991 63
Width: 436
VWidth: 0
Flags: W
HStem: -12 21G<211.191 224.809> 512 20G<211.191 224.809>
VStem: 193 50<-11.7959 329.47 397.864 531.796>
LayerCount: 2
Back
SplineSet
68 247 m 5
 218 387 l 5
 368 247 l 1029
218 507 m 5
 218 13 l 1029
EndSplineSet
Fore
SplineSet
218 532 m 0
 231.617128764 532 243 520.617128764 243 507 c 2
 243 397.863807548 l 1
 385.057956259 265.276381706 l 2
 395.012829981 255.985166233 395.56759718 239.896917463 386.276381706 229.942043741 c 0
 376.985166233 219.987170019 360.896917463 219.43240282 350.942043741 228.723618294 c 2
 243 329.469525786 l 1
 243 13 l 2
 243 -0.617128764476 231.617128764 -12 218 -12 c 0
 204.382871236 -12 193 -0.617128764476 193 13 c 2
 193 329.469525786 l 1
 85.057956259 228.723618294 l 2
 75.1030825374 219.43240282 59.0148337674 219.987170019 49.7236182939 229.942043741 c 0
 40.4324028204 239.896917463 40.9871700194 255.985166233 50.942043741 265.276381706 c 2
 193 397.863807548 l 1
 193 507 l 2
 193 520.617128764 204.382871236 532 218 532 c 0
EndSplineSet
Ligature2: "Ligature Substitution lookup 241 subtable" n a s i n
Ligature2: "Ligature Substitution lookup 228 subtable" n a s i n tp_space
Ligature2: "tokiponaWords subtable" percent n a s i n space
LCarets2: 6 0 0 0 0 0 0
EndChar

StartChar: tp_nena
Encoding: 60992 60992 64
Width: 550
VWidth: 0
Flags: W
HStem: 0 21G<64.1914 223.185 331.499 489.809> 482 50<190.678 361.803>
VStem: 44 50<164.393 373.092> 458 50<164.094 373.093>
LayerCount: 2
Back
SplineSet
70 25 m 5
 215 25 l 5
 184 38 68 114 68 260 c 7
 68 406 151 507 275 507 c 7
 400.143554688 507 482 406 482 260 c 7
 482 114 362 37 335 25 c 5
 482 25 l 1029
EndSplineSet
Fore
SplineSet
46 25 m 0
 46 38.6171875 57.3828125 50 71 50 c 2
 136.971679688 50 l 1
 91.6640625 92.6396484375 44 161.56640625 44 260 c 0
 44 415.278320312 135.224609375 532 276 532 c 0
 417.935546875 532 508 415.161132812 508 260 c 0
 508 161.159179688 457.344726562 90.9462890625 413.747070312 50 c 1
 483 50 l 2
 496.6171875 50 508 38.6171875 508 25 c 0
 508 11.3828125 496.6171875 0 483 0 c 2
 336 0 l 2
 326.997070312 0 318.36328125 5.076171875 314.021484375 13.0859375 c 0
 307.172851562 25.71875 312.71484375 42.0087890625 325.846679688 47.845703125 c 0
 347.791015625 57.5986328125 458 128.934570312 458 260 c 0
 458 396.838867188 384.352539062 482 276 482 c 0
 168.775390625 482 94 396.721679688 94 260 c 0
 94 128.532226562 200.557617188 58.5849609375 225.66796875 48.0546875 c 0
 233.9921875 44.564453125 240.188476562 36.2900390625 240.922851562 26.9619140625 c 0
 242.05078125 12.6357421875 230.370117188 0 216 0 c 2
 71 0 l 2
 57.3828125 0 46 11.3828125 46 25 c 0
EndSplineSet
Ligature2: "Ligature Substitution lookup 183 subtable" n e n a
Ligature2: "Ligature Substitution lookup 114 subtable" n e n a tp_space
Ligature2: "tokiponaWords subtable" percent n e n a space
LCarets2: 5 0 0 0 0 0
EndChar

StartChar: tp_ni
Encoding: 60993 60993 65
Width: 436
VWidth: 0
Flags: W
HStem: 512 20G<211.191 224.809>
VStem: 193 50<73.3553 531.796>
LayerCount: 2
Back
SplineSet
368 163 m 5
 218 13 l 1028
68 163 m 5
 218 13 l 5
 218 507 l 1029
EndSplineSet
Fore
SplineSet
50.3223304703 180.67766953 m 0
 59.95109456 190.306433619 76.04890544 190.306433619 85.6776695297 180.67766953 c 2
 193 73.3553390593 l 1
 193 507 l 2
 193 520.617128764 204.382871236 532 218 532 c 0
 231.617128764 532 243 520.617128764 243 507 c 2
 243 73.3553390593 l 1
 350.32233047 180.67766953 l 2
 359.95109456 190.306433619 376.04890544 190.306433619 385.67766953 180.67766953 c 0
 395.306433619 171.04890544 395.306433619 154.95109456 385.67766953 145.32233047 c 2
 235.67766953 -4.67766952966 l 2
 227.914117715 -12.4412213439 215.945041944 -13.945118626 206.552165008 -9.1893608433 c 0
 204.29935519 -8.0498508438 202.191828674 -6.54716853586 200.32233047 -4.67766952966 c 2
 50.3223304703 145.32233047 l 2
 40.6935663807 154.95109456 40.6935663807 171.04890544 50.3223304703 180.67766953 c 0
EndSplineSet
Ligature2: "Ligature Substitution lookup 33 subtable" n i
Ligature2: "Ligature Substitution lookup 20 subtable" n i tp_space
Ligature2: "tokiponaWords subtable" percent n i space
LCarets2: 3 0 0 0
EndChar

StartChar: tp_nimi
Encoding: 60994 60994 66
Width: 550
VWidth: 0
Flags: W
HStem: 0 21G<79.4292 477.566> 470 50<105 416.77>
VStem: 55 50<94.2783 470> 445 50<50 425.722>
LayerCount: 2
Back
SplineSet
470 495 m 1
 80 25 l 1025
80 495 m 1
 80 25 l 1
 470 25 l 1
 470 495 l 1
 80 495 l 1
EndSplineSet
Fore
SplineSet
55 495 m 2
 55 505.729492188 64.8671875 520 80 520 c 2
 470 520 l 2
 471.141601562 520 472.323242188 519.888671875 473.522460938 519.670898438 c 0
 477.98046875 519.065429688 482.309570312 517.271484375 485.963867188 514.239257812 c 0
 489.756835938 511.091796875 492.372070312 506.985351562 493.752929688 502.528320312 c 0
 494.55078125 500.201171875 495 497.68359375 495 495 c 2
 495 25 l 2
 495 14.2705078125 485.1328125 0 470 0 c 2
 80 0 l 2
 78.8583984375 0 77.6767578125 0.111328125 76.4775390625 0.3291015625 c 0
 72.01953125 0.9345703125 67.6904296875 2.728515625 64.0361328125 5.7607421875 c 0
 60.2431640625 8.908203125 57.6279296875 13.0146484375 56.2470703125 17.4716796875 c 0
 55.44921875 19.798828125 55 22.31640625 55 25 c 2
 55 495 l 2
105 94.2783203125 m 1
 416.76953125 470 l 1
 105 470 l 1
 105 94.2783203125 l 1
133.23046875 50 m 1
 445 50 l 1
 445 425.721679688 l 1
 133.23046875 50 l 1
EndSplineSet
Ligature2: "Ligature Substitution lookup 184 subtable" n i m i
Ligature2: "Ligature Substitution lookup 115 subtable" n i m i tp_space
Ligature2: "tokiponaWords subtable" percent n i m i space
LCarets2: 5 0 0 0 0 0
EndChar

StartChar: tp_noka
Encoding: 60995 60995 67
Width: 438
VWidth: 0
Flags: W
HStem: 0 21G<69.635 267.766> 235 50<225.328 332.329> 512 20G<68.1914 81.8086>
VStem: 50 50<50 531.796> 350 50<74.2322 216.786>
LayerCount: 2
Back
SplineSet
75 507 m 5
 75 25 l 5
 75 25 134 25 212 25 c 7
 321 25 375 51 375 137 c 7
 375 217 346.006835938 260 270 260 c 7
 223 260 201 223 201 223 c 1029
EndSplineSet
Fore
SplineSet
75 532 m 0
 88.6171287645 532 100 520.617128764 100 507 c 2
 100 50 l 1
 212 50 l 2
 318.468112718 50 350 70.1539282302 350 137 c 0
 350 209.706973536 330.548040345 235 270 235 c 0
 239.040476583 235 223.922918406 212.442667981 221.685436961 208.958741059 c 0
 214.062338252 197.92934354 199.264972935 194.863225392 188.10507266 201.582230534 c 0
 176.936235341 208.306616373 172.511070313 222.389812927 179.177226232 235.222299419 c 0
 181.008219224 238.263478697 208.488205013 285 270 285 c 0
 361.46563153 285 400 224.293026464 400 137 c 0
 400 31.8460717698 323.531887282 0 212 0 c 2
 75 0 l 2
 64.2700956673 0 50 9.86746214447 50 25 c 2
 50 507 l 2
 50 520.617128764 61.3828712355 532 75 532 c 0
EndSplineSet
LCarets2: 5 0 0 0 0 0
Ligature2: "Ligature Substitution lookup 185 subtable" n o k a
Ligature2: "Ligature Substitution lookup 116 subtable" n o k a tp_space
Ligature2: "tokiponaWords subtable" percent n o k a space
EndChar

StartChar: tp_o
Encoding: 60996 60996 68
Width: 328
VWidth: 0
Flags: W
HStem: -12 21G<130.596 197.404>
VStem: 43 50<59.0075 159.562> 138.926 50.0002<221.428 531.589> 235 50<59.0075 159.583>
LayerCount: 2
Back
SplineSet
163 507 m 5
 164 205 l 1029
68 109 m 4
 68 162 111 205 164 205 c 4
 217 205 260 162 260 109 c 4
 260 56 217 13 164 13 c 4
 111 13 68 56 68 109 c 4
EndSplineSet
Fore
SplineSet
93 109 m 0
 93 69.8071427016 124.807092901 38 164 38 c 0
 203.192857298 38 235 69.8070929007 235 109 c 0
 235 148.192857298 203.192907099 180 164 180 c 0
 124.807142702 180 93 148.192907099 93 109 c 0
162.917218997 531.999862946 m 0
 176.53427311 532.044952529 187.954773363 520.699835116 187.999862946 507.082781003 c 2
 188.925872556 227.427878756 l 1
 243.782140818 215.932283978 285 167.263207392 285 109 c 0
 285 42.1929070993 230.807142702 -12 164 -12 c 0
 97.1929070993 -12 43 42.1928572984 43 109 c 0
 43 167.210609404 84.1434962196 215.844464016 138.925701759 227.396678105 c 1
 138.000137054 506.917218997 l 2
 137.955047471 520.53427311 149.300164884 531.954773363 162.917218997 531.999862946 c 0
EndSplineSet
Ligature2: "Ligature Substitution lookup 6 subtable" o tp_space
Ligature2: "tokiponaWords subtable" percent o space
LCarets2: 2 0 0
EndChar

StartChar: tp_olin
Encoding: 60997 60997 69
Width: 600
VWidth: 0
Flags: HW
HStem: 425 50<148.669 243.424 344.593 455.453> 575 50<148.744 243.424 344.593 454.694>
VStem: 75 50<262.709 400.662 453.309 548.829> 475 50<279.15 405.651 455.024 554.869>
LayerCount: 2
Back
SplineSet
112.267971307 419.014849097 m 5
 104.349304522 436.173845006 100 455.623346909 100 480 c 7
 100 534 128 600 196 600 c 7
 264 600 300 518 300 518 c 5
 300 518 316 600 392 600 c 7
 468 600 500 556 500 480 c 7
 500 461.372099258 493.803594892 443.531043609 483.352000797 425.647999203 c 1029
112.267971307 419.014849097 m 1029
300 50 m 5
 191.930664062 210.001953125 100 217.928710938 100 330 c 7
 100 384 128 450 196 450 c 7
 264 450 300 368 300 368 c 5
 300 368 316 450 392 450 c 7
 468 450 500 406 500 330 c 7
 500 246 374 178 300 50 c 5
EndSplineSet
Fore
SplineSet
127.478655731 452.513708168 m 1
 145.063711553 466.290758297 167.630970548 475 196 475 c 0
 243.707395909 475 277.266192613 444.112940833 295.722144903 421.374702161 c 1
 313.192814708 448.155514549 343.072741243 475 392 475 c 0
 423.766007085 475 449.587057486 467.608705246 469.733723039 454.371417364 c 1
 473.295254681 463.370546593 475 471.775387642 475 480 c 0
 475 547.351701441 453.228998587 575 392 575 c 0
 340.107801257 575 325.816921807 519.263448986 324.396074516 512.536358042 c 0
 323.144156801 506.794858826 318.396628814 499.517185799 311.866060197 495.995531922 c 0
 308.097849043 493.963498235 304.024252495 492.963066304 299.985091044 492.963066304 c 0
 291.176943693 492.963066304 282.532548879 497.720516626 277.575855814 506.912185229 c 0
 274.8772007 512.904080447 242.721363443 575 196 575 c 0
 149.142553136 575 125 528.992687941 125 480 c 0
 125 469.581044952 125.863173492 460.584535132 127.478655731 452.513708168 c 1
298.790393265 94.8283343521 m 1
 378.848674953 211.1607239 475 272.910808337 475 330 c 0
 475 397.351701441 453.228998587 425 392 425 c 0
 340.107801257 425 325.816921807 369.263448986 324.396074516 362.536358042 c 0
 323.144156801 356.794858826 318.396628814 349.517185799 311.866060197 345.995531922 c 0
 308.097849043 343.963498235 304.024252495 342.963066304 299.985091044 342.963066304 c 0
 291.176943693 342.963066304 282.532548879 347.720516626 277.575855814 356.912185229 c 0
 274.8772007 362.904080447 242.721363443 425 196 425 c 0
 149.142553136 425 125 378.992687941 125 330 c 0
 125 241.536435901 191.384881973 237.690716123 298.790393265 94.8283343521 c 1
279.282867975 36.0071289337 m 0
 178.944470767 184.563048033 75 200.472286623 75 330 c 0
 75 353.222708675 79.934294334 380.62509276 91.3528680629 405.320387403 c 0
 90.5911596883 406.480855888 89.9234065031 407.708432895 89.3604540204 408.99227556 c 0
 79.9820322272 429.496743999 75 452.850877112 75 480 c 1
 75 539.007312059 106.857446864 625 196 625 c 0
 243.707395909 625 277.266192613 594.112940833 295.722144903 571.374702161 c 1
 313.192814708 598.155514549 343.072741243 625 392 625 c 0
 482.771001413 625 525 564.648298559 525 480 c 0
 525 456.364658372 517.27825 434.635590832 505.938143066 414.768216852 c 1
 518.765421564 391.462776883 525 362.524931333 525 330 c 0
 525 225.513139549 389.284231594 154.487834167 321.643370778 37.4874262691 c 0
 317.033190985 29.5130612215 308.482012677 25.0938720349 299.818537544 25.0938720349 c 0
 294.965959708 25.0938720349 290.078150608 26.4803192772 285.827920588 29.4050451532 c 0
 283.258704087 31.1730092276 280.603416781 34.0519916491 279.282867975 36.0071289337 c 0
EndSplineSet
Validated: 1
Ligature2: "Ligature Substitution lookup 186 subtable" o l i n
Ligature2: "Ligature Substitution lookup 117 subtable" o l i n tp_space
Ligature2: "tokiponaWords subtable" percent o l i n space
EndChar

StartChar: tp_ona
Encoding: 60998 60998 70
Width: 623
VWidth: 0
Flags: W
HStem: 0 21G<56.1914 422.522> 482 50<267.678 438.322>
VStem: 121 50<149.503 373.092> 535 50<149.353 373.092>
LayerCount: 2
Back
SplineSet
146 260 m 7
 146 406 229 507 353 507 c 7
 477 507 560 406 560 260 c 7
 560 114 477 25 353 25 c 7
 229 25 146 114 146 260 c 7
353 25 m 4
 63 25 l 1028
EndSplineSet
Fore
SplineSet
121 260 m 0
 121 415.278585301 212.22454825 532 353 532 c 0
 493.774006754 532 585 415.278511214 585 260 c 0
 585 103.508347235 492.043838235 0 353 0 c 2
 63 0 l 2
 49.3828712355 0 38 11.3828712355 38 25 c 0
 38 38.6171287645 49.3828712355 50 63 50 c 2
 206.895432497 50 l 1
 152.750462131 95.1788832159 121 168.540852842 121 260 c 0
353 50 m 0
 461.956161765 50 535 124.491652765 535 260 c 0
 535 396.721488786 460.225993246 482 353 482 c 0
 245.77545175 482 171 396.721414699 171 260 c 0
 171 124.491639589 244.043869345 50 353 50 c 0
EndSplineSet
Ligature2: "Ligature Substitution lookup 75 subtable" o n a
Ligature2: "Ligature Substitution lookup 53 subtable" o n a tp_space
Ligature2: "tokiponaWords subtable" percent o n a space
LCarets2: 4 0 0 0 0
EndChar

StartChar: tp_open
Encoding: 60999 60999 71
Width: 550
VWidth: 0
Flags: W
HStem: 0 21G<74.6353 477.566> 235 50<105 445> 512 20G<73.1914 86.8086 463.191 476.809>
VStem: 55 50<50 235 285 531.796> 445 50<50 235 285 531.796>
LayerCount: 2
Back
SplineSet
80 260 m 5
 470 260 l 1029
EndSplineSet
Refer: 83 61011 S 1 0 0 1 5 0 2
Fore
SplineSet
80 532 m 0
 93.6171875 532 105 520.6171875 105 507 c 2
 105 285 l 1
 445 285 l 1
 445 507 l 2
 445 520.6171875 456.3828125 532 470 532 c 0
 483.6171875 532 495 520.6171875 495 507 c 2
 495 260 l 1
 495 25 l 2
 495 14.2705078125 485.1328125 0 470 0 c 2
 80 0 l 2
 69.2705078125 0 55 9.8671875 55 25 c 2
 55 259.999999628 l 1
 55 260 l 1
 55 507 l 2
 55 520.6171875 66.3828125 532 80 532 c 0
445 235 m 1
 105 235 l 1
 105 50 l 1
 445 50 l 1
 445 235 l 1
EndSplineSet
Ligature2: "Ligature Substitution lookup 187 subtable" o p e n
Ligature2: "Ligature Substitution lookup 118 subtable" o p e n tp_space
Ligature2: "tokiponaWords subtable" percent o p e n space
LCarets2: 5 0 0 0 0 0
EndChar

StartChar: tp_pakala
Encoding: 61000 61000 72
Width: 550
VWidth: 0
Flags: W
HStem: 0 21G<74.6353 477.566> 236 50<235.126 314.961> 470 50<105 240.874 293.314 445>
VStem: 55 50<50 470> 445 50<50 470>
LayerCount: 2
Back
SplineSet
275 495 m 1
 201 261 l 1
 349 261 l 1
 275 25 l 1025
80 495 m 1
 80 25 l 1
 470 25 l 1
 470 495 l 1
 80 495 l 1
EndSplineSet
Fore
SplineSet
105 470 m 1
 105 50 l 1
 256.638671875 50 l 1
 314.9609375 236 l 1
 201 236 l 2
 199.559570312 236 197.178710938 236.22265625 195.35546875 236.645507812 c 0
 181.356445312 239.890625 172.830078125 254.836914062 177.163085938 268.538085938 c 2
 240.874023438 470 l 1
 105 470 l 1
55 495 m 2
 55 505.729492188 64.8671875 520 80 520 c 2
 470 520 l 2
 480.729492188 520 495 510.1328125 495 495 c 2
 495 25 l 2
 495 14.2705078125 485.1328125 0 470 0 c 2
 80 0 l 2
 69.2705078125 0 55 9.8671875 55 25 c 2
 55 495 l 2
309.0390625 50 m 1
 445 50 l 1
 445 470 l 1
 293.314453125 470 l 1
 235.125976562 286 l 1
 349 286 l 2
 365.858398438 286 377.701171875 268.975585938 372.854492188 253.520507812 c 2
 309.0390625 50 l 1
EndSplineSet
Ligature2: "Ligature Substitution lookup 261 subtable" p a k a l a
Ligature2: "Ligature Substitution lookup 250 subtable" p a k a l a tp_space
Ligature2: "tokiponaWords subtable" percent p a k a l a space
LCarets2: 7 0 0 0 0 0 0 0
EndChar

StartChar: tp_pali
Encoding: 61001 61001 73
Width: 550
VWidth: 0
Flags: W
HStem: -12 21G<463.191 476.809> 286 50<235.51 340.892> 482 50<234.82 343.18>
VStem: 98 50<84.0296 220.64> 163.2 50<356.452 459.942> 364.8 50<357.775 460.355> 445 50<-11.7959 215.742>
LayerCount: 2
Back
SplineSet
30 113 m 5
 139 13 l 5
 139 13 123 26.9990234375 123 110 c 7
 123 256 194.229492188 311 288 311 c 7
 393.016601562 311 470 256.013671875 470 110 c 4
 470 13 l 1028
188.200195312 408.200195312 m 4
 188.200195312 464.200195312 233 507 289 507 c 4
 345 507 389.799804688 464.200195312 389.799804688 408.200195312 c 4
 389.799804688 352.200195312 344 311 288 311 c 4
 232 311 188.200195312 352.200195312 188.200195312 408.200195312 c 4
EndSplineSet
Fore
SplineSet
163.200195312 408.200195312 m 0
 163.200195312 478.420490304 219.931684312 532 289 532 c 0
 358.068340592 532 414.799804688 478.420423049 414.799804688 408.200195312 c 0
 414.799804688 372.594767876 400.054861728 341.944863901 376.732542529 320.246536774 c 1
 447.456735134 292.027030788 495 224.817882276 495 110 c 2
 495 13 l 2
 495 -0.617128764476 483.617128764 -12 470 -12 c 0
 456.382871236 -12 445 -0.617128764476 445 13 c 2
 445 110 l 2
 445 243.848681561 381.26627311 286 288 286 c 0
 207.875638563 286 148 245.583457268 148 110 c 0
 148 66.5218186358 152.69254889 44.2241591281 155.817881872 34.7097620895 c 0
 156.781181042 31.7772071225 157.582633539 30.0622734988 157.979982505 29.2995001247 c 0
 166.15593683 19.008302913 165.4605382 3.48118534618 156.039066089 -5.29399428271 c 0
 146.160668755 -14.4947550581 131.501005377 -12.8741560197 122.912075436 -6.15553043252 c 0
 122.169105284 -5.4862058821 122.749987612 -6.02612400733 122.016743526 -5.346158485 c 2
 93.9223618177 20.428503633 l 1
 13.099232566 94.578163497 l 2
 3.06513177647 103.783760552 2.37256644233 119.866666644 11.578163497 129.900767434 c 0
 20.7837605517 139.934868224 36.8666666444 140.627433558 46.900767434 131.421836503 c 2
 98.5583498225 84.0295590823 l 1
 98.2003266939 91.9407172336 98 100.610369232 98 110 c 0
 98 221.258254632 139.78222798 288.584167489 202.564032653 318.185405676 c 1
 178.352327526 340.083940579 163.200195312 371.66237414 163.200195312 408.200195312 c 0
288 336 m 0
 331.722777741 336 364.799804688 367.134513115 364.799804688 408.200195312 c 0
 364.799804688 449.979967576 331.931659408 482 289 482 c 0
 246.068315688 482 213.200195312 449.979900321 213.200195312 408.200195312 c 0
 213.200195312 366.472708948 244.751892912 336 288 336 c 0
EndSplineSet
Ligature2: "Ligature Substitution lookup 189 subtable" p a l i
Ligature2: "Ligature Substitution lookup 120 subtable" p a l i tp_space
Ligature2: "tokiponaWords subtable" percent p a l i space
LCarets2: 5 0 0 0 0 0
EndChar

StartChar: tp_pan
Encoding: 61003 61003 75
Width: 600
VWidth: 0
Flags: W
HStem: 25.4156 21G<296.495 303.099> 225.416 21G<296.495 303.099> 254.899 20G<96.7842 103.216 496.784 503.216> 454.899 20G<96.7842 103.216 496.784 503.216>
LayerCount: 2
Back
SplineSet
100 450 m 1
 300 250 l 1
 500 450 l 1025
100 250 m 1
 300 50 l 1
 500 250 l 1025
EndSplineSet
Fore
SplineSet
82.322265625 267.677734375 m 0
 87.13671875 272.4921875 93.568359375 274.899414062 100 274.899414062 c 0
 106.431640625 274.899414062 112.86328125 272.4921875 117.677734375 267.677734375 c 2
 300 85.35546875 l 1
 482.322265625 267.677734375 l 2
 487.13671875 272.4921875 493.568359375 274.899414062 500 274.899414062 c 0
 506.431640625 274.899414062 512.86328125 272.4921875 517.677734375 267.677734375 c 0
 522.4921875 262.86328125 524.899414062 256.431640625 524.899414062 250 c 0
 524.899414062 243.568359375 522.4921875 237.13671875 517.677734375 232.322265625 c 2
 317.677734375 32.322265625 l 2
 313.568099252 28.2126305018 306.676505009 25.4156078747 299.521978878 25.4156078747 c 0
 293.468331221 25.4156078747 287.226441882 27.4180893684 282.322265625 32.322265625 c 2
 82.322265625 232.322265625 l 2
 77.5078125 237.13671875 75.1005859375 243.568359375 75.1005859375 250 c 0
 75.1005859375 256.431640625 77.5078125 262.86328125 82.322265625 267.677734375 c 0
82.322265625 467.677734375 m 0
 87.13671875 472.4921875 93.568359375 474.899414062 100 474.899414062 c 0
 106.431640625 474.899414062 112.86328125 472.4921875 117.677734375 467.677734375 c 2
 300 285.35546875 l 1
 482.322265625 467.677734375 l 2
 487.13671875 472.4921875 493.568359375 474.899414062 500 474.899414062 c 0
 506.431640625 474.899414062 512.86328125 472.4921875 517.677734375 467.677734375 c 0
 522.4921875 462.86328125 524.899414062 456.431640625 524.899414062 450 c 0
 524.899414062 443.568359375 522.4921875 437.13671875 517.677734375 432.322265625 c 2
 317.677734375 232.322265625 l 2
 313.568099252 228.212630502 306.676505009 225.415607874 299.521978878 225.415607874 c 0
 293.468331221 225.415607874 287.226441882 227.418089368 282.322265625 232.322265625 c 2
 82.322265625 432.322265625 l 2
 77.5078125 437.13671875 75.1005859375 443.568359375 75.1005859375 450 c 0
 75.1005859375 456.431640625 77.5078125 462.86328125 82.322265625 467.677734375 c 0
EndSplineSet
Ligature2: "Ligature Substitution lookup 76 subtable" p a n
Ligature2: "Ligature Substitution lookup 54 subtable" p a n tp_space
Ligature2: "tokiponaWords subtable" percent p a n space
LCarets2: 4 0 0 0 0
EndChar

StartChar: tp_pana
Encoding: 61004 61004 76
Width: 600
VWidth: 0
Flags: HW
HStem: 25 21G<493.191 506.809 493.191 506.809> 445 50<259.974 401.861>
VStem: 128 50<84.6178 354.476> 297 50<539.204 724.796> 475 50<25.2041 362.546>
AnchorPoint: "Small" 302 254 basechar 0
LayerCount: 2
Back
SplineSet
486 686 m 5
 406 591 l 1029
295 703 m 5
 295 607 l 1029
95 673 m 5
 179 590 l 1029
EndSplineSet
Refer: 45 60973 S 1 0 0 1 0 0 2
Fore
SplineSet
502.103393645 705.122779953 m 0
 512.519287923 696.351500561 513.894059345 680.312500634 505.122779953 669.896606355 c 2
 425.122779953 574.896606355 l 2
 416.351500561 564.480712077 400.312500634 563.105940655 389.896606355 571.877220047 c 0
 379.480712077 580.648499439 378.105940655 596.687499366 386.877220047 607.103393645 c 2
 466.877220047 702.103393645 l 2
 475.648499439 712.519287923 491.687499366 713.894059345 502.103393645 705.122779953 c 0
295 728 m 0
 308.617128764 728 320 716.617128764 320 703 c 2
 320 607 l 2
 320 593.382871236 308.617128764 582 295 582 c 0
 281.382871236 582 270 593.382871236 270 607 c 2
 270 703 l 2
 270 716.617128764 281.382871236 728 295 728 c 0
77.21679498 690.571500198 m 0
 86.7877302115 700.257747902 102.885252494 700.354140251 112.571500198 690.78320502 c 2
 196.571500198 607.78320502 l 2
 206.257747902 598.212269789 206.354140251 582.114747506 196.78320502 572.428499802 c 0
 187.212269789 562.742252098 171.114747506 562.645859749 161.428499802 572.21679498 c 2
 77.4284998017 655.21679498 l 2
 67.7422520976 664.787730211 67.6458597486 680.885252494 77.21679498 690.571500198 c 0
EndSplineSet
Refer: 45 60973 N 1 0 0 1 0 0 2
Ligature2: "Ligature Substitution lookup 190 subtable" p a n a
Ligature2: "Ligature Substitution lookup 121 subtable" p a n a tp_space
Ligature2: "tokiponaWords subtable" percent p a n a space
LCarets2: 5 0 0 0 0 0
EndChar

StartChar: tp_pi
Encoding: 61005 61005 77
Width: 343
VWidth: 0
Flags: W
HStem: 0 21G<74.6353 281.809> 512 20G<73.1914 86.8086>
VStem: 55 50<50 531.796>
LayerCount: 2
Back
SplineSet
80 507 m 1
 80 25 l 0
 275 25 l 1025
EndSplineSet
Fore
SplineSet
80 532 m 0
 93.6171875 532 105 520.6171875 105 507 c 2
 105 50 l 1
 275 50 l 2
 288.6171875 50 300 38.6171875 300 25 c 0
 300 11.3828125 288.6171875 0 275 0 c 2
 80 0 l 2
 69.2705078125 0 55 9.8671875 55 25 c 2
 55 507 l 2
 55 520.6171875 66.3828125 532 80 532 c 0
EndSplineSet
LCarets2: 3 0 0 0
Ligature2: "Ligature Substitution lookup 34 subtable" p i
Ligature2: "Ligature Substitution lookup 21 subtable" p i tp_space
Ligature2: "tokiponaWords subtable" percent p i space
EndChar

StartChar: tp_pilin
Encoding: 61006 61006 78
Width: 550
VWidth: 0
Flags: W
HStem: 482 50<122.723 218.424 319.593 433.517>
VStem: 43 50<300.374 451.43> 457 50<323.787 459.024>
LayerCount: 2
Back
SplineSet
275 13 m 5
 166.930664062 173.001953125 68 274.928710938 68 387 c 7
 68 441 103 507 171 507 c 7
 239 507 275 425 275 425 c 5
 275 425 291 507 367 507 c 7
 443 507 482 463 482 387 c 7
 482 303 349 141 275 13 c 5
EndSplineSet
Fore
SplineSet
273.597280368 59.1823248182 m 1
 350.229366543 182.477283692 457 326.940675978 457 387 c 0
 457 452.125875665 429.654093439 482 367 482 c 0
 315.107801257 482 300.816921807 426.263448986 299.396074516 419.536358042 c 0
 298.144156801 413.794858826 293.396628814 406.517185799 286.866060197 402.995531922 c 0
 274.880559515 396.532268548 259.805544863 400.505483429 252.575855814 413.912185229 c 0
 249.8772007 419.904080447 217.721363443 482 171 482 c 0
 122.54391194 482 93 433.421995971 93 387 c 0
 93 295.883786874 171.332794689 205.532864481 273.597280368 59.1823248182 c 1
254.282867975 -0.992871066242 m 0
 148.65288201 155.397504765 43 260.581039132 43 387 c 0
 43 448.578004029 83.4560880601 532 171 532 c 0
 218.707395909 532 252.266192613 501.112940833 270.722144903 478.374702161 c 1
 288.192814708 505.155514549 318.072741243 532 367 532 c 0
 456.345906561 532 507 473.874124335 507 387 c 0
 507 285.596194457 368.458608809 124.708378539 296.643370778 0.487426269054 c 0
 289.45094126 -11.9535328977 272.666233341 -15.7412950394 260.827920588 -7.59495484675 c 0
 258.258704087 -5.82699077244 255.603416781 -2.94800835098 254.282867975 -0.992871066242 c 0
EndSplineSet
Ligature2: "Ligature Substitution lookup 242 subtable" p i l i n
Ligature2: "Ligature Substitution lookup 229 subtable" p i l i n tp_space
Ligature2: "tokiponaWords subtable" percent p i l i n space
LCarets2: 6 0 0 0 0 0 0
EndChar

StartChar: tp_pimeja
Encoding: 61007 61007 79
Width: 600
VWidth: 0
Flags: HW
HStem: 25 50<121.317 194.788 251.086 349.169 405.307 478.683>
LayerCount: 2
Back
SplineSet
210 50 m 5
 358 336 l 1029
244 336 m 5
 390 50 l 1029
300 470 m 5
 80 50 l 5
 520 50 l 5
 300 470 l 5
EndSplineSet
Fore
SplineSet
277.854211618 481.600174867 m 2
 279.754909247 485.228779431 282.966925126 488.822689659 286.698088754 491.1674079 c 0
 290.748908716 493.713002895 295.29240755 494.914144877 299.797601396 494.914144877 c 0
 308.824569439 494.914144877 317.69775312 490.091878548 322.145788382 481.600174867 c 2
 542.145788382 61.6001748668 l 2
 543.182611228 59.620785796 544.99826239 54.1624796037 544.99826239 50.0467891501 c 0
 544.99826239 36.5283425905 533.726483286 25 520 25 c 2
 80 25 l 2
 78.345343975 25 73.2048390328 25.7163205249 70.173076777 27.0123602784 c 0
 60.7149299699 31.0555975847 55.068911775 40.5095976522 55.068911775 50.2253283224 c 0
 55.068911775 54.0831262905 55.9590763333 57.9821893233 57.854211618 61.6001748668 c 2
 277.854211618 481.600174867 l 2
236.710151397 295.295427253 m 1
 121.31730855 75 l 1
 194.788038133 75 l 1
 272.503451319 225.179784941 l 1
 236.710151397 295.295427253 l 1
349.168656219 75 m 1
 300.460986159 170.413655049 l 1
 251.086087741 75 l 1
 349.168656219 75 l 1
405.306868257 75 m 1
 478.68269145 75 l 1
 364.192938449 293.571346638 l 1
 328.721038477 225.024296692 l 1
 405.306868257 75 l 1
265.07379537 349.44420211 m 2
 265.501611092 348.777388536 265.900021081 348.084645838 266.26647331 347.36680106 c 2
 300.763503637 279.790426583 l 1
 335.796744138 347.48979674 l 2
 335.822078742 347.538754151 335.847562188 347.587593313 335.873193657 347.636313967 c 2
 300 416.121501859 l 1
 265.07379537 349.44420211 l 2
EndSplineSet
Validated: 1
Ligature2: "Ligature Substitution lookup 263 subtable" p i m e j a
Ligature2: "Ligature Substitution lookup 252 subtable" p i m e j a tp_space
Ligature2: "tokiponaWords subtable" percent p i m e j a space
LCarets2: 7 0 0 0 0 0 0 0
EndChar

StartChar: tp_pini
Encoding: 61008 61008 80
Width: 326
VWidth: 0
Flags: W
HStem: 0 21G<56.1914 269.809> 470 50<38.2041 138 188 287.796>
VStem: 138 50<50 470>
LayerCount: 2
Back
SplineSet
163 495 m 5
 163 25 l 1029
63 25 m 5
 263 25 l 1029
63 495 m 4
 263 495 l 1029
EndSplineSet
Fore
SplineSet
38 495 m 0
 38 508.617128764 49.3828712355 520 63 520 c 2
 163 520 l 1
 263 520 l 2
 276.617128764 520 288 508.617128764 288 495 c 0
 288 481.382871236 276.617128764 470 263 470 c 2
 188 470 l 1
 188 50 l 1
 263 50 l 2
 276.617128764 50 288 38.6171287645 288 25 c 0
 288 11.3828712355 276.617128764 0 263 0 c 2
 163 0 l 1
 63 0 l 2
 49.3828712355 0 38 11.3828712355 38 25 c 0
 38 38.6171287645 49.3828712355 50 63 50 c 2
 138 50 l 1
 138 470 l 1
 63 470 l 2
 49.3828712355 470 38 481.382871236 38 495 c 0
EndSplineSet
LCarets2: 5 0 0 0 0 0
Ligature2: "Ligature Substitution lookup 191 subtable" p i n i
Ligature2: "Ligature Substitution lookup 122 subtable" p i n i tp_space
Ligature2: "tokiponaWords subtable" percent p i n i space
EndChar

StartChar: tp_pipi
Encoding: 61009 61009 81
Width: 480
VWidth: 0
Flags: HW
HStem: 75 21G<223.191 236.809> 225 50<55.2041 205 255 404.796> 405 20G<223.191 236.809> 483 78<100.281 169.719 291.281 360.719>
VStem: 96 78<487.281 556.719> 205 50<75.2041 225 275 424.796> 287 78<487.281 556.719>
LayerCount: 2
Back
Refer: 153 -1 N 1 0 0 1 135 522 2
Refer: 153 -1 N 1 0 0 1 326 522 2
Refer: 10 60938 N 1 0 0 1 0 0 2
Fore
SplineSet
230 425 m 0
 243.6171875 425 255 413.6171875 255 400 c 2
 255 275 l 1
 380 275 l 2
 393.6171875 275 405 263.6171875 405 250 c 0
 405 236.3828125 393.6171875 225 380 225 c 2
 255 225 l 1
 255 100 l 2
 255 86.3828125 243.6171875 75 230 75 c 0
 216.3828125 75 205 86.3828125 205 100 c 2
 205 225 l 1
 80 225 l 2
 66.3828125 225 55 236.3828125 55 250 c 0
 55 263.6171875 66.3828125 275 80 275 c 2
 205 275 l 1
 205 400 l 2
 205 413.6171875 216.3828125 425 230 425 c 0
287 522 m 0
 287 543.462890625 304.537109375 561 326 561 c 0
 347.462890625 561 365 543.462890625 365 522 c 0
 365 500.537109375 347.462890625 483 326 483 c 0
 304.537109375 483 287 500.537109375 287 522 c 0
96 522 m 0
 96 543.462890625 113.537109375 561 135 561 c 0
 156.462890625 561 174 543.462890625 174 522 c 0
 174 500.537109375 156.462890625 483 135 483 c 0
 113.537109375 483 96 500.537109375 96 522 c 0
EndSplineSet
Ligature2: "Ligature Substitution lookup 192 subtable" p i p i
Ligature2: "Ligature Substitution lookup 123 subtable" p i p i tp_space
Ligature2: "tokiponaWords subtable" percent p i p i space
LCarets2: 5 0 0 0 0 0
EndChar

StartChar: tp_poka
Encoding: 61010 61010 82
Width: 600
VWidth: 0
Flags: W
HStem: 25 50<125 475> 225 50<275.204 475> 455 20G<93.1914 106.809 493.191 506.809>
VStem: 75 50<75 474.796> 475 50<75 225 275 474.796>
LayerCount: 2
Back
SplineSet
300 250 m 5
 500 250 l 1028
100 450 m 5
 100 50 l 5
 500 50 l 5
 500 450 l 1029
EndSplineSet
Fore
SplineSet
100 475 m 0
 113.617128764 475 125 463.617128764 125 450 c 2
 125 75 l 1
 475 75 l 1
 475 225 l 1
 300 225 l 2
 286.382871236 225 275 236.382871236 275 250 c 0
 275 263.617128764 286.382871236 275 300 275 c 2
 475 275 l 1
 475 450 l 2
 475 463.617128764 486.382871236 475 500 475 c 0
 513.617128764 475 525 463.617128764 525 450 c 2
 525 250 l 1
 525 50 l 2
 525 39.2700956673 515.132537856 25 500 25 c 2
 100 25 l 2
 89.2700956673 25 75 34.8674621445 75 50 c 2
 75 450 l 2
 75 463.617128764 86.3828712355 475 100 475 c 0
EndSplineSet
Validated: 1
Ligature2: "Ligature Substitution lookup 193 subtable" p o k a
Ligature2: "Ligature Substitution lookup 124 subtable" p o k a tp_space
Ligature2: "tokiponaWords subtable" percent p o k a space
LCarets2: 5 0 0 0 0 0
EndChar

StartChar: tp_poki
Encoding: 61011 61011 83
Width: 540
VWidth: 0
Flags: W
HStem: 0 21G<69.635 472.566> 512 20G<68.1914 81.8086 458.191 471.809>
VStem: 50 50<50 531.796> 440 50<50 531.796>
LayerCount: 2
Back
SplineSet
75 507 m 5
 75 25 l 5
 465 25 l 5
 465 507 l 1029
EndSplineSet
Fore
SplineSet
75 532 m 0
 88.6171287645 532 100 520.617128764 100 507 c 2
 100 50 l 1
 440 50 l 1
 440 507 l 2
 440 520.617128764 451.382871236 532 465 532 c 0
 478.617128764 532 490 520.617128764 490 507 c 2
 490 25 l 2
 490 14.2700956673 480.132537856 0 465 0 c 2
 75 0 l 2
 64.2700956673 0 50 9.86746214447 50 25 c 2
 50 507 l 2
 50 520.617128764 61.3828712355 532 75 532 c 0
EndSplineSet
Ligature2: "Ligature Substitution lookup 194 subtable" p o k i
Ligature2: "Ligature Substitution lookup 125 subtable" p o k i tp_space
Ligature2: "tokiponaWords subtable" percent p o k i space
LCarets2: 5 0 0 0 0 0
EndChar

StartChar: tp_pona
Encoding: 61012 61012 84
Width: 560
VWidth: 0
Flags: W
HStem: -12 21G<202.002 337.998> 512 20G<68.1914 81.8086 458.191 471.809>
VStem: 50 50<146.471 531.796> 440 50<146.471 531.796>
LayerCount: 2
Back
Refer: 13 60941 N 1 0 0 -1 0 520 2
Fore
SplineSet
75 532 m 0
 88.6171875 532 100 520.6171875 100 507 c 2
 100 260 l 2
 100 121.923828125 169.995117188 38 270 38 c 0
 370.004882812 38 440 121.923828125 440 260 c 2
 440 507 l 2
 440 520.6171875 451.3828125 532 465 532 c 0
 478.6171875 532 490 520.6171875 490 507 c 2
 490 260 l 2
 490 106.076171875 405.995117188 -12 270 -12 c 0
 134.004882812 -12 50 106.076171875 50 260 c 2
 50 507 l 2
 50 520.6171875 61.3828125 532 75 532 c 0
EndSplineSet
Ligature2: "Ligature Substitution lookup 195 subtable" p o n a
Ligature2: "Ligature Substitution lookup 126 subtable" p o n a tp_space
Ligature2: "tokiponaWords subtable" percent p o n a space
LCarets2: 5 0 0 0 0 0
EndChar

StartChar: tp_pu
Encoding: 61013 61013 85
Width: 820
VWidth: 0
Flags: HW
LayerCount: 2
Back
SplineSet
311.772460938 210.55078125 m 29
 311.772460938 210.55078125 315.782226562 120.337890625 408 120.337890625 c 4
 500.217773438 120.337890625 496.208007812 210.55078125 496.208007812 210.55078125 c 1053
  Spiro
    311.773 210.55 {
    316.216 187.202 o
    342.109 143.686 o
    408 120.338 o
    471.815 143.686 o
    493.841 187.202 o
    496.208 210.55 v
    0 0 z
  EndSpiro
614 586 m 29
 560 478 l 1053
408 600 m 29
 410 502 l 1053
194 578 m 5
 248 472 l 1053
207.52734375 200.52734375 m 4
 207.52734375 310.786132812 297.740234375 401 408 401 c 4
 518.260742188 401 608.473632812 310.786132812 608.473632812 200.52734375 c 4
 608.473632812 90.265625 518.260742188 0.0537109375 408 0.0537109375 c 4
 297.740234375 0.0537109375 207.52734375 90.265625 207.52734375 200.52734375 c 4
  Spiro
    207.527 200.527 o
    234.947 301.417 o
    307.111 373.58 o
    408 401 o
    508.89 373.58 o
    581.054 301.417 o
    608.474 200.527 o
    581.054 99.6366 o
    508.89 27.4732 o
    408 0.053269 o
    307.111 27.4732 o
    234.947 99.6366 o
    0 0 z
  EndSpiro
100 700 m 5
 100 -100 l 5
 720 -100 l 5
 720 700 l 5
 100 700 l 5
EndSplineSet
Fore
SplineSet
125 675 m 1
 125 -75 l 1
 695 -75 l 1
 695 675 l 1
 125 675 l 1
75 700 m 2
 75 710.729904333 84.8674621445 725 100 725 c 2
 720 725 l 2
 730.729904333 725 745 715.132537856 745 700 c 2
 745 -100 l 2
 745 -110.729904333 735.132537856 -125 720 -125 c 2
 100 -125 l 2
 89.2700956673 -125 75 -115.132537856 75 -100 c 2
 75 700 l 2
182.52734375 200.52734375 m 0
 182.52734375 324.630272525 283.895969415 426 408 426 c 0
 532.104916491 426 633.473632812 324.630324192 633.473632812 200.52734375 c 0
 633.473632812 76.4214816631 532.104752244 -24.9462890625 408 -24.9462890625 c 0
 283.896125629 -24.9462890625 182.52734375 76.4215413621 182.52734375 200.52734375 c 0
232.52734375 200.52734375 m 0
 232.52734375 104.109708638 311.584343121 25.0537109375 408 25.0537109375 c 0
 504.416732131 25.0537109375 583.473632812 104.109768337 583.473632812 200.52734375 c 0
 583.473632812 296.941941433 504.416567884 376 408 376 c 0
 311.584499335 376 232.52734375 296.9419931 232.52734375 200.52734375 c 0
182.651855465 600.275987421 m 0
 186.198803842 602.082923387 190.017176108 602.936441216 193.799586697 602.936441216 c 0
 202.956044711 602.936441216 211.901757572 597.934595721 216.275987421 589.348144535 c 2
 270.275987421 483.348144535 l 2
 272.082923387 479.801196158 272.936441216 475.982823892 272.936441216 472.200413303 c 0
 272.936441216 463.043955289 267.934595721 454.098242428 259.348144535 449.724012579 c 0
 255.801196158 447.917076613 251.982823892 447.063558784 248.200413303 447.063558784 c 0
 239.043955289 447.063558784 230.098242428 452.065404279 225.724012579 460.651855465 c 2
 171.724012579 566.651855465 l 2
 169.917076613 570.198803842 169.063558784 574.017176108 169.063558784 577.799586697 c 0
 169.063558784 586.956044711 174.065404279 595.901757572 182.651855465 600.275987421 c 0
407.987957398 624.999878808 m 0
 421.386245299 624.999878808 432.720347071 613.958068973 432.994795462 600.510097867 c 2
 434.994795462 502.510097867 l 2
 435.272638195 488.895803937 424.124391796 477.283047272 410.510097867 477.005204538 c 0
 410.343775044 477.001810195 410.17775095 477.000121192 410.012042602 477.000121192 c 0
 396.613754701 477.000121192 385.279652929 488.041931027 385.005204538 501.489902133 c 2
 383.005204538 599.489902133 l 2
 382.725367879 613.201898454 394.025548344 624.999878808 407.987957398 624.999878808 c 0
625.180339887 608.360679775 m 0
 633.858712831 604.021493303 638.93795364 595.020536191 638.93795364 585.798134457 c 0
 638.93795364 582.077497048 638.111258418 578.320817399 636.360679775 574.819660113 c 2
 582.360679775 466.819660113 l 2
 578.021493303 458.141287169 569.020536191 453.06204636 559.798134457 453.06204636 c 0
 556.077497048 453.06204636 552.320817399 453.888741582 548.819660113 455.639320225 c 0
 540.141287169 459.978506697 535.06204636 468.979463809 535.06204636 478.201865543 c 0
 535.06204636 481.922502952 535.888741582 485.679182601 537.639320225 489.180339887 c 2
 591.639320225 597.180339887 l 2
 595.978506697 605.858712831 604.979463809 610.93795364 614.201865543 610.93795364 c 0
 617.922502952 610.93795364 621.679182601 610.111258418 625.180339887 608.360679775 c 0
310.586089957 235.522615862 m 0
 310.974614831 235.541074043 311.360480656 235.550173602 311.743567769 235.550173602 c 0
 325.332189939 235.550173602 335.424588303 224.100947653 336.680134327 212.764605689 c 0
 337.158301571 205.219903828 341.509056458 145.337890625 408 145.337890625 c 0
 473.196258358 145.337890625 471.389298674 203.183266307 471.20220224 210.54922072 c 0
 471.503167626 224.554182821 482.153407864 234.990742071 495.174671036 235.529416423 c 0
 495.53312781 235.544245358 495.890391354 235.551609886 496.246287218 235.551609886 c 0
 508.660478515 235.551609886 521.173239291 225.895317007 521.173239291 210.857433689 c 0
 521.173239291 197.183016653 517.496609201 95.337890625 408 95.337890625 c 0
 293.070843855 95.337890625 286.864783976 208.013754736 286.763340725 210.149026186 c 0
 286.950319141 222.321789029 296.411632206 234.84921058 310.586089957 235.522615862 c 0
EndSplineSet
Validated: 33
Ligature2: "Ligature Substitution lookup 35 subtable" p u
Ligature2: "Ligature Substitution lookup 22 subtable" p u tp_space
Ligature2: "tokiponaWords subtable" percent p u space
EndChar

StartChar: tp_sama
Encoding: 61014 61014 86
Width: 430
VWidth: 0
Flags: W
HStem: 150 50<43.2041 386.796> 320 50<43.2041 386.796>
LayerCount: 2
Back
SplineSet
362 345 m 5
 68 345 l 1029
362 175 m 5
 68 175 l 1029
EndSplineSet
Fore
SplineSet
387 345 m 0
 387 331.382871236 375.617128764 320 362 320 c 2
 68 320 l 2
 54.3828712355 320 43 331.382871236 43 345 c 0
 43 358.617128764 54.3828712355 370 68 370 c 2
 362 370 l 2
 375.617128764 370 387 358.617128764 387 345 c 0
387 175 m 0
 387 161.382871236 375.617128764 150 362 150 c 2
 68 150 l 2
 54.3828712355 150 43 161.382871236 43 175 c 0
 43 188.617128764 54.3828712355 200 68 200 c 2
 362 200 l 2
 375.617128764 200 387 188.617128764 387 175 c 0
EndSplineSet
Ligature2: "Ligature Substitution lookup 196 subtable" s a m a
Ligature2: "Ligature Substitution lookup 127 subtable" s a m a tp_space
Ligature2: "tokiponaWords subtable" percent s a m a space
LCarets2: 5 0 0 0 0 0
EndChar

StartChar: tp_seli
Encoding: 61015 61015 87
Width: 600
VWidth: 0
Flags: W
HStem: 12 78<265.281 334.719>
VStem: 261 78<16.2807 85.7193> 275 50<160.204 359.796>
LayerCount: 2
Back
SplineSet
410 145 m 1
 500 235 l 1025
300 185 m 25
 300 335 l 1025
100 235 m 1
 190 145 l 1025
EndSplineSet
Refer: 153 -1 N 1 0 0 1 300 51 2
Fore
SplineSet
392.322265625 127.322265625 m 0x80
 382.693359375 136.951171875 382.693359375 153.048828125 392.322265625 162.677734375 c 2
 482.322265625 252.677734375 l 2
 491.951171875 262.306640625 508.048828125 262.306640625 517.677734375 252.677734375 c 0
 527.306640625 243.048828125 527.306640625 226.951171875 517.677734375 217.322265625 c 2
 427.677734375 127.322265625 l 2
 418.048828125 117.693359375 401.951171875 117.693359375 392.322265625 127.322265625 c 0x80
300 160 m 0
 286.3828125 160 275 171.3828125 275 185 c 2
 275 335 l 2
 275 348.6171875 286.3828125 360 300 360 c 0
 313.6171875 360 325 348.6171875 325 335 c 2
 325 185 l 2xa0
 325 171.3828125 313.6171875 160 300 160 c 0
82.322265625 252.677734375 m 0
 91.951171875 262.306640625 108.048828125 262.306640625 117.677734375 252.677734375 c 2
 207.677734375 162.677734375 l 2
 217.306640625 153.048828125 217.306640625 136.951171875 207.677734375 127.322265625 c 0
 198.048828125 117.693359375 181.951171875 117.693359375 172.322265625 127.322265625 c 2
 82.322265625 217.322265625 l 2
 72.693359375 226.951171875 72.693359375 243.048828125 82.322265625 252.677734375 c 0
EndSplineSet
Refer: 153 -1 N 1 0 0 1 300 51 2
Ligature2: "Ligature Substitution lookup 197 subtable" s e l i
Ligature2: "Ligature Substitution lookup 128 subtable" s e l i tp_space
Ligature2: "tokiponaWords subtable" percent s e l i space
LCarets2: 5 0 0 0 0 0
EndChar

StartChar: tp_selo
Encoding: 61016 61016 88
Width: 600
VWidth: 0
Flags: HW
LayerCount: 2
Back
SplineSet
370 50 m 5
 370 450 l 1029
230 50 m 5
 230 450 l 1029
100 50 m 5
 100 450 l 5
 500 450 l 5
 500 50 l 1029
EndSplineSet
Fore
SplineSet
100 25 m 0
 86.3828712355 25 75 36.3828712355 75 50 c 2
 75 450 l 2
 75 465.132537856 89.2700956673 475 100 475 c 2
 230 475 l 1
 370 475 l 1
 500 475 l 2
 515.132537856 475 525 460.729904333 525 450 c 2
 525 50 l 2
 525 36.3828712355 513.617128764 25 500 25 c 0
 486.382871236 25 475 36.3828712355 475 50 c 2
 475 425 l 1
 395 425 l 1
 395 50 l 2
 395 36.3828712355 383.617128764 25 370 25 c 0
 356.382871236 25 345 36.3828712355 345 50 c 2
 345 425 l 1
 255 425 l 1
 255 50 l 2
 255 36.3828712355 243.617128764 25 230 25 c 0
 216.382871236 25 205 36.3828712355 205 50 c 2
 205 425 l 1
 125 425 l 1
 125 50 l 2
 125 36.3828712355 113.617128764 25 100 25 c 0
EndSplineSet
Validated: 1
Ligature2: "Ligature Substitution lookup 198 subtable" s e l o
Ligature2: "Ligature Substitution lookup 129 subtable" s e l o tp_space
Ligature2: "tokiponaWords subtable" percent s e l o space
LCarets2: 5 0 0 0 0 0
EndChar

StartChar: tp_seme
Encoding: 61017 61017 89
Width: 417
VWidth: 0
Flags: HW
HStem: -192 50<145.008 244.992> 481 50<128.294 271.673>
VStem: 74 50<-120.992 -20.4271> 170 50<41.4043 211.354> 266 50<-120.788 -20.8027> 323 50<304.917 431.222>
LayerCount: 2
Back
SplineSet
195 228 m 1
 195 205 l 1049
99 109 m 0
 99 162 142 205 195 205 c 0
 248 205 291 162 291 109 c 0
 291 56 248 13 195 13 c 0
 142 13 99 56 99 109 c 0
68 434 m 1
 68 434 112 506 195 506 c 3
 294 506 348 436.028320312 348 366 c 3
 348 241.983398438 195 228 195 228 c 1025
EndSplineSet
Fore
SplineSet
54.9075823128 412.702380436 m 0
 42.8186746801 420.133869557 40.5792240099 435.672143791 46.2909995336 446.423235187 c 0
 48.4342411982 449.909676476 97.1392659225 531 195 531 c 0
 307.497412463 531 373 449.267019948 373 366 c 0
 373 272.486356054 304.651669648 232.249554563 253.027467913 215.19551868 c 1
 290.548394851 194.642779972 316 154.783528654 316 109 c 0
 316 42.1929070993 261.807142702 -12 195 -12 c 0
 128.192907099 -12 74 42.1928572984 74 109 c 0
 74 167.236922446 115.180700957 215.888430149 170 227.412321272 c 1
 170 227.659533016 l 2
 169.85275942 237.007563357 174.862190442 245.563161559 183.26642834 249.998304426 c 0
 185.697015648 251.319098658 188.359680723 252.248239012 191.164739778 252.696033388 c 0
 191.388620706 252.736503761 191.613902151 252.77452744 191.840566072 252.810065185 c 0
 200.285684208 253.635804942 323 269.196553535 323 366 c 0
 323 422.789620677 280.502587537 481 195 481 c 0
 129.288931127 481 91.4804030106 424.373289686 88.7961438053 420.110560019 c 0
 81.946797113 410.393990297 66.9940736167 405.272376719 54.9075823128 412.702380436 c 0
124 109 m 0
 124 69.8071427016 155.807092901 38 195 38 c 0
 234.192857298 38 266 69.8070929007 266 109 c 0
 266 148.192857298 234.192907099 180 195 180 c 0
 155.807142702 180 124 148.192907099 124 109 c 0
EndSplineSet
LCarets2: 5 0 0 0 0 0
Ligature2: "Ligature Substitution lookup 199 subtable" s e m e
Ligature2: "Ligature Substitution lookup 130 subtable" s e m e tp_space
Ligature2: "tokiponaWords subtable" percent s e m e space
EndChar

StartChar: tp_sewi
Encoding: 61018 61018 90
Width: 448
VWidth: 0
Flags: W
HStem: -12 21G<61.1914 95.927 239.739 319.716> 512 20G<361.191 374.809>
VStem: 138.012 49.9414<112.87 236.777> 343 50<63.7239 531.796>
LayerCount: 2
Back
SplineSet
68 13 m 4
 157 13 163 212 163 212 c 5
 163 212 175 13 268 13 c 7
 348 13 368 70.99609375 368 213 c 7
 368 252 368 507 368 507 c 1029
EndSplineSet
Fore
SplineSet
43 13 m 0
 43 26.6171287645 54.3828712355 38 68 38 c 0
 122.0041843 38 137.628222828 200.393713119 138.01200214 212.77457276 c 0
 138.457239076 227.138077605 151.448373383 238.42098465 165.732670616 236.850201434 c 0
 177.90699387 235.511443053 187.248977854 225.041502511 187.953358491 213.526401008 c 0
 188.640513668 202.292898547 208.728239813 38 268 38 c 0
 324.567886096 38 343 68.0779180423 343 213 c 2
 343 507 l 2
 343 520.617128764 354.382871236 532 368 532 c 0
 381.617128764 532 393 520.617128764 393 507 c 2
 393 213 l 2
 393 73.9142694577 371.432113904 -12 268 -12 c 0
 211.47859334 -12 181.687051836 37.122336913 165.258152512 79.7997075717 c 1
 151.333363354 39.4671062271 123.854026389 -12 68 -12 c 0
 54.3828712355 -12 43 -0.617128764476 43 13 c 0
EndSplineSet
LCarets2: 5 0 0 0 0 0
Ligature2: "Ligature Substitution lookup 200 subtable" s e w i
Ligature2: "Ligature Substitution lookup 131 subtable" s e w i tp_space
Ligature2: "tokiponaWords subtable" percent s e w i space
EndChar

StartChar: tp_sijelo
Encoding: 61019 61019 91
Width: 600
VWidth: 0
Flags: HW
LayerCount: 2
Back
SplineSet
300 50 m 5
 300 450 l 1029
100 50 m 5
 100 450 l 5
 500 450 l 5
 500 50 l 1029
EndSplineSet
Fore
SplineSet
100 25 m 0
 86.3828712355 25 75 36.3828712355 75 50 c 2
 75 450 l 2
 75 465.132537856 89.2700956673 475 100 475 c 2
 300 475 l 1
 500 475 l 2
 515.132537856 475 525 460.729904333 525 450 c 2
 525 50 l 2
 525 36.3828712355 513.617128764 25 500 25 c 0
 486.382871236 25 475 36.3828712355 475 50 c 2
 475 425 l 1
 325 425 l 1
 325 50 l 2
 325 36.3828712355 313.617128764 25 300 25 c 0
 286.382871236 25 275 36.3828712355 275 50 c 2
 275 425 l 1
 125 425 l 1
 125 50 l 2
 125 36.3828712355 113.617128764 25 100 25 c 0
EndSplineSet
Validated: 1
Ligature2: "Ligature Substitution lookup 264 subtable" s i j e l o
Ligature2: "Ligature Substitution lookup 253 subtable" s i j e l o tp_space
Ligature2: "tokiponaWords subtable" percent s i j e l o space
LCarets2: 7 0 0 0 0 0 0 0
EndChar

StartChar: tp_sike
Encoding: 61020 61020 92
Width: 560
VWidth: 0
Flags: HW
HStem: 5 50<197.097 362.903> 130 50<230.155 329.845> 320 50<230.155 329.845> 445 50<197.097 362.903>
VStem: 55 50<151.252 348.748> 160 50<200.155 299.845> 350 50<200.155 299.845> 455 50<151.252 348.748>
LayerCount: 2
Back
SplineSet
185 250 m 0
 185 302 228 345 280 345 c 0
 332 345 375 302 375 250 c 0
 375 198 332 155 280 155 c 0
 228 155 185 198 185 250 c 0
EndSplineSet
Refer: 12 60940 N 1 0 0 1 0 0 2
Fore
SplineSet
160 250 m 0
 160 315.890625 214.109375 370 280 370 c 0
 345.890625 370 400 315.890625 400 250 c 0
 400 184.109375 345.890625 130 280 130 c 0
 214.109375 130 160 184.109375 160 250 c 0
210 250 m 0
 210 211.890625 241.890625 180 280 180 c 0
 318.109375 180 350 211.890625 350 250 c 0
 350 288.109375 318.109375 320 280 320 c 0
 241.890625 320 210 288.109375 210 250 c 0
EndSplineSet
Refer: 12 60940 N 1 0 0 1 0 0 2
Ligature2: "Ligature Substitution lookup 201 subtable" s i k e
Ligature2: "Ligature Substitution lookup 132 subtable" s i k e tp_space
Ligature2: "tokiponaWords subtable" percent s i k e space
LCarets2: 5 0 0 0 0 0
EndChar

StartChar: tp_sin
Encoding: 61021 61021 93
Width: 600
VWidth: 0
Flags: HW
LayerCount: 2
Back
SplineSet
300 300 m 5
 300 400 l 1029
400 190 m 5
 500 190 l 1029
100 190 m 5
 200 190 l 1029
EndSplineSet
Fore
SplineSet
75 190 m 0
 75 203.617128764 86.3828712355 215 100 215 c 2
 200 215 l 2
 213.617128764 215 225 203.617128764 225 190 c 0
 225 176.382871236 213.617128764 165 200 165 c 2
 100 165 l 2
 86.3828712355 165 75 176.382871236 75 190 c 0
375 190 m 0
 375 203.617128764 386.382871236 215 400 215 c 2
 500 215 l 2
 513.617128764 215 525 203.617128764 525 190 c 0
 525 176.382871236 513.617128764 165 500 165 c 2
 400 165 l 2
 386.382871236 165 375 176.382871236 375 190 c 0
300 275 m 0
 286.382871236 275 275 286.382871236 275 300 c 2
 275 400 l 2
 275 413.617128764 286.382871236 425 300 425 c 0
 313.617128764 425 325 413.617128764 325 400 c 2
 325 300 l 2
 325 286.382871236 313.617128764 275 300 275 c 0
EndSplineSet
Validated: 1
Ligature2: "Ligature Substitution lookup 77 subtable" s i n
Ligature2: "Ligature Substitution lookup 55 subtable" s i n tp_space
Ligature2: "tokiponaWords subtable" percent s i n space
EndChar

StartChar: tp_sina
Encoding: 61022 61022 94
Width: 540
VWidth: 0
Flags: W
HStem: 38 21G<225.667 329.29> 482 50<194.608 360.305>
VStem: 50 50<147.77 372.236 625 649.796> 452 50<144.55 375.45>
LayerCount: 2
Back
Refer: 52 60980 S 1 0 0 -1 0 520 2
Fore
SplineSet
50 260 m 1
 50 105.077148438 140.665039062 -12 276 -12 c 0
 417.420898438 -12 502 105.705078125 502 260 c 0
 502 414.294921875 417.421875 532 276 532 c 0
 201.009765625 532 139.734375 496.056640625 100 437.643554688 c 1
 100 625 l 2
 100 638.6171875 88.6171875 650 75 650 c 0
 61.3828125 650 50 638.6171875 50 625 c 2
 50 260 l 1
100 260 m 0
 100 397.08984375 175.333984375 482 276 482 c 0
 382.578125 482 452 397.705078125 452 260 c 0
 452 122.294921875 382.579101562 38 276 38 c 0
 175.334960938 38 100 122.922851562 100 260 c 0
EndSplineSet
Ligature2: "Ligature Substitution lookup 202 subtable" s i n a
Ligature2: "Ligature Substitution lookup 133 subtable" s i n a tp_space
Ligature2: "tokiponaWords subtable" percent s i n a space
LCarets2: 5 0 0 0 0 0
EndChar

StartChar: tp_sinpin
Encoding: 61023 61023 95
Width: 480
VWidth: 0
Flags: HW
HStem: 25 50<55.2041 355> 225 50<205.204 355> 425 50<55.2041 355>
VStem: 355 50<75 225 275 425>
CounterMasks: 1 e0
LayerCount: 2
Back
SplineSet
230 250 m 1
 380 250 l 1025
80 450 m 1
 380 450 l 1
 380 50 l 1
 80 50 l 1025
EndSplineSet
Fore
SplineSet
55 450 m 0
 55 463.6171875 66.3828125 475 80 475 c 2
 380 475 l 2
 395.1328125 475 405 460.729492188 405 450 c 2
 405 250 l 1
 405 50 l 2
 405 34.8671875 390.729492188 25 380 25 c 2
 80 25 l 2
 66.3828125 25 55 36.3828125 55 50 c 0
 55 63.6171875 66.3828125 75 80 75 c 2
 355 75 l 1
 355 225 l 1
 230 225 l 2
 216.3828125 225 205 236.3828125 205 250 c 0
 205 263.6171875 216.3828125 275 230 275 c 2
 355 275 l 1
 355 425 l 1
 80 425 l 2
 66.3828125 425 55 436.3828125 55 450 c 0
EndSplineSet
Validated: 1
Ligature2: "Ligature Substitution lookup 265 subtable" s i n p i n
Ligature2: "Ligature Substitution lookup 254 subtable" s i n p i n tp_space
Ligature2: "tokiponaWords subtable" percent s i n p i n space
LCarets2: 7 0 0 0 0 0 0 0
EndChar

StartChar: tp_sitelen
Encoding: 61024 61024 96
Width: 600
VWidth: 0
Flags: W
HStem: 25 50<125 475> 212 78<266.281 335.719> 425 50<125 475>
VStem: 75 50<75 425> 262 78<216.281 285.719> 475 50<75 425>
LayerCount: 2
Back
SplineSet
100 450 m 1
 100 50 l 1
 500 50 l 1
 500 450 l 1
 100 450 l 1
EndSplineSet
Refer: 153 -1 S 1 0 0 1 301 251 2
Fore
SplineSet
75 450 m 2
 75 460.729904333 84.8674621445 475 100 475 c 2
 500 475 l 2
 510.729904333 475 525 465.132537856 525 450 c 2
 525 50 l 2
 525 39.2700956673 515.132537856 25 500 25 c 2
 100 25 l 2
 89.2700956673 25 75 34.8674621445 75 50 c 2
 75 450 l 2
125 425 m 1
 125 75 l 1
 475 75 l 1
 475 425 l 1
 125 425 l 1
EndSplineSet
Refer: 153 -1 N 1 0 0 1 301 251 2
Ligature2: "Ligature Substitution lookup 274 subtable" s i t e l e n
Ligature2: "Ligature Substitution lookup 270 subtable" s i t e l e n tp_space
Ligature2: "tokiponaWords subtable" percent s i t e l e n space
LCarets2: 8 0 0 0 0 0 0 0 0
EndChar

StartChar: tp_sona
Encoding: 61025 61025 97
Width: 550
VWidth: 0
Flags: W
HStem: 0 21G<74.635 477.566> 470 50<105 445>
VStem: 55 50<50 470> 250 50<542.204 727.796> 445 50<50 470>
CounterMasks: 1 38
AnchorPoint: "Small" 275 260 basechar 0
LayerCount: 2
Back
SplineSet
399 577 m 29
 460 673 l 1029
275 567 m 5
 275 703 l 1029
79 673 m 5
 151 577 l 1029
80 25 m 5
 470 25 l 5
 470 495 l 5
 80 495 l 5
 80 25 l 5
EndSplineSet
Fore
SplineSet
385.592337953 555.899417107 m 0
 374.099163783 563.202371528 370.596462686 578.914487876 377.899417107 590.407662047 c 2
 438.899417107 686.407662047 l 2
 446.202371528 697.900836217 461.914487876 701.403537314 473.407662047 694.100582893 c 0
 484.900836217 686.797628472 488.403537314 671.085512124 481.100582893 659.592337953 c 2
 420.100582893 563.592337953 l 2
 412.797628472 552.099163783 397.085512124 548.596462686 385.592337953 555.899417107 c 0
275 542 m 0
 261.382871236 542 250 553.382871236 250 567 c 2
 250 703 l 2
 250 716.617128764 261.382871236 728 275 728 c 0
 288.617128764 728 300 716.617128764 300 703 c 2
 300 567 l 2
 300 553.382871236 288.617128764 542 275 542 c 0
64 693 m 0
 74.8937030116 701.170277259 90.8297227413 698.893703012 99 688 c 2
 171 592 l 2
 179.170277259 581.106296988 176.893703012 565.170277259 166 557 c 0
 155.106296988 548.829722741 139.170277259 551.106296988 131 562 c 2
 59 658 l 2
 50.8297227413 668.893703012 53.1062969884 684.829722741 64 693 c 0
80 0 m 2
 69.2700956673 0 55 9.86746214447 55 25 c 2
 55 495 l 2
 55 505.729904333 64.8674621445 520 80 520 c 2
 470 520 l 2
 480.729904333 520 495 510.132537856 495 495 c 2
 495 25 l 2
 495 14.2700956673 485.132537856 0 470 0 c 2
 80 0 l 2
105 50 m 1
 445 50 l 1
 445 470 l 1
 105 470 l 1
 105 50 l 1
EndSplineSet
Ligature2: "Ligature Substitution lookup 203 subtable" s o n a
Ligature2: "Ligature Substitution lookup 134 subtable" s o n a tp_space
Ligature2: "tokiponaWords subtable" percent s o n a space
LCarets2: 5 0 0 0 0 0
EndChar

StartChar: tp_soweli
Encoding: 61026 61026 98
Width: 550
VWidth: 0
Flags: W
HStem: 221 78<125.281 194.719 297.281 366.719> 470 50<43.2041 364.567>
VStem: 121 78<225.281 294.719> 250 50<-148.796 -8.32321> 293 78<225.281 294.719> 457 50<147.06 370.647>
LayerCount: 2
Back
SplineSet
68 495 m 5
 275 495 l 7
 399 495 482 406 482 260 c 7
 482 114 399 12.7383958513 275 13 c 5
 275 -124 l 1029
EndSplineSet
Refer: 153 -1 S 1 0 0 1 332 260 2
Refer: 153 -1 S 1 0 0 1 160 260 2
Fore
SplineSet
43 495 m 0xf4
 43 508.617128764 54.3828712355 520 68 520 c 2
 275 520 l 2
 414.043869345 520 507 416.491639589 507 260 c 0
 507 113.799213651 426.150870003 2.06804172925 300 -10.7743997419 c 1
 300 -124 l 2
 300 -137.617128764 288.617128764 -149 275 -149 c 0
 261.382871236 -149 250 -137.617128764 250 -124 c 2
 250 13 l 2
 250 23.8274837157 259.937310784 38.0318335552 275.052742655 37.9999443642 c 0
 382.19334637 37.7739086672 457 123.240103184 457 260 c 0
 457 395.508360411 383.956130655 470 275 470 c 2
 68 470 l 2
 54.3828712355 470 43 481.382871236 43 495 c 0xf4
EndSplineSet
Refer: 153 -1 N 1 0 0 1 332 260 2
Refer: 153 -1 N 1 0 0 1 160 260 2
Ligature2: "Ligature Substitution lookup 266 subtable" s o w e l i
Ligature2: "Ligature Substitution lookup 255 subtable" s o w e l i tp_space
Ligature2: "tokiponaWords subtable" percent s o w e l i space
LCarets2: 7 0 0 0 0 0 0 0
EndChar

StartChar: tp_suli
Encoding: 61027 61027 99
Width: 540
VWidth: 0
Flags: W
HStem: 470 50<100.944 439.056>
LayerCount: 2
Back
SplineSet
63 495 m 5
 270 13 l 5
 477 495 l 5
 63 495 l 5
EndSplineSet
Fore
SplineSet
40.0287759573 485.134764778 m 2
 39.6644456988 485.983108665 38.2816428621 490.43906844 38.0770627014 493.038572864 c 0
 36.9496026972 507.364679847 48.6295961308 520 63 520 c 2
 477 520 l 2
 477.923268048 520 482.56328907 519.512223298 485.032570267 518.674412662 c 0
 498.64100512 514.057161508 505.641920619 498.338995453 499.971224043 485.134764778 c 2
 292.971224043 3.13476477833 l 2
 290.850304977 -1.80380038976 286.70797996 -6.4594487489 281.637080842 -9.12641745686 c 0
 268.918458641 -15.8155995192 252.699472533 -10.0694658962 247.028775957 3.13476477833 c 2
 40.0287759573 485.134764778 l 2
100.944468215 470 m 1
 270 76.3537858912 l 1
 439.055531785 470 l 1
 100.944468215 470 l 1
EndSplineSet
Ligature2: "Ligature Substitution lookup 204 subtable" s u l i
Ligature2: "Ligature Substitution lookup 135 subtable" s u l i tp_space
Ligature2: "tokiponaWords subtable" percent s u l i space
LCarets2: 5 0 0 0 0 0
EndChar

StartChar: tp_suno
Encoding: 61028 61028 100
Width: 550
VWidth: 0
Flags: W
HStem: 235 50<43.2041 158.38 391.62 506.796>
VStem: 250 50<35.2041 143.38 376.62 484.796>
LayerCount: 2
Back
SplineSet
68 260 m 5
 175 260 l 1053
482 260 m 5
 375 260 l 1029
175 260 m 4
 175 315 220 360 275 360 c 4
 330 360 375 315 375 260 c 4
 375 205 330 160 275 160 c 4
 220 160 175 205 175 260 c 4
275 60 m 29
 275 160 l 1053
275 460 m 29
 275 360 l 1053
EndSplineSet
Fore
SplineSet
275 485 m 0
 288.617128764 485 300 473.617128764 300 460 c 2
 300 382.480667684 l 1
 348.855054932 372.495652498 387.495643448 333.855238599 397.480674931 285 c 1
 482 285 l 2
 495.617128764 285 507 273.617128764 507 260 c 0
 507 246.382871236 495.617128764 235 482 235 c 2
 397.480667684 235 l 1
 387.495652498 186.144945068 348.855238599 147.504356552 300 137.519325069 c 1
 300 60 l 2
 300 46.3828712355 288.617128764 35 275 35 c 0
 261.382871236 35 250 46.3828712355 250 60 c 2
 250 137.519332316 l 1
 201.144945068 147.504347502 162.504356552 186.144761401 152.519325069 235 c 1
 68 235 l 2
 54.3828712355 235 43 246.382871236 43 260 c 0
 43 273.617128764 54.3828712355 285 68 285 c 2
 152.519332316 285 l 1
 162.504347502 333.855054932 201.144761401 372.495643448 250 382.480674931 c 1
 250 460 l 2
 250 473.617128764 261.382871236 485 275 485 c 0
275 335 m 0
 233.84455479 335 200 301.155851107 200 260 c 0
 200 218.84455479 233.844148893 185 275 185 c 0
 316.15544521 185 350 218.844148893 350 260 c 0
 350 301.15544521 316.155851107 335 275 335 c 0
EndSplineSet
Ligature2: "Ligature Substitution lookup 205 subtable" s u n o
Ligature2: "Ligature Substitution lookup 136 subtable" s u n o tp_space
Ligature2: "tokiponaWords subtable" percent s u n o space
LCarets2: 5 0 0 0 0 0
EndChar

StartChar: tp_supa
Encoding: 61029 61029 101
Width: 600
VWidth: 0
Flags: W
HStem: 75 21G<223.191 236.809 373.191 386.809> 300 50<75.2041 205 255 355 405 524.796>
VStem: 205 50<75.2041 300> 355 50<75.2041 300>
LayerCount: 2
Back
SplineSet
500 325 m 5
 100 325 l 1029
380 325 m 5
 380 100 l 1029
230 100 m 5
 230 325 l 1029
EndSplineSet
Fore
SplineSet
230 75 m 0
 216.382871236 75 205 86.3828712355 205 100 c 2
 205 300 l 1
 100 300 l 2
 86.3828712355 300 75 311.382871236 75 325 c 0
 75 338.617128764 86.3828712355 350 100 350 c 2
 230 350 l 1
 380 350 l 1
 500 350 l 2
 513.617128764 350 525 338.617128764 525 325 c 0
 525 311.382871236 513.617128764 300 500 300 c 2
 405 300 l 1
 405 100 l 2
 405 86.3828712355 393.617128764 75 380 75 c 0
 366.382871236 75 355 86.3828712355 355 100 c 2
 355 300 l 1
 255 300 l 1
 255 100 l 2
 255 86.3828712355 243.617128764 75 230 75 c 0
EndSplineSet
Ligature2: "Ligature Substitution lookup 206 subtable" s u p a
Ligature2: "Ligature Substitution lookup 137 subtable" s u p a tp_space
Ligature2: "tokiponaWords subtable" percent s u p a space
LCarets2: 5 0 0 0 0 0
EndChar

StartChar: tp_suwi
Encoding: 61030 61030 102
Width: 600
VWidth: 0
Flags: W
HStem: 97 78<265.281 334.719>
VStem: 261 78<101.281 170.719>
LayerCount: 2
Back
SplineSet
360 288 m 1
 440 408 l 1
 520 288 l 1025
80 288 m 1
 160 408 l 1
 240 288 l 1025
EndSplineSet
Refer: 153 -1 S 1 0 0 1 300 136 2
Fore
SplineSet
346.132495094 267.198742642 m 0
 334.802359098 274.752166639 331.645318644 290.537368909 339.198742642 301.867504906 c 2
 419.198742642 421.867504906 l 2
 427.170008488 433.824403675 444.162124989 436.533931081 455.456764236 427.649133298 c 0
 457.766263099 425.832392636 460.801257358 421.867504906 460.801257358 421.867504906 c 1
 540.801257358 301.867504906 l 2
 548.354681356 290.537368909 545.197640902 274.752166639 533.867504906 267.198742642 c 0
 522.537368909 259.645318644 506.752166639 262.802359098 499.198742642 274.132495094 c 2
 440 362.930609057 l 1
 380.801257358 274.132495094 l 2
 373.247833361 262.802359098 357.462631091 259.645318644 346.132495094 267.198742642 c 0
66.1324950944 267.198742642 m 0
 54.8023590979 274.752166639 51.6453186439 290.537368909 59.1987426416 301.867504906 c 2
 139.198742642 421.867504906 l 2
 147.170008488 433.824403675 164.162124989 436.533931081 175.456764236 427.649133298 c 0
 177.766263099 425.832392636 180.801257358 421.867504906 180.801257358 421.867504906 c 1
 260.801257358 301.867504906 l 2
 268.354681356 290.537368909 265.197640902 274.752166639 253.867504906 267.198742642 c 0
 242.537368909 259.645318644 226.752166639 262.802359098 219.198742642 274.132495094 c 2
 160 362.930609057 l 1
 100.801257358 274.132495094 l 2
 93.2478333608 262.802359098 77.4626310909 259.645318644 66.1324950944 267.198742642 c 0
EndSplineSet
Refer: 153 -1 N 1 0 0 1 300 136 2
Ligature2: "Ligature Substitution lookup 207 subtable" s u w i
Ligature2: "Ligature Substitution lookup 138 subtable" s u w i tp_space
Ligature2: "tokiponaWords subtable" percent s u w i space
LCarets2: 5 0 0 0 0 0
EndChar

StartChar: tp_tan
Encoding: 61031 61031 103
Width: 550
VWidth: 0
Flags: W
HStem: 482 50<307.363 392.585>
VStem: 445 49.9985<235.247 395.585>
LayerCount: 2
Back
SplineSet
334 110 m 5
 167 13 l 1029
68 165 m 5
 167 13 l 5
 198 128 194 507 354 507 c 7
 470.619037897 507 470 260 470 260 c 1029
EndSplineSet
Fore
SplineSet
54.3559200459 185.948486394 m 0
 65.7662495119 193.380214138 81.5167586499 190.05440942 88.9484863942 178.644079954 c 2
 153.822722892 79.0391915945 l 1
 173.398005906 217.292846781 183.536026633 532 354 532 c 0
 505.900820443 532 494.998549174 259.169437021 494.998549174 259.169437021 c 1
 494.064677468 244.739864255 482.991919602 234.976609184 469.955067458 235.000040379 c 0
 456.337960687 235.024514467 444.97556629 246.427825772 445.000040379 260.044932542 c 0
 445.022431842 272.503289875 435.321988953 482 354 482 c 0
 242.226449735 482 229.639879628 218.935783307 202.94862374 62.7915511071 c 1
 321.443489313 131.617910152 l 2
 333.218443959 138.457255067 348.778565238 134.331465334 355.617910152 122.556510687 c 0
 362.457255067 110.781556041 358.331465334 95.221434762 346.556510687 88.3820898476 c 2
 179.556510687 -8.61791015243 l 2
 172.569124046 -12.676452094 164.248842009 -12.8737697108 157.208926912 -9.90277398986 c 0
 152.777680317 -8.04713508293 148.838725832 -4.9234353295 146.051513606 -0.644079954092 c 2
 47.0515136058 151.355920046 l 2
 39.6197858615 162.766249512 42.9455905799 178.51675865 54.3559200459 185.948486394 c 0
EndSplineSet
LCarets2: 4 0 0 0 0
Ligature2: "Ligature Substitution lookup 78 subtable" t a n
Ligature2: "Ligature Substitution lookup 56 subtable" t a n tp_space
Ligature2: "tokiponaWords subtable" percent t a n space
EndChar

StartChar: tp_taso
Encoding: 61032 61032 104
Width: 355
VWidth: 0
Flags: W
HStem: -12 21G<268.191 281.809> 235 50<43.2041 250> 512 20G<268.191 281.809>
VStem: 250 50<-11.7959 235 285 531.796>
LayerCount: 2
Back
SplineSet
275 507 m 5
 275 13 l 1029
68 260 m 5
 275 260 l 1029
EndSplineSet
Fore
SplineSet
43 260 m 0
 43 273.617128764 54.3828712355 285 68 285 c 2
 250 285 l 1
 250 507 l 2
 250 520.617128764 261.382871236 532 275 532 c 0
 288.617128764 532 300 520.617128764 300 507 c 2
 300 260 l 1
 300 13 l 2
 300 -0.617128764476 288.617128764 -12 275 -12 c 0
 261.382871236 -12 250 -0.617128764476 250 13 c 2
 250 235 l 1
 68 235 l 2
 54.3828712355 235 43 246.382871236 43 260 c 0
EndSplineSet
Ligature2: "Ligature Substitution lookup 208 subtable" t a s o
Ligature2: "Ligature Substitution lookup 139 subtable" t a s o tp_space
Ligature2: "tokiponaWords subtable" percent t a s o space
LCarets2: 5 0 0 0 0 0
EndChar

StartChar: tp_tawa
Encoding: 61033 61033 105
Width: 540
VWidth: 0
Flags: W
HStem: 0 21G<55.8148 276.809>
LayerCount: 2
Back
SplineSet
270 25 m 5
 63 25 l 5
 270 507 l 5
 477 13 l 1029
EndSplineSet
Fore
SplineSet
295 25 m 0
 295 11.3828712355 283.617128764 0 270 0 c 2
 63 0 l 2
 48.6295961308 0 36.9496026972 12.6353201526 38.0770627014 26.9614271361 c 0
 38.2855909066 29.6110975152 40.0287759573 34.8652352217 40.0287759573 34.8652352217 c 1
 247.028775957 516.865235222 l 2
 252.699472533 530.069465896 268.918458641 535.815599519 281.637080842 529.126417457 c 0
 286.817246781 526.401981387 291.081854023 521.376694657 293.057543513 516.661764184 c 2
 500.057543513 22.6617641845 l 2
 505.320162992 10.1026626243 499.220865745 -4.79492403307 486.661764184 -10.0575435128 c 0
 474.102662624 -15.3201629925 459.205075967 -9.22086574473 453.942456487 3.3382358155 c 2
 269.717030736 442.987319493 l 1
 100.944468215 50 l 1
 270 50 l 2
 283.617128764 50 295 38.6171287645 295 25 c 0
EndSplineSet
Ligature2: "Ligature Substitution lookup 209 subtable" t a w a
Ligature2: "Ligature Substitution lookup 140 subtable" t a w a tp_space
Ligature2: "tokiponaWords subtable" percent t a w a space
LCarets2: 5 0 0 0 0 0
EndChar

StartChar: tp_telo
Encoding: 61034 61034 106
Width: 600
VWidth: 0
Flags: W
HStem: 25 50<359.781 442.71> 25 21G<92.8915 106.8> 175 50<157.367 239.788> 275 50<359.781 442.71> 425 50<157.367 239.788>
VStem: 74.9989 50.0011<25.2157 49.2508 275.218 299.251> 475 50.0011<200.749 224.741 450.749 474.741>
LayerCount: 2
Back
SplineSet
100 300 m 29
 100 300 100 450 200 450 c 7
 250 450 300 375 300 375 c 5
 300 375 350 300 400 300 c 7
 500 300 500 450 500 450 c 1029
100 50 m 25
 100 50 100 200 200 200 c 3
 250 200 300 125 300 125 c 1
 300 125 350 50 400 50 c 3
 500 50 500 200 500 200 c 1025
EndSplineSet
Fore
SplineSet
74.998878849 49.2507998539 m 1x7e
 74.998878849 49.2507998539 69.5986837141 225 200 225 c 0
 271.06499214 225 320.785880076 138.890544577 320.785880076 138.890544577 c 2
 323.320137516 135.117526971 370.756530594 75 400 75 c 0
 468.422232244 75 474.955295616 189.882482852 475.000026485 200.036390063 c 0
 475.019830354 213.641647814 486.399433109 224.9999994 500.000825349 224.9999994 c 0
 500.036390063 224.999973515 l 0
 513.073250191 224.980997009 524.114187772 215.181808731 525.001121151 200.749200146 c 1
 525.001121151 200.749200146 530.913258848 25 400 25 c 0xbe
 329.979107023 25 279.230838165 111.084448972 279.230838165 111.084448972 c 2
 277.354033158 113.878647473 229.529720891 175 200 175 c 0
 131.599371032 175 125.029600605 60.0960747921 124.999973515 49.9636099367 c 0
 124.980169646 36.358352186 113.600566891 25.0000006 99.9991746508 25.0000006 c 0
 85.7838501693 25.0000006 75.7460023426 37.0932452866 74.998878849 49.2507998539 c 1x7e
74.998878849 299.250799854 m 1
 74.998878849 299.250799854 69.5986837141 475 200 475 c 0
 271.06499214 475 320.785880076 388.890544577 320.785880076 388.890544577 c 2
 323.320137516 385.117526971 370.756530594 325 400 325 c 0
 468.422232244 325 474.955295616 439.882482852 475.000026485 450.036390063 c 0
 475.019830354 463.641647814 486.399433109 474.9999994 500.000825349 474.9999994 c 0
 500.036390063 474.999973515 l 0
 513.073250191 474.980997009 524.114187772 465.181808731 525.001121151 450.749200146 c 1
 525.001121151 450.749200146 530.913258848 275 400 275 c 0
 329.979107023 275 279.230838165 361.084448972 279.230838165 361.084448972 c 2
 277.354033158 363.878647473 229.529720891 425 200 425 c 0
 131.599371032 425 125.029600605 310.096074792 124.999973515 299.963609937 c 0
 124.980169646 286.358352186 113.600566891 275.0000006 99.9991746507 275.0000006 c 0
 85.7834919489 275.010347067 75.7464832202 287.085420213 74.998878849 299.250799854 c 1
EndSplineSet
Validated: 33
LCarets2: 5 0 0 0 0 0
Ligature2: "Ligature Substitution lookup 210 subtable" t e l o
Ligature2: "Ligature Substitution lookup 141 subtable" t e l o tp_space
Ligature2: "tokiponaWords subtable" percent t e l o space
EndChar

StartChar: tp_tenpo
Encoding: 61035 61035 107
Width: 560
VWidth: 0
Flags: HW
HStem: -12 21G<195.016 344.987> 235 50<295 451.352> 480.807 51.1926<175.928 245 295 364.07>
VStem: 38 50<137.145 383.597> 245 50<285 480.807> 451.352 50.6476<135.848 235 285 384.152>
LayerCount: 2
Back
SplineSet
465 260 m 5
 270 260 l 5
 270 495 l 1029
EndSplineSet
Refer: 12 60940 S 1 0 0 1 0 0 2
Fore
SplineSet
295 285 m 1
 451.352431377 285 l 1
 444.91532624 405.751290774 390.632667851 471.355982576 295 480.807471026 c 1
 295 285 l 1
245 260 m 2
 245 480.807376461 l 1
 142.967906801 470.722660165 88 396.71342652 88 260 c 0
 88 112.51171875 151.96875 38 270 38 c 0
 381.159068441 38 444.373406602 104.093354332 451.352383404 235 c 1
 270 235 l 2
 254.867462144 235 245 249.270095667 245 260 c 2
270 -12 m 0
 120.03125 -12 38 95.48828125 38 260 c 0
 38 424.510742188 120.025390625 532 270 532 c 0
 419.96875 532 502 424.51171875 502 260 c 0
 502 95.4892578125 419.974609375 -12 270 -12 c 0
EndSplineSet
Ligature2: "Ligature Substitution lookup 243 subtable" t e n p o
Ligature2: "Ligature Substitution lookup 230 subtable" t e n p o tp_space
Ligature2: "tokiponaWords subtable" percent t e n p o space
LCarets2: 6 0 0 0 0 0 0
EndChar

StartChar: tp_toki
Encoding: 61036 61036 108
Width: 550
VWidth: 0
Flags: W
HStem: -12 21G<204.613 345.388> 482 50<189.678 360.322> 553.062 21G<142.59 149.062 395.854 402.32>
VStem: 43 50<146.908 373.092> 247 50<580.204 754.796> 457 50<146.908 373.092>
LayerCount: 2
Back
SplineSet
483 686 m 1
 400 576 l 1049
272 730 m 25
 272 605 l 1024
79 686 m 1
 148 576 l 1049
EndSplineSet
Refer: 12 60940 N 1 0 0 1 0 0 2
Fore
SplineSet
67.8193359375 708.360351562 m 0
 71.3212890625 710.111328125 75.0771484375 710.9375 78.7978515625 710.9375 c 0
 88.0205078125 710.9375 97.021484375 705.858398438 101.360351562 697.180664062 c 2
 169.360351562 589.180664062 l 2
 171.111328125 585.6796875 171.9375 581.921875 171.9375 578.201171875 c 0
 171.9375 568.979492188 166.859375 559.978515625 158.180664062 555.639648438 c 0
 154.6796875 553.888671875 150.921875 553.0625 147.201171875 553.0625 c 0
 137.979492188 553.0625 128.978515625 558.140625 124.639648438 566.819335938 c 2
 56.6396484375 674.819335938 l 2
 54.888671875 678.321289062 54.0625 682.077148438 54.0625 685.797851562 c 0
 54.0625 695.020507812 59.1416015625 704.021484375 67.8193359375 708.360351562 c 0
272 755 m 0
 285.6171875 755 297 743.6171875 297 730 c 2
 297 605 l 2
 297 591.3828125 285.6171875 580 272 580 c 0
 258.3828125 580 247 591.3828125 247 605 c 2
 247 730 l 2
 247 743.6171875 258.3828125 755 272 755 c 0
494.65625 708.116210938 m 0
 503.072265625 703.680664062 507.93359375 694.837890625 507.93359375 685.802734375 c 0
 507.93359375 681.90625 507.029296875 677.973632812 505.116210938 674.34375 c 2
 420.116210938 562.34375 l 2
 415.680664062 553.927734375 406.837890625 549.06640625 397.802734375 549.06640625 c 0
 393.90625 549.06640625 389.973632812 549.970703125 386.34375 551.883789062 c 0
 377.927734375 556.319335938 373.06640625 565.162109375 373.06640625 574.197265625 c 0
 373.06640625 578.09375 373.970703125 582.026367188 375.883789062 585.65625 c 2
 460.883789062 697.65625 l 2
 465.319335938 706.072265625 474.162109375 710.93359375 483.197265625 710.93359375 c 0
 487.09375 710.93359375 491.026367188 710.029296875 494.65625 708.116210938 c 0
EndSplineSet
Refer: 12 60940 N 1 0 0 1 0 0 2
Ligature2: "Ligature Substitution lookup 211 subtable" t o k i
Ligature2: "Ligature Substitution lookup 142 subtable" t o k i tp_space
Ligature2: "tokiponaWords subtable" percent t o k i space
LCarets2: 5 0 0 0 0 0
EndChar

StartChar: tp_tomo
Encoding: 61037 61037 109
Width: 550
VWidth: 0
Flags: W
HStem: 0 21G<72.4336 475.365>
VStem: 55 50<50 251.321> 445 50<50 251.321>
LayerCount: 2
Back
SplineSet
80 25 m 1
 80 260 l 1
 275 507 l 1
 470 260 l 1
 470 25 l 1
 80 25 l 1
EndSplineSet
Fore
SplineSet
105 50 m 1
 445 50 l 1
 445 251.321289062 l 1
 275 466.654296875 l 1
 105 251.321289062 l 1
 105 50 l 1
55 25 m 2
 55 260 l 2
 55 265.638671875 57.248046875 271.526367188 60.3779296875 275.491210938 c 2
 255.377929688 522.491210938 l 2
 265.250976562 534.997070312 284.802734375 534.928710938 294.622070312 522.491210938 c 2
 489.622070312 275.491210938 l 2
 493.116210938 271.065429688 495 265.05078125 495 260 c 2
 495 25 l 2
 495 9.8671875 480.729492188 0 470 0 c 2
 80 0 l 2
 64.8671875 0 55 14.2705078125 55 25 c 2
EndSplineSet
Ligature2: "Ligature Substitution lookup 212 subtable" t o m o
Ligature2: "Ligature Substitution lookup 143 subtable" t o m o tp_space
Ligature2: "tokiponaWords subtable" percent t o m o space
LCarets2: 5 0 0 0 0 0
EndChar

StartChar: tp_tu
Encoding: 61038 61038 110
Width: 310
VWidth: 0
Flags: W
HStem: -12 21G<73.1914 86.8086 223.191 236.809> 512 20G<73.1914 86.8086 223.191 236.809>
VStem: 55 50<-11.7959 531.796> 205 50<-11.7959 531.796>
LayerCount: 2
Back
SplineSet
230 507 m 1
 230 13 l 1025
80 507 m 1
 80 13 l 1025
EndSplineSet
Fore
SplineSet
230 532 m 0
 243.6171875 532 255 520.6171875 255 507 c 2
 255 13 l 2
 255 -0.6171875 243.6171875 -12 230 -12 c 0
 216.3828125 -12 205 -0.6171875 205 13 c 2
 205 507 l 2
 205 520.6171875 216.3828125 532 230 532 c 0
80 532 m 0
 93.6171875 532 105 520.6171875 105 507 c 2
 105 13 l 2
 105 -0.6171875 93.6171875 -12 80 -12 c 0
 66.3828125 -12 55 -0.6171875 55 13 c 2
 55 507 l 2
 55 520.6171875 66.3828125 532 80 532 c 0
EndSplineSet
Ligature2: "Ligature Substitution lookup 36 subtable" t u
Ligature2: "Ligature Substitution lookup 23 subtable" t u tp_space
Ligature2: "tokiponaWords subtable" percent t u space
LCarets2: 3 0 0 0
EndChar

StartChar: tp_unpa
Encoding: 61039 61039 111
Width: 600
VWidth: 0
Flags: HW
LayerCount: 2
Back
SplineSet
100 325 m 7
 100 247 200 190 300 190 c 7
 400 190 500 246 500 325 c 7
 500 402 456 450 394 450 c 7
 338 450 198 346.012695312 198 192 c 7
 198 49.873046875 268 50 300 50 c 7
 332 50 400 49.78125 400 196 c 7
 400 346.013671875 254 450 202 450 c 7
 132 450 100 398 100 325 c 7
EndSplineSet
Fore
SplineSet
259.545117312 398.815176824 m 1
 233.306605433 417.021055697 209.325239282 425 202 425 c 0
 149.743273895 425 125 391.202692882 125 325 c 0
 125 296.80267459 143.674566022 269.148184138 178.631282772 247.640855997 c 1
 191.256113129 309.246118952 223.487010615 360.793210913 259.545117312 398.815176824 c 1
372.827346028 225.8395913 m 1
 364.594021562 282.071854452 333.580264518 330.977704486 297.912669228 366.578399971 c 1
 263.864171381 331.540482382 234.360634571 283.156525067 225.626373967 226.4863552 c 1
 249.022434903 219.099536378 274.654999119 215 300 215 c 0
 324.786583805 215 349.865687882 218.854511292 372.827346028 225.8395913 c 1
223.376158658 175.079061891 m 1
 227.861986392 81.311156022 262.310203966 74.8335245994 288.30703282 74.8335245994 c 0
 292.474644945 74.8335245994 296.425056024 75 300 75 c 0
 303.62638115 75 307.628853782 74.8083171372 311.841815357 74.8083171372 c 0
 336.771754443 74.8083171372 369.072189709 81.5202982482 374.429373838 174.379725177 c 1
 350.486429597 168.308845165 325.144687406 165 300 165 c 0
 274.087313371 165 247.961686584 168.577467517 223.376158658 175.079061891 c 1
419.988859847 246.441282213 m 1
 455.709005039 267.864457857 475 295.861524898 475 325 c 0
 475 392.018943769 440.108528192 425 394 425 c 0
 385.027926808 425 361.51398299 417.173662973 335.951016663 399.229707553 c 1
 373.403480943 360.947921981 407.461147416 308.764700575 419.988859847 246.441282213 c 1
173.005192551 193.758678918 m 0
 119.568783874 219.894536242 75 265.243425515 75 325 c 0
 75 404.797307118 114.256726105 475 202 475 c 0
 230.576280128 475 263.751528485 458.425098387 297.521099782 433.023149785 c 1
 330.920916049 458.526772263 364.561994197 475 394 475 c 0
 471.891471808 475 525 411.981056231 525 325 c 0
 525 264.050546014 479.409126093 218.369441645 424.987597427 192.498312503 c 1
 423.778284656 36.1360797214 338.243679253 25 300 25 c 0
 261.95349867 25 173 35.5103440304 173 192 c 0
 173 193 173.005192551 192.423417822 173.005192551 193.758678918 c 0
EndSplineSet
Validated: 1
Ligature2: "Ligature Substitution lookup 213 subtable" u n p a
Ligature2: "Ligature Substitution lookup 144 subtable" u n p a tp_space
Ligature2: "tokiponaWords subtable" percent u n p a space
EndChar

StartChar: tp_uta
Encoding: 61040 61040 112
Width: 540
VWidth: 0
Flags: W
HStem: -12 21G<199.009 340.991> 470 50<100 440>
VStem: 50 50<140.295 470> 440 50<140.295 470>
LayerCount: 2
Back
SplineSet
270 13 m 7
 394 13 465 113 465 260 c 4
 465 495 l 5
 75 495 l 5
 75 260 l 7
 75 113 146 13 270 13 c 7
EndSplineSet
Fore
SplineSet
270 -12 m 0
 128.018981549 -12 50 105.691771474 50 260 c 2
 50 495 l 2
 50 505.729904333 59.8674621445 520 75 520 c 2
 465 520 l 2
 475.729904333 520 490 510.132537856 490 495 c 2
 490 260 l 2
 490 105.691751295 411.981174392 -12 270 -12 c 0
270 38 m 0
 376.018825608 38 440 120.308248705 440 260 c 2
 440 470 l 1
 100 470 l 1
 100 260 l 2
 100 120.308228526 163.981018451 38 270 38 c 0
EndSplineSet
LCarets2: 4 0 0 0 0
Ligature2: "Ligature Substitution lookup 79 subtable" u t a
Ligature2: "Ligature Substitution lookup 57 subtable" u t a tp_space
Ligature2: "tokiponaWords subtable" percent u t a space
EndChar

StartChar: tp_utala
Encoding: 61041 61041 113
Width: 550
VWidth: 0
Flags: W
LayerCount: 2
Back
SplineSet
482 507 m 5
 171 13 l 5
 68 220 l 1029
68 507 m 5
 379 13 l 5
 482 220 l 1029
EndSplineSet
Fore
SplineSet
54.6808041601 528.156536157 m 0
 66.2044552426 535.411304349 81.9017679657 531.842846923 89.1565361573 520.31919584 c 2
 275 225.12089636 l 1
 460.843463843 520.31919584 l 2
 468.098232034 531.842846923 483.795544757 535.411304349 495.31919584 528.156536157 c 0
 506.842846923 520.901767966 510.411304349 505.204455243 503.156536157 493.68080416 c 2
 304.541697911 178.196141479 l 1
 376.444746188 63.9835824797 l 1
 459.617736678 231.137068223 l 2
 465.68393236 243.328354691 480.945781755 248.448459004 493.137068223 242.382263322 c 0
 505.328354691 236.31606764 510.448459004 221.054218245 504.382263322 208.862931777 c 2
 401.382263322 1.86293177715 l 2
 399.662374065 -1.59354468959 397.072931453 -4.71027900844 393.938019476 -7.04633567816 c 0
 382.415061885 -15.6329505935 365.49955278 -12.4803146021 357.843463843 -0.319195839949 c 2
 275 131.271386598 l 1
 192.156536157 -0.319195839949 l 2
 184.50044722 -12.4803146021 167.584938115 -15.6329505935 156.061980524 -7.04633567816 c 0
 152.924358678 -4.7082596832 150.313481725 -1.54502185939 148.617736678 1.86293177715 c 2
 45.6177366784 208.862931777 l 2
 39.5515409964 221.054218245 44.6716453095 236.31606764 56.8629317772 242.382263322 c 0
 69.0542182448 248.448459004 84.3160676397 243.328354691 90.3822633216 231.137068223 c 2
 173.555253812 63.9835824797 l 1
 245.458302089 178.196141479 l 1
 46.8434638427 493.68080416 l 2
 39.588695651 505.204455243 43.1571530775 520.901767966 54.6808041601 528.156536157 c 0
EndSplineSet
Ligature2: "Ligature Substitution lookup 244 subtable" u t a l a
Ligature2: "Ligature Substitution lookup 231 subtable" u t a l a tp_space
Ligature2: "tokiponaWords subtable" percent u t a l a space
LCarets2: 6 0 0 0 0 0 0
EndChar

StartChar: tp_walo
Encoding: 61042 61042 114
Width: 600
VWidth: 0
Flags: HW
HStem: 25 50<121.317 478.683>
LayerCount: 2
Back
SplineSet
520 330 m 5
 430 230 l 1029
80 330 m 5
 170 230 l 1029
80 50 m 5
 520 50 l 5
 300 470 l 5
 80 50 l 5
EndSplineSet
Fore
SplineSet
80 25 m 2
 78.345343975 25 73.2048390328 25.7163205249 70.173076777 27.0123602784 c 0
 60.7149299699 31.0555975847 55.068911775 40.5095976522 55.068911775 50.2253283224 c 0
 55.068911775 54.0831262905 55.9590763333 57.9821893233 57.854211618 61.6001748668 c 2
 142.495926659 223.188903581 l 1
 61.4176463438 313.275881709 l 2
 57.1828079057 317.981257752 55.0995496608 323.973422071 55.0995496608 329.954257647 c 0
 55.0995496608 336.838540335 57.8597256525 343.707813205 63.2758817094 348.582353656 c 0
 67.9812577519 352.817192094 73.9734220711 354.900450339 79.9542576468 354.900450339 c 0
 86.8385403346 354.900450339 93.707813205 352.140274348 98.5823536562 346.724118291 c 2
 167.243395642 270.43407164 l 1
 277.854211618 481.600174867 l 2
 279.754909247 485.228779431 282.966925126 488.822689659 286.698088754 491.1674079 c 0
 290.748908716 493.713002895 295.29240755 494.914144877 299.797601396 494.914144877 c 0
 308.824569439 494.914144877 317.69775312 490.091878548 322.145788382 481.600174867 c 2
 432.756604358 270.43407164 l 1
 501.417646344 346.724118291 l 2
 506.292186795 352.140274348 513.161459665 354.900450339 520.045742353 354.900450339 c 0
 526.026577929 354.900450339 532.018742248 352.817192094 536.724118291 348.582353656 c 0
 542.140274348 343.707813205 544.900450339 336.838540335 544.900450339 329.954257647 c 0
 544.900450339 323.973422071 542.817192094 317.981257752 538.582353656 313.275881709 c 2
 457.504073341 223.188903581 l 1
 542.145788382 61.6001748668 l 2
 543.182611228 59.620785796 544.99826239 54.1624796037 544.99826239 50.0467891501 c 0
 544.99826239 36.5283425905 533.726483286 25 520 25 c 2
 80 25 l 2
121.31730855 75 m 1
 478.68269145 75 l 1
 300 416.121501859 l 1
 121.31730855 75 l 1
EndSplineSet
Validated: 1
Ligature2: "Ligature Substitution lookup 214 subtable" w a l o
Ligature2: "Ligature Substitution lookup 145 subtable" w a l o tp_space
Ligature2: "tokiponaWords subtable" percent w a l o space
LCarets2: 5 0 0 0 0 0
EndChar

StartChar: tp_wan
Encoding: 61043 61043 115
Width: 248
VWidth: 0
Flags: W
HStem: -12 21G<161.191 174.809>
VStem: 143 50<-11.7959 445.645>
LayerCount: 2
Back
SplineSet
68 406 m 5
 168 506 l 5
 168 13 l 1028
EndSplineSet
Fore
SplineSet
50.3223304703 388.32233047 m 0
 40.6935663807 397.95109456 40.6935663807 414.04890544 50.3223304703 423.67766953 c 2
 150.32233047 523.67766953 l 2
 160.483740495 533.839079554 177.677263618 533.163561553 187.0101164 522.236239542 c 0
 191.086691974 517.463202289 193 508.846796431 193 506 c 2
 193 13 l 2
 193 -0.617128764476 181.617128764 -12 168 -12 c 0
 154.382871236 -12 143 -0.617128764476 143 13 c 2
 143 445.644660941 l 1
 85.6776695297 388.32233047 l 2
 76.04890544 378.693566381 59.95109456 378.693566381 50.3223304703 388.32233047 c 0
EndSplineSet
Ligature2: "Ligature Substitution lookup 80 subtable" w a n
Ligature2: "Ligature Substitution lookup 58 subtable" w a n tp_space
Ligature2: "tokiponaWords subtable" percent w a n space
LCarets2: 4 0 0 0 0
EndChar

StartChar: tp_waso
Encoding: 61044 61044 116
Width: 550
VWidth: 0
Flags: W
HStem: -133 21G<268.191 281.809> 221 78<116.281 185.719 288.281 357.719>
VStem: 112 78<225.281 294.719> 250 50<-132.796 3.90941> 284 78<225.281 294.719>
LayerCount: 2
Back
SplineSet
68 703 m 4
 482 260 l 5
 275 13 l 5
 275 -108 l 1029
EndSplineSet
Refer: 153 -1 S 1 0 0 1 151 260 2
Refer: 153 -1 S 1 0 0 1 323 260 2
Fore
SplineSet
50.9302949147 721.265409065 m 0xf0
 60.8791920015 730.563023949 76.96779418 730.018602172 86.2654090647 720.069705085 c 2
 500.265409065 277.069705085 l 2
 509.265106743 267.439593801 508.23584624 252.384068572 501.160947652 243.942039822 c 2
 300 3.90941146433 l 1
 300 -108 l 2
 300 -121.617128764 288.617128764 -133 275 -133 c 0
 261.382871236 -133 250 -121.617128764 250 -108 c 2
 250 13 l 2
 250 18.4742312955 252.064271532 24.5537531168 255.839052348 29.057960178 c 2
 448.625466622 259.097787839 l 1
 49.7345909353 685.930294915 l 2
 40.4369760506 695.879192001 40.9813978279 711.96779418 50.9302949147 721.265409065 c 0xf0
EndSplineSet
Refer: 153 -1 N 1 0 0 1 151 260 2
Refer: 153 -1 N 1 0 0 1 323 260 2
Ligature2: "Ligature Substitution lookup 215 subtable" w a s o
Ligature2: "Ligature Substitution lookup 146 subtable" w a s o tp_space
Ligature2: "tokiponaWords subtable" percent w a s o space
LCarets2: 5 0 0 0 0 0
EndChar

StartChar: tp_wawa
Encoding: 61045 61045 117
Width: 550
VWidth: 0
Flags: W
HStem: -12 21G<73.1914 86.8086 463.191 476.809> 138 50<224.998 325.002> 332 50<224.998 325.002> 512 20G<73.1914 86.8086 463.191 476.809>
VStem: 55 50<-11.7959 531.796> 154 50<209.677 310.323> 346 50<209.677 310.323> 445 50<-11.7959 531.796>
LayerCount: 2
Back
SplineSet
179 260 m 0
 179 313 222 357 275 357 c 0
 328 357 371 313 371 260 c 0
 371 207 328 163 275 163 c 0
 222 163 179 207 179 260 c 0
470 507 m 1
 470 13 l 1025
80 507 m 1
 80 13 l 1025
EndSplineSet
Fore
SplineSet
204 260 m 0
 204 220.560546875 236.155273438 188 275 188 c 0
 313.844726562 188 346 220.560546875 346 260 c 0
 346 299.439453125 313.844726562 332 275 332 c 0
 236.155273438 332 204 299.439453125 204 260 c 0
154 260 m 0
 154 326.560546875 207.844726562 382 275 382 c 0
 342.155273438 382 396 326.560546875 396 260 c 0
 396 193.439453125 342.155273438 138 275 138 c 0
 207.844726562 138 154 193.439453125 154 260 c 0
470 532 m 0
 483.6171875 532 495 520.6171875 495 507 c 2
 495 13 l 2
 495 -0.6171875 483.6171875 -12 470 -12 c 0
 456.3828125 -12 445 -0.6171875 445 13 c 2
 445 507 l 2
 445 520.6171875 456.3828125 532 470 532 c 0
80 532 m 0
 93.6171875 532 105 520.6171875 105 507 c 2
 105 13 l 2
 105 -0.6171875 93.6171875 -12 80 -12 c 0
 66.3828125 -12 55 -0.6171875 55 13 c 2
 55 507 l 2
 55 520.6171875 66.3828125 532 80 532 c 0
EndSplineSet
Ligature2: "Ligature Substitution lookup 216 subtable" w a w a
Ligature2: "Ligature Substitution lookup 147 subtable" w a w a tp_space
Ligature2: "tokiponaWords subtable" percent w a w a space
LCarets2: 5 0 0 0 0 0
EndChar

StartChar: tp_weka
Encoding: 61046 61046 118
Width: 416
VWidth: 0
Flags: W
VStem: 46.2507 323.499
LayerCount: 2
Back
SplineSet
68 507 m 5
 151 360.564285714 l 1029
265 159.435714286 m 5
 348 13 l 1029
68 13 m 5
 151 159.435714286 l 1029
265 360.564285714 m 5
 348 507 l 1029
EndSplineSet
Fore
SplineSet
55.6724640534 528.749295563 m 0
 67.5189823821 535.463921336 83.0346697896 531.174054275 89.749295563 519.327535947 c 2
 172.749295563 372.891821661 l 2
 179.463921336 361.045303332 175.174054275 345.529615925 163.327535947 338.814990151 c 0
 151.481017618 332.100364378 135.96533021 336.390231439 129.250704437 348.236749768 c 2
 46.250704437 494.672464053 l 2
 39.5360786637 506.518982382 43.8259457247 522.03466979 55.6724640534 528.749295563 c 0
252.672464053 181.185009849 m 0
 264.518982382 187.899635622 280.03466979 183.609768561 286.749295563 171.763250232 c 2
 369.749295563 25.3275359466 l 2
 376.463921336 13.4810176179 372.174054275 -2.03466978961 360.327535947 -8.74929556296 c 0
 348.481017618 -15.4639213363 332.96533021 -11.1740542753 326.250704437 0.672464053384 c 2
 243.250704437 147.108178339 l 2
 236.536078664 158.954696668 240.825945725 174.470384075 252.672464053 181.185009849 c 0
55.6724640534 -8.74929556296 m 0
 43.8259457247 -2.03466978961 39.5360786637 13.4810176179 46.250704437 25.3275359466 c 2
 129.250704437 171.763250232 l 2
 135.96533021 183.609768561 151.481017618 187.899635622 163.327535947 181.185009849 c 0
 175.174054275 174.470384075 179.463921336 158.954696668 172.749295563 147.108178339 c 2
 89.749295563 0.672464053384 l 2
 83.0346697896 -11.1740542753 67.5189823821 -15.4639213363 55.6724640534 -8.74929556296 c 0
252.672464053 338.814990151 m 0
 240.825945725 345.529615925 236.536078664 361.045303332 243.250704437 372.891821661 c 2
 326.250704437 519.327535947 l 2
 332.96533021 531.174054275 348.481017618 535.463921336 360.327535947 528.749295563 c 0
 372.174054275 522.03466979 376.463921336 506.518982382 369.749295563 494.672464053 c 2
 286.749295563 348.236749768 l 2
 280.03466979 336.390231439 264.518982382 332.100364378 252.672464053 338.814990151 c 0
EndSplineSet
Ligature2: "Ligature Substitution lookup 217 subtable" w e k a
Ligature2: "Ligature Substitution lookup 148 subtable" w e k a tp_space
Ligature2: "tokiponaWords subtable" percent w e k a space
LCarets2: 5 0 0 0 0 0
EndChar

StartChar: tp_wile
Encoding: 61047 61047 119
Width: 550
VWidth: 0
Flags: W
HStem: -12 21G<127.228 194.854 342.536 411.673>
VStem: 43 50<68.5696 219.626> 457 50<60.9761 196.213>
LayerCount: 2
Back
Refer: 78 61006 S 1 0 0 -1 0 520 2
Fore
SplineSet
273.59765625 460.817382812 m 1
 171.333007812 314.466796875 93 224.116210938 93 133 c 0
 93 86.578125 122.543945312 38 171 38 c 0
 217.721679688 38 249.876953125 100.095703125 252.576171875 106.087890625 c 0
 259.805664062 119.494140625 274.880859375 123.467773438 286.866210938 117.004882812 c 0
 293.396484375 113.482421875 298.14453125 106.205078125 299.396484375 100.463867188 c 0
 300.817382812 93.736328125 315.107421875 38 367 38 c 0
 429.654296875 38 457 67.8740234375 457 133 c 0
 457 193.059570312 350.229492188 337.522460938 273.59765625 460.817382812 c 1
254.283203125 520.993164062 m 0
 255.603515625 522.948242188 258.258789062 525.827148438 260.828125 527.594726562 c 0
 272.666015625 535.741210938 289.451171875 531.953125 296.643554688 519.512695312 c 0
 368.458984375 395.291992188 507 234.403320312 507 133 c 0
 507 46.1259765625 456.345703125 -12 367 -12 c 0
 318.072265625 -12 288.192382812 14.8447265625 270.721679688 41.625 c 1
 252.266601562 18.88671875 218.70703125 -12 171 -12 c 0
 83.4560546875 -12 43 71.421875 43 133 c 0
 43 259.418945312 148.653320312 364.602539062 254.283203125 520.993164062 c 0
EndSplineSet
Ligature2: "Ligature Substitution lookup 218 subtable" w i l e
Ligature2: "Ligature Substitution lookup 149 subtable" w i l e tp_space
Ligature2: "tokiponaWords subtable" percent w i l e space
LCarets2: 5 0 0 0 0 0
EndChar

StartChar: tp_apeja
Encoding: 61048 61048 120
Width: 600
VWidth: 0
Flags: HW
LayerCount: 2
Back
SplineSet
150 50 m 5
 300 200 l 5
 450 50 l 1029
359 370 m 4
 359 414 395 450 439 450 c 4
 483 450 519 414 519 370 c 4
 519 326 483 290 439 290 c 4
 395 290 359 326 359 370 c 4
79 370 m 4
 79 414 115 450 159 450 c 4
 203 450 239 414 239 370 c 4
 239 326 203 290 159 290 c 4
 115 290 79 326 79 370 c 4
EndSplineSet
Fore
SplineSet
54 370 m 0
 54 427.844147731 101.155680827 475 159 475 c 0
 216.844147731 475 264 427.844319173 264 370 c 0
 264 312.155852269 216.844319173 265 159 265 c 0
 101.155852269 265 54 312.155680827 54 370 c 0
104 370 m 0
 104 339.844319173 128.844147731 315 159 315 c 0
 189.155680827 315 214 339.844147731 214 370 c 0
 214 400.155680827 189.155852269 425 159 425 c 0
 128.844319173 425 104 400.155852269 104 370 c 0
334 370 m 0
 334 427.844147731 381.155680827 475 439 475 c 0
 496.844147731 475 544 427.844319173 544 370 c 0
 544 312.155852269 496.844319173 265 439 265 c 0
 381.155852269 265 334 312.155680827 334 370 c 0
384 370 m 0
 384 339.844319173 408.844147731 315 439 315 c 0
 469.155680827 315 494 339.844147731 494 370 c 0
 494 400.155680827 469.155852269 425 439 425 c 0
 408.844319173 425 384 400.155852269 384 370 c 0
132.32233047 32.3223304703 m 0
 127.507948425 37.1367125152 125.100757403 43.5683562576 125.100757403 50 c 0
 125.100757403 56.4316437424 127.507948426 62.8632874848 132.32233047 67.6776695297 c 2
 282.32233047 217.67766953 l 2
 287.226593767 222.581932826 293.468449166 224.584471187 299.52205424 224.584471187 c 0
 306.676449704 224.584471187 313.567907112 221.787431948 317.67766953 217.67766953 c 2
 467.67766953 67.6776695297 l 2
 472.492051575 62.8632874848 474.899242597 56.4316437424 474.899242597 50 c 0
 474.899242597 43.5683562576 472.492051575 37.1367125152 467.67766953 32.3223304703 c 0
 462.863287485 27.5079484255 456.431643743 25.1007574031 450 25.1007574031 c 0
 443.568356257 25.1007574031 437.136712515 27.5079484255 432.32233047 32.3223304703 c 2
 300 164.644660941 l 1
 167.67766953 32.3223304703 l 2
 162.863287485 27.5079484255 156.431643743 25.1007574031 150 25.1007574031 c 0
 143.568356257 25.1007574031 137.136712515 27.5079484255 132.32233047 32.3223304703 c 0
EndSplineSet
Validated: 1
Ligature2: "Ligature Substitution lookup 235 subtable" a p e j a
Ligature2: "Ligature Substitution lookup 222 subtable" a p e j a tp_space
EndChar

StartChar: tp_monsuta
Encoding: 61049 61049 121
Width: 600
VWidth: 0
Flags: HW
LayerCount: 2
Back
SplineSet
100 150 m 5
 200 350 l 5
 300 150 l 5
 400 350 l 4
 500 150 l 1029
EndSplineSet
Fore
SplineSet
88.8196601125 127.639320225 m 0
 80.1412871687 131.978506697 75.0620463602 140.979463809 75.0620463602 150.201865543 c 0
 75.0620463602 153.922502952 75.8887415817 157.679182601 77.639320225 161.180339887 c 2
 177.639320225 361.180339887 l 2
 182.001955004 369.905609445 191.018019166 374.918036375 200.20994107 374.918036375 c 0
 204.55872927 374.918036375 208.946880213 373.796090475 212.900230163 371.414575918 c 0
 217.050823724 368.914240985 221.398805947 363.104087543 222.360679775 361.180339887 c 2
 300 205.901699437 l 1
 377.639320225 361.180339887 l 2
 382.001955004 369.905609445 391.018019166 374.918036375 400.20994107 374.918036375 c 0
 404.55872927 374.918036375 408.946880213 373.796090475 412.900230163 371.414575918 c 0
 417.050823724 368.914240985 421.398805947 363.104087543 422.360679775 361.180339887 c 2
 522.360679775 161.180339887 l 2
 524.111258418 157.679182601 524.93795364 153.922502952 524.93795364 150.201865543 c 0
 524.93795364 140.979463809 519.858712831 131.978506697 511.180339887 127.639320225 c 0
 507.679182601 125.888741582 503.922502952 125.06204636 500.201865543 125.06204636 c 0
 490.979463809 125.06204636 481.978506697 130.141287169 477.639320225 138.819660113 c 2
 400 294.098300563 l 1
 322.360679775 138.819660113 l 2
 320.906139601 135.910579765 316.983473485 131.045186949 312.900230163 128.585424082 c 0
 308.946880213 126.203909525 304.55872927 125.081963625 300.20994107 125.081963625 c 0
 291.018019166 125.081963625 282.001955004 130.094390555 277.639320225 138.819660113 c 2
 200 294.098300563 l 1
 122.360679775 138.819660113 l 2
 118.021493303 130.141287169 109.020536191 125.06204636 99.798134457 125.06204636 c 0
 96.0774970474 125.06204636 92.3208173991 125.888741582 88.8196601125 127.639320225 c 0
EndSplineSet
Validated: 1
Ligature2: "Ligature Substitution lookup 273 subtable" m o n s u t a
Ligature2: "Ligature Substitution lookup 269 subtable" m o n s u t a tp_space
EndChar

